<ttFont>
    <TTGlyph name="A" xMin="38" yMin="0" xMax="1401" yMax="1456">
      <contour>
        <pt x="177" y="0" on="1"/>
        <pt x="38" y="0" on="1"/>
        <pt x="647" y="1456" on="1"/>
        <pt x="798" y="1456" on="1"/>
        <pt x="1401" y="0" on="1"/>
        <pt x="1260" y="0" on="1"/>
        <pt x="1081" y="426" on="1"/>
        <pt x="347" y="426" on="1"/>
      </contour>
      <contour>
        <pt x="382" y="520" on="1"/>
        <pt x="1047" y="520" on="1"/>
        <pt x="801" y="1168" on="1"/>
        <pt x="722" y="1389" on="1"/>
        <pt x="645" y="1168" on="1"/>
      </contour>
    </TTGlyph>
    <TTGlyph name="AE" xMin="33" yMin="0" xMax="1913" yMax="1456">
      <contour>
        <pt x="943" y="1342" on="1"/>
        <pt x="468" y="521" on="1"/>
        <pt x="1096" y="521" on="1"/>
        <pt x="1033" y="1342" on="1"/>
      </contour>
      <contour>
        <pt x="866" y="1456" on="1"/>
        <pt x="1889" y="1456" on="1"/>
        <pt x="1889" y="1342" on="1"/>
        <pt x="1152" y="1342" on="1"/>
        <pt x="1193" y="804" on="1"/>
        <pt x="1848" y="804" on="1"/>
        <pt x="1848" y="691" on="1"/>
        <pt x="1209" y="691" on="1"/>
        <pt x="1254" y="114" on="1"/>
        <pt x="1913" y="114" on="1"/>
        <pt x="1913" y="0" on="1"/>
        <pt x="1144" y="0" on="1"/>
        <pt x="1112" y="407" on="1"/>
        <pt x="410" y="407" on="1"/>
        <pt x="179" y="0" on="1"/>
        <pt x="33" y="0" on="1"/>
      </contour>
    </TTGlyph>
    <TTGlyph name="Aacute" xMin="38" yMin="0" xMax="1401" yMax="1938">
      <component glyphName="A" x="0" y="0" flags="0x1204"/>
      <component glyphName="acute" x="179" y="430" flags="0x1004"/>
    </TTGlyph>
    <TTGlyph name="Acircumflex" xMin="38" yMin="0" xMax="1401" yMax="1940">
      <component glyphName="A" x="0" y="0" flags="0x1204"/>
      <component glyphName="circumflex" x="312" y="430" flags="0x1004"/>
    </TTGlyph>
    <TTGlyph name="Adieresis" xMin="38" yMin="0" xMax="1401" yMax="1851">
      <component glyphName="A" x="0" y="0" flags="0x1204"/>
      <component glyphName="dieresis" x="278" y="430" flags="0x1004"/>
    </TTGlyph>
    <TTGlyph name="Agrave" xMin="38" yMin="0" xMax="1401" yMax="1938">
      <component glyphName="A" x="0" y="0" flags="0x1204"/>
      <component glyphName="grave" x="339" y="430" flags="0x1004"/>
    </TTGlyph>
    <TTGlyph name="Aring" xMin="38" yMin="0" xMax="1401" yMax="1979">
      <component glyphName="A" x="0" y="0" flags="0x1204"/>
      <component glyphName="ring" x="303" y="430" flags="0x1004"/>
    </TTGlyph>
    <TTGlyph name="Atilde" xMin="38" yMin="0" xMax="1401" yMax="1881">
      <component glyphName="A" x="0" y="0" flags="0x1204"/>
      <component glyphName="tilde" x="236" y="430" flags="0x1004"/>
    </TTGlyph>
    <TTGlyph name="B" xMin="224" yMin="0" xMax="1212" yMax="1456">
      <contour>
        <pt x="224" y="0" on="1"/>
        <pt x="224" y="1456" on="1"/>
        <pt x="501" y="1456" on="1"/>
        <pt x="564" y="1456" on="0"/>
        <pt x="709" y="1453" on="0"/>
        <pt x="851" y="1434" on="0"/>
        <pt x="983" y="1393" on="0"/>
        <pt x="1083" y="1317" on="0"/>
        <pt x="1143" y="1200" on="0"/>
        <pt x="1143" y="1115" on="1"/>
        <pt x="1143" y="1046" on="0"/>
        <pt x="1092" y="929" on="0"/>
        <pt x="1004" y="838" on="0"/>
        <pt x="884" y="776" on="0"/>
        <pt x="815" y="763" on="1"/>
        <pt x="903" y="760" on="0"/>
        <pt x="1050" y="708" on="0"/>
        <pt x="1154" y="614" on="0"/>
        <pt x="1212" y="481" on="0"/>
        <pt x="1212" y="397" on="1"/>
        <pt x="1212" y="318" on="0"/>
        <pt x="1152" y="174" on="0"/>
        <pt x="1034" y="65" on="0"/>
        <pt x="857" y="0" on="0"/>
        <pt x="739" y="0" on="1"/>
      </contour>
      <contour>
        <pt x="354" y="699" on="1"/>
        <pt x="354" y="114" on="1"/>
        <pt x="670" y="114" on="1"/>
        <pt x="864" y="114" on="0"/>
        <pt x="1077" y="252" on="0"/>
        <pt x="1077" y="398" on="1"/>
        <pt x="1077" y="484" on="0"/>
        <pt x="1015" y="600" on="0"/>
        <pt x="896" y="670" on="0"/>
        <pt x="721" y="699" on="0"/>
        <pt x="607" y="699" on="1"/>
      </contour>
      <contour>
        <pt x="356" y="812" on="1"/>
        <pt x="579" y="812" on="1"/>
        <pt x="658" y="812" on="0"/>
        <pt x="812" y="836" on="0"/>
        <pt x="934" y="898" on="0"/>
        <pt x="1008" y="1004" on="0"/>
        <pt x="1008" y="1085" on="1"/>
        <pt x="1008" y="1166" on="0"/>
        <pt x="943" y="1267" on="0"/>
        <pt x="831" y="1323" on="0"/>
        <pt x="679" y="1342" on="0"/>
        <pt x="591" y="1342" on="1"/>
        <pt x="356" y="1342" on="1"/>
      </contour>
    </TTGlyph>
    <TTGlyph name="C" xMin="128" yMin="-23" xMax="1289" yMax="1483">
      <contour>
        <pt x="1204" y="1266" on="1"/>
        <pt x="1072" y="1368" on="0"/>
        <pt x="848" y="1368" on="1"/>
        <pt x="699" y="1368" on="0"/>
        <pt x="481" y="1255" on="0"/>
        <pt x="337" y="1070" on="0"/>
        <pt x="267" y="834" on="0"/>
        <pt x="267" y="711" on="1"/>
        <pt x="267" y="587" on="0"/>
        <pt x="332" y="363" on="0"/>
        <pt x="469" y="192" on="0"/>
        <pt x="680" y="91" on="0"/>
        <pt x="826" y="91" on="1"/>
        <pt x="959" y="91" on="0"/>
        <pt x="1176" y="152" on="0"/>
        <pt x="1247" y="215" on="1"/>
        <pt x="1289" y="118" on="1"/>
        <pt x="1203" y="49" on="0"/>
        <pt x="953" y="-23" on="0"/>
        <pt x="794" y="-23" on="1"/>
        <pt x="632" y="-23" on="0"/>
        <pt x="383" y="92" on="0"/>
        <pt x="215" y="291" on="0"/>
        <pt x="128" y="557" on="0"/>
        <pt x="128" y="709" on="1"/>
        <pt x="128" y="865" on="0"/>
        <pt x="224" y="1145" on="0"/>
        <pt x="406" y="1358" on="0"/>
        <pt x="667" y="1483" on="0"/>
        <pt x="832" y="1483" on="1"/>
        <pt x="964" y="1483" on="0"/>
        <pt x="1165" y="1416" on="0"/>
        <pt x="1252" y="1341" on="1"/>
      </contour>
    </TTGlyph>
    <TTGlyph name="Ccedilla" xMin="128" yMin="-412" xMax="1289" yMax="1483">
      <component glyphName="C" x="0" y="0" flags="0x1204"/>
      <component glyphName="cedilla" x="547" y="0" flags="0x1004"/>
    </TTGlyph>
    <TTGlyph name="D" xMin="211" yMin="0" xMax="1434" yMax="1456">
      <contour>
        <pt x="217" y="1456" on="1"/>
        <pt x="516" y="1456" on="1"/>
        <pt x="653" y="1456" on="0"/>
        <pt x="895" y="1431" on="0"/>
        <pt x="1099" y="1369" on="0"/>
        <pt x="1261" y="1263" on="0"/>
        <pt x="1374" y="1101" on="0"/>
        <pt x="1434" y="875" on="0"/>
        <pt x="1434" y="725" on="1"/>
        <pt x="1434" y="560" on="0"/>
        <pt x="1323" y="292" on="0"/>
        <pt x="1112" y="103" on="0"/>
        <pt x="808" y="0" on="0"/>
        <pt x="616" y="0" on="1"/>
        <pt x="211" y="0" on="1"/>
      </contour>
      <contour>
        <pt x="345" y="114" on="1"/>
        <pt x="635" y="114" on="1"/>
        <pt x="804" y="114" on="0"/>
        <pt x="1053" y="204" on="0"/>
        <pt x="1216" y="364" on="0"/>
        <pt x="1295" y="586" on="0"/>
        <pt x="1295" y="718" on="1"/>
        <pt x="1295" y="892" on="0"/>
        <pt x="1197" y="1130" on="0"/>
        <pt x="1005" y="1277" on="0"/>
        <pt x="720" y="1342" on="0"/>
        <pt x="534" y="1342" on="1"/>
        <pt x="345" y="1342" on="1"/>
      </contour>
    </TTGlyph>
    <TTGlyph name="E" xMin="226" yMin="0" xMax="1096" yMax="1456">
      <contour>
        <pt x="1096" y="114" on="1"/>
        <pt x="1096" y="0" on="1"/>
        <pt x="226" y="0" on="1"/>
        <pt x="226" y="1456" on="1"/>
        <pt x="1068" y="1456" on="1"/>
        <pt x="1068" y="1342" on="1"/>
        <pt x="358" y="1342" on="1"/>
        <pt x="358" y="804" on="1"/>
        <pt x="1028" y="804" on="1"/>
        <pt x="1028" y="691" on="1"/>
        <pt x="356" y="691" on="1"/>
        <pt x="356" y="114" on="1"/>
      </contour>
    </TTGlyph>
    <TTGlyph name="Eacute" xMin="226" yMin="0" xMax="1096" yMax="1938">
      <component glyphName="acute" x="75" y="430" flags="0x1004"/>
      <component glyphName="E" x="0" y="0" flags="0x1004"/>
    </TTGlyph>
    <TTGlyph name="Ecircumflex" xMin="226" yMin="0" xMax="1096" yMax="1940">
      <component glyphName="circumflex" x="213" y="430" flags="0x1004"/>
      <component glyphName="E" x="0" y="0" flags="0x1004"/>
    </TTGlyph>
    <TTGlyph name="Edieresis" xMin="226" yMin="0" xMax="1096" yMax="1851">
      <component glyphName="dieresis" x="178" y="430" flags="0x1004"/>
      <component glyphName="E" x="0" y="0" flags="0x1004"/>
    </TTGlyph>
    <TTGlyph name="Egrave" xMin="226" yMin="0" xMax="1096" yMax="1938">
      <component glyphName="E" x="0" y="0" flags="0x1204"/>
      <component glyphName="grave" x="235" y="430" flags="0x1004"/>
    </TTGlyph>
    <TTGlyph name="Eth" xMin="13" yMin="0" xMax="1433" yMax="1456">
      <contour>
        <pt x="13" y="688" on="1"/>
        <pt x="13" y="790" on="1"/>
        <pt x="213" y="790" on="1"/>
        <pt x="213" y="1456" on="1"/>
        <pt x="515" y="1456" on="1"/>
        <pt x="652" y="1456" on="0"/>
        <pt x="894" y="1431" on="0"/>
        <pt x="1098" y="1369" on="0"/>
        <pt x="1260" y="1263" on="0"/>
        <pt x="1373" y="1101" on="0"/>
        <pt x="1433" y="875" on="0"/>
        <pt x="1433" y="725" on="1"/>
        <pt x="1433" y="560" on="0"/>
        <pt x="1322" y="292" on="0"/>
        <pt x="1111" y="103" on="0"/>
        <pt x="808" y="0" on="0"/>
        <pt x="616" y="0" on="1"/>
        <pt x="211" y="0" on="1"/>
        <pt x="211" y="688" on="1"/>
      </contour>
      <contour>
        <pt x="341" y="114" on="1"/>
        <pt x="635" y="114" on="1"/>
        <pt x="804" y="114" on="0"/>
        <pt x="1052" y="204" on="0"/>
        <pt x="1215" y="364" on="0"/>
        <pt x="1295" y="586" on="0"/>
        <pt x="1295" y="718" on="1"/>
        <pt x="1295" y="892" on="0"/>
        <pt x="1197" y="1130" on="0"/>
        <pt x="1004" y="1277" on="0"/>
        <pt x="719" y="1342" on="0"/>
        <pt x="533" y="1342" on="1"/>
        <pt x="344" y="1342" on="1"/>
        <pt x="344" y="790" on="1"/>
        <pt x="558" y="790" on="1"/>
        <pt x="558" y="688" on="1"/>
        <pt x="341" y="688" on="1"/>
      </contour>
    </TTGlyph>
    <TTGlyph name="Euro" xMin="99" yMin="-21" xMax="1109" yMax="1464">
      <contour>
        <pt x="116" y="642" on="1"/>
        <pt x="224" y="642" on="1"/>
        <pt x="223" y="658" on="0"/>
        <pt x="220" y="704" on="0"/>
        <pt x="220" y="735" on="1"/>
        <pt x="220" y="768" on="0"/>
        <pt x="223" y="812" on="1"/>
        <pt x="99" y="812" on="1"/>
        <pt x="115" y="919" on="1"/>
        <pt x="239" y="919" on="1"/>
        <pt x="259" y="1036" on="0"/>
        <pt x="352" y="1236" on="0"/>
        <pt x="494" y="1382" on="0"/>
        <pt x="686" y="1464" on="0"/>
        <pt x="805" y="1464" on="1"/>
        <pt x="994" y="1464" on="0"/>
        <pt x="1109" y="1358" on="1"/>
        <pt x="1087" y="1225" on="1"/>
        <pt x="1043" y="1288" on="0"/>
        <pt x="893" y="1350" on="0"/>
        <pt x="793" y="1350" on="1"/>
        <pt x="703" y="1350" on="0"/>
        <pt x="560" y="1279" on="0"/>
        <pt x="455" y="1161" on="0"/>
        <pt x="387" y="1004" on="0"/>
        <pt x="372" y="919" on="1"/>
        <pt x="986" y="919" on="1"/>
        <pt x="969" y="812" on="1"/>
        <pt x="357" y="812" on="1"/>
        <pt x="354" y="791" on="0"/>
        <pt x="350" y="739" on="0"/>
        <pt x="350" y="717" on="1"/>
        <pt x="350" y="686" on="0"/>
        <pt x="357" y="656" on="0"/>
        <pt x="358" y="642" on="1"/>
        <pt x="952" y="642" on="1"/>
        <pt x="934" y="535" on="1"/>
        <pt x="370" y="535" on="1"/>
        <pt x="382" y="437" on="0"/>
        <pt x="439" y="273" on="0"/>
        <pt x="539" y="156" on="0"/>
        <pt x="685" y="91" on="0"/>
        <pt x="786" y="91" on="1"/>
        <pt x="957" y="91" on="0"/>
        <pt x="1089" y="194" on="1"/>
        <pt x="1087" y="69" on="1"/>
        <pt x="1016" y="21" on="0"/>
        <pt x="855" y="-21" on="0"/>
        <pt x="768" y="-21" on="1"/>
        <pt x="647" y="-21" on="0"/>
        <pt x="461" y="60" on="0"/>
        <pt x="329" y="207" on="0"/>
        <pt x="249" y="412" on="0"/>
        <pt x="235" y="535" on="1"/>
        <pt x="100" y="535" on="1"/>
      </contour>
    </TTGlyph>
    <TTGlyph name="F" xMin="218" yMin="0" xMax="1036" yMax="1456">
      <contour>
        <pt x="350" y="0" on="1"/>
        <pt x="218" y="0" on="1"/>
        <pt x="218" y="1456" on="1"/>
        <pt x="1036" y="1456" on="1"/>
        <pt x="1036" y="1342" on="1"/>
        <pt x="350" y="1342" on="1"/>
        <pt x="350" y="799" on="1"/>
        <pt x="1000" y="799" on="1"/>
        <pt x="1000" y="686" on="1"/>
        <pt x="350" y="686" on="1"/>
      </contour>
    </TTGlyph>
    <TTGlyph name="G" xMin="136" yMin="-23" xMax="1356" yMax="1483">
      <contour>
        <pt x="857" y="624" on="1"/>
        <pt x="857" y="738" on="1"/>
        <pt x="1356" y="738" on="1"/>
        <pt x="1352" y="75" on="1"/>
        <pt x="1240" y="21" on="0"/>
        <pt x="990" y="-23" on="0"/>
        <pt x="861" y="-23" on="1"/>
        <pt x="683" y="-23" on="0"/>
        <pt x="412" y="81" on="0"/>
        <pt x="229" y="271" on="0"/>
        <pt x="136" y="536" on="0"/>
        <pt x="136" y="698" on="1"/>
        <pt x="136" y="860" on="0"/>
        <pt x="234" y="1145" on="0"/>
        <pt x="419" y="1359" on="0"/>
        <pt x="687" y="1483" on="0"/>
        <pt x="858" y="1483" on="1"/>
        <pt x="939" y="1483" on="0"/>
        <pt x="1088" y="1455" on="0"/>
        <pt x="1211" y="1399" on="0"/>
        <pt x="1301" y="1315" on="0"/>
        <pt x="1322" y="1259" on="1"/>
        <pt x="1266" y="1189" on="1"/>
        <pt x="1241" y="1235" on="0"/>
        <pt x="1158" y="1302" on="0"/>
        <pt x="1049" y="1346" on="0"/>
        <pt x="919" y="1368" on="0"/>
        <pt x="847" y="1368" on="1"/>
        <pt x="705" y="1368" on="0"/>
        <pt x="489" y="1258" on="0"/>
        <pt x="344" y="1076" on="0"/>
        <pt x="270" y="839" on="0"/>
        <pt x="270" y="713" on="1"/>
        <pt x="270" y="574" on="0"/>
        <pt x="345" y="345" on="0"/>
        <pt x="497" y="181" on="0"/>
        <pt x="725" y="91" on="0"/>
        <pt x="878" y="91" on="1"/>
        <pt x="975" y="91" on="0"/>
        <pt x="1151" y="121" on="0"/>
        <pt x="1227" y="157" on="1"/>
        <pt x="1229" y="624" on="1"/>
      </contour>
    </TTGlyph>
    <TTGlyph name="H" xMin="220" yMin="0" xMax="1353" yMax="1456">
      <contour>
        <pt x="351" y="0" on="1"/>
        <pt x="220" y="0" on="1"/>
        <pt x="220" y="1456" on="1"/>
        <pt x="355" y="1456" on="1"/>
        <pt x="355" y="806" on="1"/>
        <pt x="1223" y="806" on="1"/>
        <pt x="1223" y="1456" on="1"/>
        <pt x="1353" y="1456" on="1"/>
        <pt x="1353" y="0" on="1"/>
        <pt x="1219" y="0" on="1"/>
        <pt x="1219" y="693" on="1"/>
        <pt x="351" y="693" on="1"/>
      </contour>
    </TTGlyph>
    <TTGlyph name="I" xMin="235" yMin="0" xMax="370" yMax="1456">
      <contour>
        <pt x="370" y="0" on="1"/>
        <pt x="235" y="0" on="1"/>
        <pt x="235" y="1456" on="1"/>
        <pt x="370" y="1456" on="1"/>
      </contour>
    </TTGlyph>
    <TTGlyph name="Iacute" xMin="100" yMin="0" xMax="465" yMax="1938">
      <component glyphName="I" x="0" y="0" flags="0x1204"/>
      <component glyphName="acute" x="-237" y="430" flags="0x1004"/>
    </TTGlyph>
    <TTGlyph name="Icircumflex" xMin="37" yMin="0" xMax="589" yMax="1940">
      <component glyphName="I" x="0" y="0" flags="0x1204"/>
      <component glyphName="circumflex" x="-106" y="430" flags="0x1004"/>
    </TTGlyph>
    <TTGlyph name="Idieresis" xMin="64" yMin="0" xMax="559" yMax="1851">
      <component glyphName="I" x="0" y="0" flags="0x1204"/>
      <component glyphName="dieresis" x="-141" y="430" flags="0x1004"/>
    </TTGlyph>
    <TTGlyph name="Igrave" xMin="-29" yMin="0" xMax="370" yMax="1938">
      <component glyphName="I" x="0" y="0" flags="0x1204"/>
      <component glyphName="grave" x="-77" y="430" flags="0x1004"/>
    </TTGlyph>
    <TTGlyph name="J" xMin="145" yMin="-23" xMax="748" yMax="1456">
      <contour>
        <pt x="168" y="126" on="1"/>
        <pt x="226" y="91" on="0"/>
        <pt x="332" y="91" on="1"/>
        <pt x="408" y="91" on="0"/>
        <pt x="514" y="146" on="0"/>
        <pt x="582" y="248" on="0"/>
        <pt x="613" y="393" on="0"/>
        <pt x="614" y="482" on="1"/>
        <pt x="620" y="1456" on="1"/>
        <pt x="748" y="1456" on="1"/>
        <pt x="744" y="493" on="1"/>
        <pt x="743" y="361" on="0"/>
        <pt x="686" y="167" on="0"/>
        <pt x="579" y="39" on="0"/>
        <pt x="424" y="-23" on="0"/>
        <pt x="325" y="-23" on="1"/>
        <pt x="268" y="-23" on="0"/>
        <pt x="180" y="5" on="0"/>
        <pt x="145" y="31" on="1"/>
      </contour>
    </TTGlyph>
    <TTGlyph name="K" xMin="228" yMin="0" xMax="1271" yMax="1456">
      <contour>
        <pt x="362" y="769" on="1"/>
        <pt x="1058" y="1456" on="1"/>
        <pt x="1219" y="1456" on="1"/>
        <pt x="533" y="758" on="1"/>
        <pt x="1271" y="0" on="1"/>
        <pt x="1088" y="0" on="1"/>
        <pt x="360" y="759" on="1"/>
        <pt x="360" y="0" on="1"/>
        <pt x="228" y="0" on="1"/>
        <pt x="228" y="1456" on="1"/>
        <pt x="362" y="1456" on="1"/>
      </contour>
    </TTGlyph>
    <TTGlyph name="L" xMin="224" yMin="0" xMax="1068" yMax="1456">
      <contour>
        <pt x="1068" y="0" on="1"/>
        <pt x="224" y="0" on="1"/>
        <pt x="224" y="1456" on="1"/>
        <pt x="356" y="1456" on="1"/>
        <pt x="356" y="114" on="1"/>
        <pt x="1068" y="114" on="1"/>
      </contour>
    </TTGlyph>
    <TTGlyph name="Lslash" xMin="-24" yMin="0" xMax="1068" yMax="1456">
      <contour>
        <pt x="1068" y="0" on="1"/>
        <pt x="224" y="0" on="1"/>
        <pt x="224" y="618" on="1"/>
        <pt x="-24" y="508" on="1"/>
        <pt x="-24" y="610" on="1"/>
        <pt x="227" y="719" on="1"/>
        <pt x="227" y="1456" on="1"/>
        <pt x="355" y="1456" on="1"/>
        <pt x="355" y="775" on="1"/>
        <pt x="817" y="980" on="1"/>
        <pt x="817" y="878" on="1"/>
        <pt x="353" y="674" on="1"/>
        <pt x="353" y="114" on="1"/>
        <pt x="1068" y="114" on="1"/>
      </contour>
    </TTGlyph>
    <TTGlyph name="M" xMin="216" yMin="0" xMax="1808" yMax="1456">
      <contour>
        <pt x="346" y="0" on="1"/>
        <pt x="216" y="0" on="1"/>
        <pt x="216" y="1456" on="1"/>
        <pt x="424" y="1456" on="1"/>
        <pt x="900" y="396" on="1"/>
        <pt x="1012" y="135" on="1"/>
        <pt x="1123" y="395" on="1"/>
        <pt x="1608" y="1456" on="1"/>
        <pt x="1808" y="1456" on="1"/>
        <pt x="1808" y="0" on="1"/>
        <pt x="1676" y="0" on="1"/>
        <pt x="1676" y="940" on="1"/>
        <pt x="1676" y="1390" on="1"/>
        <pt x="1583" y="1149" on="1"/>
        <pt x="1057" y="0" on="1"/>
        <pt x="962" y="0" on="1"/>
        <pt x="455" y="1124" on="1"/>
        <pt x="346" y="1380" on="1"/>
        <pt x="346" y="937" on="1"/>
      </contour>
    </TTGlyph>
    <TTGlyph name="N" xMin="212" yMin="0" xMax="1401" yMax="1456">
      <contour>
        <pt x="343" y="1322" on="1"/>
        <pt x="343" y="0" on="1"/>
        <pt x="212" y="0" on="1"/>
        <pt x="212" y="1456" on="1"/>
        <pt x="389" y="1456" on="1"/>
        <pt x="1145" y="323" on="1"/>
        <pt x="1279" y="102" on="1"/>
        <pt x="1279" y="442" on="1"/>
        <pt x="1279" y="1456" on="1"/>
        <pt x="1401" y="1456" on="1"/>
        <pt x="1401" y="0" on="1"/>
        <pt x="1221" y="0" on="1"/>
        <pt x="462" y="1132" on="1"/>
      </contour>
    </TTGlyph>
    <TTGlyph name="Ntilde" xMin="212" yMin="0" xMax="1401" yMax="1881">
      <component glyphName="N" x="0" y="0" flags="0x1204"/>
      <component glyphName="tilde" x="370" y="430" flags="0x1004"/>
    </TTGlyph>
    <TTGlyph name="O" xMin="134" yMin="-23" xMax="1551" yMax="1483">
      <contour>
        <pt x="1551" y="730" on="1"/>
        <pt x="1551" y="565" on="0"/>
        <pt x="1454" y="288" on="0"/>
        <pt x="1270" y="88" on="0"/>
        <pt x="1005" y="-23" on="0"/>
        <pt x="838" y="-23" on="1"/>
        <pt x="674" y="-23" on="0"/>
        <pt x="413" y="83" on="0"/>
        <pt x="231" y="279" on="0"/>
        <pt x="134" y="556" on="0"/>
        <pt x="134" y="727" on="1"/>
        <pt x="134" y="892" on="0"/>
        <pt x="231" y="1169" on="0"/>
        <pt x="415" y="1370" on="0"/>
        <pt x="681" y="1483" on="0"/>
        <pt x="850" y="1483" on="1"/>
        <pt x="1012" y="1483" on="0"/>
        <pt x="1272" y="1376" on="0"/>
        <pt x="1454" y="1179" on="0"/>
        <pt x="1551" y="901" on="0"/>
      </contour>
      <contour>
        <pt x="271" y="725" on="1"/>
        <pt x="271" y="592" on="0"/>
        <pt x="344" y="361" on="0"/>
        <pt x="488" y="190" on="0"/>
        <pt x="700" y="91" on="0"/>
        <pt x="839" y="91" on="1"/>
        <pt x="980" y="91" on="0"/>
        <pt x="1193" y="189" on="0"/>
        <pt x="1335" y="362" on="0"/>
        <pt x="1406" y="597" on="0"/>
        <pt x="1406" y="735" on="1"/>
        <pt x="1406" y="868" on="0"/>
        <pt x="1336" y="1100" on="0"/>
        <pt x="1195" y="1271" on="0"/>
        <pt x="983" y="1369" on="0"/>
        <pt x="841" y="1369" on="1"/>
        <pt x="701" y="1369" on="0"/>
        <pt x="488" y="1263" on="0"/>
        <pt x="344" y="1086" on="0"/>
        <pt x="271" y="852" on="0"/>
      </contour>
    </TTGlyph>
    <TTGlyph name="OE" xMin="125" yMin="-23" xMax="1999" yMax="1483">
      <contour>
        <pt x="125" y="727" on="1"/>
        <pt x="125" y="893" on="0"/>
        <pt x="222" y="1170" on="0"/>
        <pt x="404" y="1371" on="0"/>
        <pt x="664" y="1483" on="0"/>
        <pt x="828" y="1483" on="1"/>
        <pt x="931" y="1483" on="0"/>
        <pt x="1112" y="1442" on="0"/>
        <pt x="1195" y="1384" on="1"/>
        <pt x="1198" y="1401" on="0"/>
        <pt x="1204" y="1437" on="0"/>
        <pt x="1205" y="1455" on="1"/>
        <pt x="1969" y="1456" on="1"/>
        <pt x="1969" y="1342" on="1"/>
        <pt x="1321" y="1342" on="1"/>
        <pt x="1321" y="804" on="1"/>
        <pt x="1931" y="804" on="1"/>
        <pt x="1931" y="691" on="1"/>
        <pt x="1320" y="691" on="1"/>
        <pt x="1320" y="114" on="1"/>
        <pt x="1999" y="114" on="1"/>
        <pt x="1999" y="0" on="1"/>
        <pt x="1189" y="0" on="1"/>
        <pt x="1188" y="110" on="1"/>
        <pt x="1162" y="88" on="0"/>
        <pt x="1083" y="41" on="0"/>
        <pt x="970" y="2" on="0"/>
        <pt x="819" y="-23" on="0"/>
        <pt x="722" y="-23" on="1"/>
        <pt x="620" y="-23" on="0"/>
        <pt x="452" y="31" on="0"/>
        <pt x="320" y="129" on="0"/>
        <pt x="221" y="266" on="0"/>
        <pt x="157" y="433" on="0"/>
        <pt x="125" y="624" on="0"/>
      </contour>
      <contour>
        <pt x="1188" y="1302" on="1"/>
        <pt x="1159" y="1313" on="0"/>
        <pt x="1086" y="1337" on="0"/>
        <pt x="996" y="1356" on="0"/>
        <pt x="890" y="1369" on="0"/>
        <pt x="828" y="1369" on="1"/>
        <pt x="688" y="1369" on="0"/>
        <pt x="476" y="1263" on="0"/>
        <pt x="334" y="1084" on="0"/>
        <pt x="262" y="852" on="0"/>
        <pt x="262" y="726" on="1"/>
        <pt x="262" y="559" on="0"/>
        <pt x="338" y="314" on="0"/>
        <pt x="470" y="153" on="0"/>
        <pt x="649" y="75" on="0"/>
        <pt x="753" y="75" on="1"/>
        <pt x="855" y="75" on="0"/>
        <pt x="1070" y="146" on="0"/>
        <pt x="1180" y="215" on="1"/>
        <pt x="1188" y="1038" on="1"/>
      </contour>
    </TTGlyph>
    <TTGlyph name="Oacute" xMin="134" yMin="-23" xMax="1551" yMax="1938">
      <component glyphName="acute" x="298" y="430" flags="0x1004"/>
      <component glyphName="O" x="0" y="0" flags="0x1004"/>
    </TTGlyph>
    <TTGlyph name="Ocircumflex" xMin="134" yMin="-23" xMax="1551" yMax="1940">
      <component glyphName="circumflex" x="425" y="430" flags="0x1004"/>
      <component glyphName="O" x="0" y="0" flags="0x1004"/>
    </TTGlyph>
    <TTGlyph name="Odieresis" xMin="134" yMin="-23" xMax="1551" yMax="1851">
      <component glyphName="dieresis" x="353" y="430" flags="0x1004"/>
      <component glyphName="O" x="0" y="0" flags="0x1004"/>
    </TTGlyph>
    <TTGlyph name="Ograve" xMin="134" yMin="-23" xMax="1551" yMax="1938">
      <component glyphName="O" x="0" y="0" flags="0x1204"/>
      <component glyphName="grave" x="458" y="430" flags="0x1004"/>
    </TTGlyph>
    <TTGlyph name="Omega" xMin="120" yMin="0" xMax="1496" yMax="1449">
      <contour>
        <pt x="140" y="103" on="1"/>
        <pt x="500" y="103" on="1"/>
        <pt x="420" y="153" on="0"/>
        <pt x="286" y="292" on="0"/>
        <pt x="188" y="463" on="0"/>
        <pt x="134" y="664" on="0"/>
        <pt x="134" y="776" on="1"/>
        <pt x="134" y="930" on="0"/>
        <pt x="238" y="1178" on="0"/>
        <pt x="422" y="1354" on="0"/>
        <pt x="674" y="1449" on="0"/>
        <pt x="822" y="1449" on="1"/>
        <pt x="975" y="1449" on="0"/>
        <pt x="1220" y="1346" on="0"/>
        <pt x="1392" y="1166" on="0"/>
        <pt x="1484" y="921" on="0"/>
        <pt x="1484" y="779" on="1"/>
        <pt x="1484" y="665" on="0"/>
        <pt x="1419" y="463" on="0"/>
        <pt x="1314" y="292" on="0"/>
        <pt x="1181" y="153" on="0"/>
        <pt x="1114" y="103" on="1"/>
        <pt x="1496" y="103" on="1"/>
        <pt x="1496" y="0" on="1"/>
        <pt x="990" y="0" on="1"/>
        <pt x="989" y="96" on="1"/>
        <pt x="1068" y="148" on="0"/>
        <pt x="1201" y="287" on="0"/>
        <pt x="1299" y="454" on="0"/>
        <pt x="1354" y="647" on="0"/>
        <pt x="1354" y="754" on="1"/>
        <pt x="1354" y="872" on="0"/>
        <pt x="1285" y="1085" on="0"/>
        <pt x="1150" y="1247" on="0"/>
        <pt x="947" y="1343" on="0"/>
        <pt x="814" y="1343" on="1"/>
        <pt x="692" y="1343" on="0"/>
        <pt x="490" y="1259" on="0"/>
        <pt x="345" y="1106" on="0"/>
        <pt x="265" y="891" on="0"/>
        <pt x="265" y="761" on="1"/>
        <pt x="265" y="654" on="0"/>
        <pt x="317" y="459" on="0"/>
        <pt x="412" y="289" on="0"/>
        <pt x="545" y="148" on="0"/>
        <pt x="626" y="96" on="1"/>
        <pt x="626" y="0" on="1"/>
        <pt x="120" y="0" on="1"/>
      </contour>
    </TTGlyph>
    <TTGlyph name="Oslash" xMin="134" yMin="-126" xMax="1551" yMax="1565">
      <contour>
        <pt x="1551" y="730" on="1"/>
        <pt x="1551" y="565" on="0"/>
        <pt x="1454" y="288" on="0"/>
        <pt x="1270" y="88" on="0"/>
        <pt x="1005" y="-23" on="0"/>
        <pt x="838" y="-23" on="1"/>
        <pt x="729" y="-23" on="0"/>
        <pt x="633" y="1" on="1"/>
        <pt x="584" y="-126" on="1"/>
        <pt x="468" y="-126" on="1"/>
        <pt x="531" y="37" on="1"/>
        <pt x="339" y="122" on="0"/>
        <pt x="134" y="475" on="0"/>
        <pt x="134" y="727" on="1"/>
        <pt x="134" y="892" on="0"/>
        <pt x="231" y="1169" on="0"/>
        <pt x="415" y="1370" on="0"/>
        <pt x="681" y="1483" on="0"/>
        <pt x="850" y="1483" on="1"/>
        <pt x="973" y="1483" on="0"/>
        <pt x="1073" y="1452" on="1"/>
        <pt x="1117" y="1565" on="1"/>
        <pt x="1238" y="1565" on="1"/>
        <pt x="1178" y="1411" on="1"/>
        <pt x="1358" y="1321" on="0"/>
        <pt x="1551" y="974" on="0"/>
      </contour>
      <contour>
        <pt x="271" y="725" on="1"/>
        <pt x="271" y="629" on="0"/>
        <pt x="309" y="455" on="0"/>
        <pt x="386" y="308" on="0"/>
        <pt x="500" y="191" on="0"/>
        <pt x="575" y="151" on="1"/>
        <pt x="1030" y="1341" on="1"/>
        <pt x="947" y="1369" on="0"/>
        <pt x="841" y="1369" on="1"/>
        <pt x="701" y="1369" on="0"/>
        <pt x="488" y="1263" on="0"/>
        <pt x="344" y="1086" on="0"/>
        <pt x="271" y="852" on="0"/>
      </contour>
      <contour>
        <pt x="839" y="91" on="1"/>
        <pt x="980" y="91" on="0"/>
        <pt x="1193" y="189" on="0"/>
        <pt x="1335" y="362" on="0"/>
        <pt x="1406" y="597" on="0"/>
        <pt x="1406" y="735" on="1"/>
        <pt x="1406" y="922" on="0"/>
        <pt x="1273" y="1210" on="0"/>
        <pt x="1133" y="1294" on="1"/>
        <pt x="676" y="111" on="1"/>
        <pt x="753" y="91" on="0"/>
      </contour>
    </TTGlyph>
    <TTGlyph name="Otilde" xMin="134" yMin="-23" xMax="1551" yMax="1881">
      <component glyphName="O" x="0" y="0" flags="0x1204"/>
      <component glyphName="tilde" x="355" y="430" flags="0x1004"/>
    </TTGlyph>
    <TTGlyph name="P" xMin="224" yMin="0" xMax="1197" yMax="1456">
      <contour>
        <pt x="350" y="0" on="1"/>
        <pt x="224" y="0" on="1"/>
        <pt x="224" y="1456" on="1"/>
        <pt x="552" y="1456" on="1"/>
        <pt x="636" y="1456" on="0"/>
        <pt x="797" y="1441" on="0"/>
        <pt x="941" y="1404" on="0"/>
        <pt x="1061" y="1342" on="0"/>
        <pt x="1148" y="1247" on="0"/>
        <pt x="1197" y="1116" on="0"/>
        <pt x="1197" y="1029" on="1"/>
        <pt x="1197" y="916" on="0"/>
        <pt x="1100" y="755" on="0"/>
        <pt x="937" y="652" on="0"/>
        <pt x="721" y="603" on="0"/>
        <pt x="602" y="603" on="1"/>
        <pt x="356" y="603" on="1"/>
      </contour>
      <contour>
        <pt x="356" y="717" on="1"/>
        <pt x="647" y="717" on="1"/>
        <pt x="737" y="717" on="0"/>
        <pt x="889" y="753" on="0"/>
        <pt x="998" y="829" on="0"/>
        <pt x="1060" y="945" on="0"/>
        <pt x="1060" y="1025" on="1"/>
        <pt x="1060" y="1120" on="0"/>
        <pt x="993" y="1243" on="0"/>
        <pt x="870" y="1314" on="0"/>
        <pt x="699" y="1342" on="0"/>
        <pt x="596" y="1342" on="1"/>
        <pt x="356" y="1342" on="1"/>
      </contour>
    </TTGlyph>
    <TTGlyph name="Q" xMin="139" yMin="-198" xMax="1605" yMax="1483">
      <contour>
        <pt x="270" y="725" on="1"/>
        <pt x="270" y="593" on="0"/>
        <pt x="343" y="362" on="0"/>
        <pt x="486" y="190" on="0"/>
        <pt x="699" y="91" on="0"/>
        <pt x="839" y="91" on="1"/>
        <pt x="980" y="91" on="0"/>
        <pt x="1193" y="189" on="0"/>
        <pt x="1335" y="362" on="0"/>
        <pt x="1406" y="597" on="0"/>
        <pt x="1406" y="735" on="1"/>
        <pt x="1406" y="868" on="0"/>
        <pt x="1335" y="1100" on="0"/>
        <pt x="1194" y="1270" on="0"/>
        <pt x="982" y="1368" on="0"/>
        <pt x="841" y="1368" on="1"/>
        <pt x="748" y="1368" on="0"/>
        <pt x="591" y="1320" on="0"/>
        <pt x="464" y="1234" on="0"/>
        <pt x="368" y="1114" on="0"/>
        <pt x="303" y="971" on="0"/>
        <pt x="270" y="810" on="0"/>
      </contour>
      <contour>
        <pt x="1605" y="-188" on="1"/>
        <pt x="1577" y="-193" on="0"/>
        <pt x="1497" y="-198" on="0"/>
        <pt x="1459" y="-198" on="1"/>
        <pt x="1348" y="-198" on="0"/>
        <pt x="1190" y="-186" on="0"/>
        <pt x="1076" y="-163" on="0"/>
        <pt x="998" y="-130" on="0"/>
        <pt x="936" y="-90" on="0"/>
        <pt x="882" y="-44" on="0"/>
        <pt x="849" y="-18" on="1"/>
        <pt x="690" y="-18" on="0"/>
        <pt x="428" y="88" on="0"/>
        <pt x="241" y="287" on="0"/>
        <pt x="139" y="570" on="0"/>
        <pt x="139" y="747" on="1"/>
        <pt x="139" y="909" on="0"/>
        <pt x="238" y="1179" on="0"/>
        <pt x="423" y="1374" on="0"/>
        <pt x="686" y="1483" on="0"/>
        <pt x="851" y="1483" on="1"/>
        <pt x="1013" y="1483" on="0"/>
        <pt x="1272" y="1375" on="0"/>
        <pt x="1452" y="1179" on="0"/>
        <pt x="1549" y="906" on="0"/>
        <pt x="1549" y="741" on="1"/>
        <pt x="1549" y="601" on="0"/>
        <pt x="1477" y="345" on="0"/>
        <pt x="1334" y="143" on="0"/>
        <pt x="1121" y="8" on="0"/>
        <pt x="981" y="-10" on="1"/>
        <pt x="1018" y="-36" on="0"/>
        <pt x="1141" y="-65" on="0"/>
        <pt x="1278" y="-78" on="0"/>
        <pt x="1410" y="-81" on="0"/>
        <pt x="1457" y="-81" on="1"/>
        <pt x="1502" y="-81" on="0"/>
        <pt x="1579" y="-76" on="0"/>
        <pt x="1605" y="-72" on="1"/>
      </contour>
    </TTGlyph>
    <TTGlyph name="R" xMin="227" yMin="0" xMax="1278" yMax="1456">
      <contour>
        <pt x="1139" y="0" on="1"/>
        <pt x="987" y="416" on="1"/>
        <pt x="960" y="489" on="0"/>
        <pt x="906" y="586" on="0"/>
        <pt x="832" y="644" on="0"/>
        <pt x="730" y="668" on="0"/>
        <pt x="655" y="668" on="1"/>
        <pt x="357" y="668" on="1"/>
        <pt x="357" y="0" on="1"/>
        <pt x="227" y="0" on="1"/>
        <pt x="227" y="1456" on="1"/>
        <pt x="569" y="1456" on="1"/>
        <pt x="628" y="1456" on="0"/>
        <pt x="767" y="1452" on="0"/>
        <pt x="907" y="1430" on="0"/>
        <pt x="1037" y="1385" on="0"/>
        <pt x="1138" y="1302" on="0"/>
        <pt x="1199" y="1175" on="0"/>
        <pt x="1199" y="1083" on="1"/>
        <pt x="1199" y="1010" on="0"/>
        <pt x="1149" y="889" on="0"/>
        <pt x="1057" y="798" on="0"/>
        <pt x="929" y="737" on="0"/>
        <pt x="851" y="724" on="1"/>
        <pt x="849" y="718" on="0"/>
        <pt x="849" y="716" on="1"/>
        <pt x="849" y="715" on="0"/>
        <pt x="850" y="714" on="0"/>
        <pt x="850" y="713" on="1"/>
        <pt x="922" y="699" on="0"/>
        <pt x="1011" y="630" on="0"/>
        <pt x="1081" y="510" on="0"/>
        <pt x="1148" y="332" on="0"/>
        <pt x="1198" y="209" on="1"/>
        <pt x="1278" y="0" on="1"/>
      </contour>
      <contour>
        <pt x="361" y="783" on="1"/>
        <pt x="654" y="783" on="1"/>
        <pt x="727" y="783" on="0"/>
        <pt x="872" y="808" on="0"/>
        <pt x="988" y="872" on="0"/>
        <pt x="1061" y="981" on="0"/>
        <pt x="1061" y="1065" on="1"/>
        <pt x="1061" y="1149" on="0"/>
        <pt x="1001" y="1256" on="0"/>
        <pt x="894" y="1318" on="0"/>
        <pt x="748" y="1342" on="0"/>
        <pt x="662" y="1342" on="1"/>
        <pt x="361" y="1342" on="1"/>
      </contour>
    </TTGlyph>
    <TTGlyph name="S" xMin="153" yMin="-23" xMax="1132" yMax="1483">
      <contour>
        <pt x="207" y="250" on="1"/>
        <pt x="256" y="195" on="0"/>
        <pt x="355" y="132" on="0"/>
        <pt x="454" y="100" on="0"/>
        <pt x="552" y="91" on="0"/>
        <pt x="600" y="91" on="1"/>
        <pt x="686" y="91" on="0"/>
        <pt x="830" y="125" on="0"/>
        <pt x="933" y="191" on="0"/>
        <pt x="991" y="289" on="0"/>
        <pt x="991" y="354" on="1"/>
        <pt x="991" y="428" on="0"/>
        <pt x="920" y="531" on="0"/>
        <pt x="803" y="607" on="0"/>
        <pt x="655" y="665" on="0"/>
        <pt x="499" y="722" on="0"/>
        <pt x="351" y="789" on="0"/>
        <pt x="234" y="882" on="0"/>
        <pt x="163" y="1011" on="0"/>
        <pt x="163" y="1103" on="1"/>
        <pt x="163" y="1197" on="0"/>
        <pt x="251" y="1339" on="0"/>
        <pt x="397" y="1435" on="0"/>
        <pt x="582" y="1483" on="0"/>
        <pt x="680" y="1483" on="1"/>
        <pt x="728" y="1483" on="0"/>
        <pt x="830" y="1470" on="0"/>
        <pt x="930" y="1440" on="0"/>
        <pt x="1023" y="1389" on="0"/>
        <pt x="1062" y="1351" on="1"/>
        <pt x="1013" y="1258" on="1"/>
        <pt x="944" y="1318" on="0"/>
        <pt x="767" y="1368" on="0"/>
        <pt x="678" y="1368" on="1"/>
        <pt x="610" y="1368" on="0"/>
        <pt x="476" y="1340" on="0"/>
        <pt x="369" y="1278" on="0"/>
        <pt x="302" y="1182" on="0"/>
        <pt x="302" y="1115" on="1"/>
        <pt x="302" y="1044" on="0"/>
        <pt x="373" y="944" on="0"/>
        <pt x="490" y="867" on="0"/>
        <pt x="639" y="806" on="0"/>
        <pt x="795" y="744" on="0"/>
        <pt x="944" y="674" on="0"/>
        <pt x="1061" y="577" on="0"/>
        <pt x="1132" y="447" on="0"/>
        <pt x="1132" y="356" on="1"/>
        <pt x="1132" y="286" on="0"/>
        <pt x="1087" y="175" on="0"/>
        <pt x="1007" y="91" on="0"/>
        <pt x="901" y="32" on="0"/>
        <pt x="777" y="-6" on="0"/>
        <pt x="644" y="-23" on="0"/>
        <pt x="578" y="-23" on="1"/>
        <pt x="449" y="-23" on="0"/>
        <pt x="228" y="73" on="0"/>
        <pt x="153" y="170" on="1"/>
      </contour>
    </TTGlyph>
    <TTGlyph name="Scaron" xMin="153" yMin="-23" xMax="1132" yMax="1939">
      <component glyphName="S" x="0" y="0" flags="0x1204"/>
      <component glyphName="caron" x="267" y="430" flags="0x1004"/>
    </TTGlyph>
    <TTGlyph name="T" xMin="53" yMin="0" xMax="1141" yMax="1456">
      <contour>
        <pt x="530" y="0" on="1"/>
        <pt x="530" y="1342" on="1"/>
        <pt x="53" y="1342" on="1"/>
        <pt x="53" y="1456" on="1"/>
        <pt x="1141" y="1456" on="1"/>
        <pt x="1141" y="1342" on="1"/>
        <pt x="665" y="1342" on="1"/>
        <pt x="665" y="0" on="1"/>
      </contour>
    </TTGlyph>
    <TTGlyph name="Thorn" xMin="224" yMin="0" xMax="1198" yMax="1456">
      <contour>
        <pt x="350" y="0" on="1"/>
        <pt x="224" y="0" on="1"/>
        <pt x="224" y="1456" on="1"/>
        <pt x="355" y="1456" on="1"/>
        <pt x="355" y="1237" on="1"/>
        <pt x="553" y="1237" on="1"/>
        <pt x="637" y="1237" on="0"/>
        <pt x="798" y="1222" on="0"/>
        <pt x="942" y="1185" on="0"/>
        <pt x="1062" y="1123" on="0"/>
        <pt x="1149" y="1028" on="0"/>
        <pt x="1198" y="897" on="0"/>
        <pt x="1198" y="810" on="1"/>
        <pt x="1198" y="697" on="0"/>
        <pt x="1101" y="536" on="0"/>
        <pt x="938" y="433" on="0"/>
        <pt x="722" y="384" on="0"/>
        <pt x="603" y="384" on="1"/>
        <pt x="357" y="384" on="1"/>
      </contour>
      <contour>
        <pt x="357" y="498" on="1"/>
        <pt x="648" y="498" on="1"/>
        <pt x="738" y="498" on="0"/>
        <pt x="890" y="534" on="0"/>
        <pt x="1000" y="610" on="0"/>
        <pt x="1062" y="726" on="0"/>
        <pt x="1062" y="806" on="1"/>
        <pt x="1062" y="901" on="0"/>
        <pt x="994" y="1024" on="0"/>
        <pt x="872" y="1095" on="0"/>
        <pt x="700" y="1123" on="0"/>
        <pt x="597" y="1123" on="1"/>
        <pt x="357" y="1123" on="1"/>
      </contour>
    </TTGlyph>
    <TTGlyph name="U" xMin="208" yMin="-23" xMax="1338" yMax="1456">
      <contour>
        <pt x="1212" y="1456" on="1"/>
        <pt x="1338" y="1456" on="1"/>
        <pt x="1333" y="548" on="1"/>
        <pt x="1332" y="414" on="0"/>
        <pt x="1261" y="202" on="0"/>
        <pt x="1119" y="55" on="0"/>
        <pt x="906" y="-23" on="0"/>
        <pt x="764" y="-23" on="1"/>
        <pt x="627" y="-23" on="0"/>
        <pt x="427" y="47" on="0"/>
        <pt x="292" y="181" on="0"/>
        <pt x="218" y="373" on="0"/>
        <pt x="209" y="496" on="1"/>
        <pt x="208" y="501" on="0"/>
        <pt x="208" y="508" on="0"/>
        <pt x="208" y="513" on="1"/>
        <pt x="208" y="532" on="1"/>
        <pt x="214" y="1456" on="1"/>
        <pt x="339" y="1456" on="1"/>
        <pt x="336" y="543" on="1"/>
        <pt x="336" y="437" on="0"/>
        <pt x="387" y="270" on="0"/>
        <pt x="494" y="153" on="0"/>
        <pt x="660" y="91" on="0"/>
        <pt x="774" y="91" on="1"/>
        <pt x="880" y="91" on="0"/>
        <pt x="1042" y="141" on="0"/>
        <pt x="1150" y="247" on="0"/>
        <pt x="1205" y="415" on="0"/>
        <pt x="1206" y="533" on="1"/>
      </contour>
    </TTGlyph>
    <TTGlyph name="Uacute" xMin="208" yMin="-23" xMax="1338" yMax="1938">
      <component glyphName="acute" x="232" y="430" flags="0x1004"/>
      <component glyphName="U" x="0" y="0" flags="0x1004"/>
    </TTGlyph>
    <TTGlyph name="Ucircumflex" xMin="208" yMin="-23" xMax="1338" yMax="1940">
      <component glyphName="circumflex" x="347" y="430" flags="0x1004"/>
      <component glyphName="U" x="0" y="0" flags="0x1004"/>
    </TTGlyph>
    <TTGlyph name="Udieresis" xMin="208" yMin="-23" xMax="1338" yMax="1851">
      <component glyphName="dieresis" x="288" y="430" flags="0x1004"/>
      <component glyphName="U" x="0" y="0" flags="0x1004"/>
    </TTGlyph>
    <TTGlyph name="Ugrave" xMin="208" yMin="-23" xMax="1338" yMax="1938">
      <component glyphName="U" x="0" y="0" flags="0x1204"/>
      <component glyphName="grave" x="392" y="430" flags="0x1004"/>
    </TTGlyph>
    <TTGlyph name="V" xMin="36" yMin="0" xMax="1320" yMax="1456">
      <contour>
        <pt x="679" y="100" on="1"/>
        <pt x="751" y="301" on="1"/>
        <pt x="1184" y="1456" on="1"/>
        <pt x="1320" y="1456" on="1"/>
        <pt x="750" y="0" on="1"/>
        <pt x="595" y="0" on="1"/>
        <pt x="36" y="1456" on="1"/>
        <pt x="178" y="1456" on="1"/>
        <pt x="607" y="300" on="1"/>
      </contour>
    </TTGlyph>
    <TTGlyph name="W" xMin="39" yMin="0" xMax="2088" yMax="1456">
      <contour>
        <pt x="1584" y="67" on="1"/>
        <pt x="1642" y="316" on="1"/>
        <pt x="1961" y="1456" on="1"/>
        <pt x="2088" y="1456" on="1"/>
        <pt x="1663" y="0" on="1"/>
        <pt x="1489" y="0" on="1"/>
        <pt x="1071" y="1325" on="1"/>
        <pt x="645" y="0" on="1"/>
        <pt x="463" y="0" on="1"/>
        <pt x="39" y="1456" on="1"/>
        <pt x="181" y="1456" on="1"/>
        <pt x="492" y="337" on="1"/>
        <pt x="564" y="58" on="1"/>
        <pt x="633" y="318" on="1"/>
        <pt x="997" y="1456" on="1"/>
        <pt x="1147" y="1456" on="1"/>
        <pt x="1504" y="333" on="1"/>
      </contour>
    </TTGlyph>
    <TTGlyph name="X" xMin="45" yMin="0" xMax="1269" yMax="1456">
      <contour>
        <pt x="582" y="741" on="1"/>
        <pt x="83" y="1456" on="1"/>
        <pt x="249" y="1456" on="1"/>
        <pt x="668" y="820" on="1"/>
        <pt x="766" y="953" on="1"/>
        <pt x="1115" y="1456" on="1"/>
        <pt x="1261" y="1456" on="1"/>
        <pt x="748" y="742" on="1"/>
        <pt x="1269" y="0" on="1"/>
        <pt x="1106" y="0" on="1"/>
        <pt x="663" y="664" on="1"/>
        <pt x="199" y="0" on="1"/>
        <pt x="45" y="0" on="1"/>
      </contour>
    </TTGlyph>
    <TTGlyph name="Y" xMin="43" yMin="0" xMax="1244" yMax="1456">
      <contour>
        <pt x="707" y="588" on="1"/>
        <pt x="707" y="0" on="1"/>
        <pt x="574" y="0" on="1"/>
        <pt x="574" y="582" on="1"/>
        <pt x="43" y="1456" on="1"/>
        <pt x="187" y="1456" on="1"/>
        <pt x="643" y="691" on="1"/>
        <pt x="1106" y="1456" on="1"/>
        <pt x="1244" y="1456" on="1"/>
      </contour>
    </TTGlyph>
    <TTGlyph name="Yacute" xMin="43" yMin="0" xMax="1244" yMax="1938">
      <component glyphName="Y" x="0" y="0" flags="0x1204"/>
      <component glyphName="acute" x="95" y="430" flags="0x1004"/>
    </TTGlyph>
    <TTGlyph name="Ydieresis" xMin="43" yMin="0" xMax="1244" yMax="1851">
      <component glyphName="Y" x="0" y="0" flags="0x1204"/>
      <component glyphName="dieresis" x="223" y="430" flags="0x1004"/>
    </TTGlyph>
    <TTGlyph name="Z" xMin="76" yMin="0" xMax="1157" yMax="1456">
      <contour>
        <pt x="1143" y="0" on="1"/>
        <pt x="76" y="0" on="1"/>
        <pt x="76" y="70" on="1"/>
        <pt x="983" y="1342" on="1"/>
        <pt x="113" y="1342" on="1"/>
        <pt x="113" y="1456" on="1"/>
        <pt x="1157" y="1456" on="1"/>
        <pt x="1157" y="1390" on="1"/>
        <pt x="245" y="114" on="1"/>
        <pt x="1143" y="114" on="1"/>
      </contour>
    </TTGlyph>
    <TTGlyph name="Zcaron" xMin="76" yMin="0" xMax="1157" yMax="1939">
      <component glyphName="Z" x="0" y="0" flags="0x1204"/>
      <component glyphName="caron" x="234" y="430" flags="0x1004"/>
    </TTGlyph>
    <TTGlyph name="a" xMin="109" yMin="-23" xMax="1118" yMax="1051">
      <contour>
        <pt x="596" y="1051" on="1"/>
        <pt x="668" y="1051" on="0"/>
        <pt x="783" y="1020" on="0"/>
        <pt x="878" y="963" on="0"/>
        <pt x="957" y="881" on="0"/>
        <pt x="993" y="829" on="1"/>
        <pt x="998" y="1026" on="1"/>
        <pt x="1118" y="1026" on="1"/>
        <pt x="1118" y="782" on="1"/>
        <pt x="1118" y="0" on="1"/>
        <pt x="992" y="0" on="1"/>
        <pt x="994" y="219" on="1"/>
        <pt x="980" y="178" on="0"/>
        <pt x="910" y="93" on="0"/>
        <pt x="806" y="22" on="0"/>
        <pt x="671" y="-23" on="0"/>
        <pt x="593" y="-23" on="1"/>
        <pt x="466" y="-23" on="0"/>
        <pt x="283" y="76" on="0"/>
        <pt x="165" y="233" on="0"/>
        <pt x="109" y="428" on="0"/>
        <pt x="109" y="524" on="1"/>
        <pt x="109" y="623" on="0"/>
        <pt x="169" y="813" on="0"/>
        <pt x="291" y="961" on="0"/>
        <pt x="473" y="1051" on="0"/>
      </contour>
      <contour>
        <pt x="997" y="525" on="1"/>
        <pt x="991" y="606" on="0"/>
        <pt x="948" y="759" on="0"/>
        <pt x="858" y="879" on="0"/>
        <pt x="713" y="951" on="0"/>
        <pt x="605" y="951" on="1"/>
        <pt x="504" y="951" on="0"/>
        <pt x="361" y="873" on="0"/>
        <pt x="269" y="748" on="0"/>
        <pt x="227" y="594" on="0"/>
        <pt x="227" y="518" on="1"/>
        <pt x="227" y="442" on="0"/>
        <pt x="259" y="285" on="0"/>
        <pt x="344" y="157" on="0"/>
        <pt x="495" y="75" on="0"/>
        <pt x="614" y="75" on="1"/>
        <pt x="694" y="75" on="0"/>
        <pt x="834" y="127" on="0"/>
        <pt x="937" y="233" on="0"/>
        <pt x="997" y="393" on="0"/>
        <pt x="997" y="500" on="1"/>
      </contour>
    </TTGlyph>
    <TTGlyph name="aacute" xMin="109" yMin="-23" xMax="1118" yMax="1508">
      <component glyphName="a" x="0" y="0" flags="0x1204"/>
      <component glyphName="acute" x="121" y="0" flags="0x1004"/>
    </TTGlyph>
    <TTGlyph name="acircumflex" xMin="109" yMin="-23" xMax="1118" yMax="1510">
      <component glyphName="a" x="0" y="0" flags="0x1204"/>
      <component glyphName="circumflex" x="185" y="0" flags="0x1004"/>
    </TTGlyph>
    <TTGlyph name="acute" xMin="337" yMin="1216" xMax="702" yMax="1508">
      <contour>
        <pt x="543" y="1508" on="1"/>
        <pt x="702" y="1508" on="1"/>
        <pt x="417" y="1216" on="1"/>
        <pt x="337" y="1216" on="1"/>
      </contour>
    </TTGlyph>
    <TTGlyph name="adieresis" xMin="109" yMin="-23" xMax="1118" yMax="1421">
      <component glyphName="a" x="0" y="0" flags="0x1204"/>
      <component glyphName="dieresis" x="177" y="0" flags="0x1004"/>
    </TTGlyph>
    <TTGlyph name="ae" xMin="94" yMin="-28" xMax="1719" yMax="1053">
      <contour>
        <pt x="226" y="810" on="1"/>
        <pt x="157" y="878" on="1"/>
        <pt x="212" y="972" on="0"/>
        <pt x="420" y="1053" on="0"/>
        <pt x="557" y="1053" on="1"/>
        <pt x="617" y="1051" on="0"/>
        <pt x="726" y="1019" on="0"/>
        <pt x="811" y="956" on="0"/>
        <pt x="869" y="861" on="0"/>
        <pt x="879" y="797" on="1"/>
        <pt x="884" y="797" on="1"/>
        <pt x="912" y="864" on="0"/>
        <pt x="998" y="960" on="0"/>
        <pt x="1101" y="1023" on="0"/>
        <pt x="1219" y="1053" on="0"/>
        <pt x="1280" y="1053" on="1"/>
        <pt x="1392" y="1053" on="0"/>
        <pt x="1557" y="972" on="0"/>
        <pt x="1666" y="833" on="0"/>
        <pt x="1719" y="648" on="0"/>
        <pt x="1719" y="545" on="1"/>
        <pt x="1719" y="535" on="0"/>
        <pt x="1719" y="507" on="0"/>
        <pt x="1718" y="498" on="1"/>
        <pt x="938" y="498" on="1"/>
        <pt x="938" y="456" on="1"/>
        <pt x="938" y="378" on="0"/>
        <pt x="975" y="241" on="0"/>
        <pt x="1056" y="138" on="0"/>
        <pt x="1183" y="79" on="0"/>
        <pt x="1273" y="79" on="1"/>
        <pt x="1385" y="79" on="0"/>
        <pt x="1560" y="174" on="0"/>
        <pt x="1614" y="258" on="1"/>
        <pt x="1682" y="190" on="1"/>
        <pt x="1618" y="84" on="0"/>
        <pt x="1405" y="-25" on="0"/>
        <pt x="1260" y="-25" on="1"/>
        <pt x="1194" y="-25" on="0"/>
        <pt x="1073" y="9" on="0"/>
        <pt x="973" y="74" on="0"/>
        <pt x="895" y="171" on="0"/>
        <pt x="871" y="234" on="1"/>
        <pt x="842" y="159" on="0"/>
        <pt x="758" y="61" on="0"/>
        <pt x="650" y="1" on="0"/>
        <pt x="518" y="-25" on="0"/>
        <pt x="441" y="-28" on="1"/>
        <pt x="364" y="-28" on="0"/>
        <pt x="237" y="14" on="0"/>
        <pt x="145" y="94" on="0"/>
        <pt x="94" y="207" on="0"/>
        <pt x="94" y="279" on="1"/>
        <pt x="94" y="351" on="0"/>
        <pt x="144" y="461" on="0"/>
        <pt x="238" y="537" on="0"/>
        <pt x="374" y="580" on="0"/>
        <pt x="460" y="586" on="1"/>
        <pt x="549" y="595" on="0"/>
        <pt x="716" y="602" on="0"/>
        <pt x="810" y="604" on="1"/>
        <pt x="809" y="618" on="1"/>
        <pt x="808" y="624" on="0"/>
        <pt x="808" y="640" on="0"/>
        <pt x="807" y="649" on="1"/>
        <pt x="802" y="713" on="0"/>
        <pt x="774" y="824" on="0"/>
        <pt x="715" y="905" on="0"/>
        <pt x="618" y="951" on="0"/>
        <pt x="545" y="951" on="1"/>
        <pt x="493" y="951" on="0"/>
        <pt x="397" y="936" on="0"/>
        <pt x="314" y="902" on="0"/>
        <pt x="248" y="849" on="0"/>
      </contour>
      <contour>
        <pt x="809" y="498" on="1"/>
        <pt x="632" y="495" on="1"/>
        <pt x="552" y="493" on="0"/>
        <pt x="403" y="478" on="0"/>
        <pt x="289" y="433" on="0"/>
        <pt x="220" y="351" on="0"/>
        <pt x="220" y="283" on="1"/>
        <pt x="220" y="227" on="0"/>
        <pt x="263" y="148" on="0"/>
        <pt x="334" y="98" on="0"/>
        <pt x="427" y="75" on="0"/>
        <pt x="477" y="75" on="1"/>
        <pt x="572" y="75" on="0"/>
        <pt x="700" y="141" on="0"/>
        <pt x="777" y="252" on="0"/>
        <pt x="809" y="396" on="0"/>
        <pt x="809" y="474" on="1"/>
      </contour>
      <contour>
        <pt x="936" y="600" on="1"/>
        <pt x="1598" y="600" on="1"/>
        <pt x="1598" y="605" on="0"/>
        <pt x="1599" y="618" on="0"/>
        <pt x="1599" y="623" on="1"/>
        <pt x="1599" y="687" on="0"/>
        <pt x="1558" y="805" on="0"/>
        <pt x="1477" y="896" on="0"/>
        <pt x="1358" y="951" on="0"/>
        <pt x="1280" y="951" on="1"/>
        <pt x="1199" y="951" on="0"/>
        <pt x="1071" y="894" on="0"/>
        <pt x="983" y="797" on="0"/>
        <pt x="937" y="670" on="0"/>
      </contour>
    </TTGlyph>
    <TTGlyph name="agrave" xMin="109" yMin="-23" xMax="1118" yMax="1508">
      <component glyphName="a" x="0" y="0" flags="0x1204"/>
      <component glyphName="grave" x="282" y="0" flags="0x1004"/>
    </TTGlyph>
    <TTGlyph name="ampersand" xMin="132" yMin="-27" xMax="1611" yMax="1489">
      <contour>
        <pt x="132" y="395" on="1"/>
        <pt x="132" y="481" on="0"/>
        <pt x="202" y="619" on="0"/>
        <pt x="315" y="732" on="0"/>
        <pt x="458" y="822" on="0"/>
        <pt x="531" y="861" on="1"/>
        <pt x="493" y="899" on="0"/>
        <pt x="418" y="973" on="0"/>
        <pt x="358" y="1054" on="0"/>
        <pt x="321" y="1148" on="0"/>
        <pt x="321" y="1207" on="1"/>
        <pt x="321" y="1277" on="0"/>
        <pt x="376" y="1382" on="0"/>
        <pt x="472" y="1453" on="0"/>
        <pt x="600" y="1489" on="0"/>
        <pt x="673" y="1489" on="1"/>
        <pt x="740" y="1489" on="0"/>
        <pt x="870" y="1456" on="0"/>
        <pt x="972" y="1388" on="0"/>
        <pt x="1035" y="1284" on="0"/>
        <pt x="1035" y="1213" on="1"/>
        <pt x="1035" y="1150" on="0"/>
        <pt x="981" y="1042" on="0"/>
        <pt x="890" y="949" on="0"/>
        <pt x="771" y="871" on="0"/>
        <pt x="707" y="838" on="1"/>
        <pt x="1170" y="372" on="1"/>
        <pt x="1211" y="429" on="0"/>
        <pt x="1278" y="566" on="0"/>
        <pt x="1325" y="716" on="0"/>
        <pt x="1350" y="872" on="0"/>
        <pt x="1350" y="946" on="1"/>
        <pt x="1350" y="972" on="0"/>
        <pt x="1348" y="1001" on="0"/>
        <pt x="1346" y="1018" on="0"/>
        <pt x="1344" y="1026" on="0"/>
        <pt x="1343" y="1032" on="1"/>
        <pt x="1473" y="1032" on="1"/>
        <pt x="1476" y="994" on="0"/>
        <pt x="1476" y="956" on="1"/>
        <pt x="1476" y="869" on="0"/>
        <pt x="1448" y="690" on="0"/>
        <pt x="1392" y="517" on="0"/>
        <pt x="1311" y="355" on="0"/>
        <pt x="1259" y="286" on="1"/>
        <pt x="1307" y="235" on="0"/>
        <pt x="1388" y="160" on="0"/>
        <pt x="1468" y="106" on="0"/>
        <pt x="1556" y="71" on="0"/>
        <pt x="1611" y="61" on="1"/>
        <pt x="1514" y="-9" on="1"/>
        <pt x="1471" y="-3" on="0"/>
        <pt x="1400" y="28" on="0"/>
        <pt x="1328" y="81" on="0"/>
        <pt x="1248" y="154" on="0"/>
        <pt x="1196" y="202" on="1"/>
        <pt x="1149" y="154" on="0"/>
        <pt x="1039" y="70" on="0"/>
        <pt x="909" y="9" on="0"/>
        <pt x="757" y="-27" on="0"/>
        <pt x="667" y="-27" on="1"/>
        <pt x="552" y="-27" on="0"/>
        <pt x="356" y="30" on="0"/>
        <pt x="213" y="138" on="0"/>
        <pt x="132" y="295" on="0"/>
      </contour>
      <contour>
        <pt x="1109" y="282" on="1"/>
        <pt x="1110" y="282" on="0"/>
        <pt x="1068" y="325" on="0"/>
        <pt x="997" y="395" on="0"/>
        <pt x="906" y="486" on="0"/>
        <pt x="859" y="533" on="1"/>
        <pt x="608" y="784" on="1"/>
        <pt x="544" y="753" on="0"/>
        <pt x="421" y="679" on="0"/>
        <pt x="325" y="587" on="0"/>
        <pt x="267" y="473" on="0"/>
        <pt x="267" y="403" on="1"/>
        <pt x="267" y="335" on="0"/>
        <pt x="326" y="217" on="0"/>
        <pt x="432" y="131" on="0"/>
        <pt x="580" y="82" on="0"/>
        <pt x="670" y="82" on="1"/>
        <pt x="745" y="82" on="0"/>
        <pt x="871" y="113" on="0"/>
        <pt x="977" y="167" on="0"/>
        <pt x="1068" y="240" on="0"/>
      </contour>
      <contour>
        <pt x="629" y="909" on="1"/>
        <pt x="680" y="936" on="0"/>
        <pt x="780" y="997" on="0"/>
        <pt x="859" y="1069" on="0"/>
        <pt x="908" y="1153" on="0"/>
        <pt x="908" y="1202" on="1"/>
        <pt x="908" y="1251" on="0"/>
        <pt x="867" y="1323" on="0"/>
        <pt x="802" y="1368" on="0"/>
        <pt x="720" y="1390" on="0"/>
        <pt x="679" y="1390" on="1"/>
        <pt x="633" y="1390" on="0"/>
        <pt x="549" y="1366" on="0"/>
        <pt x="486" y="1319" on="0"/>
        <pt x="449" y="1250" on="0"/>
        <pt x="449" y="1204" on="1"/>
        <pt x="449" y="1160" on="0"/>
        <pt x="476" y="1083" on="0"/>
        <pt x="524" y="1012" on="0"/>
        <pt x="590" y="944" on="0"/>
      </contour>
    </TTGlyph>
    <TTGlyph name="approxequal" xMin="176" yMin="271" xMax="1189" yMax="914">
      <contour>
        <pt x="1123" y="521" on="1"/>
        <pt x="1189" y="506" on="1"/>
        <pt x="1179" y="453" on="0"/>
        <pt x="1135" y="366" on="0"/>
        <pt x="1067" y="304" on="0"/>
        <pt x="976" y="271" on="0"/>
        <pt x="920" y="271" on="1"/>
        <pt x="862" y="271" on="0"/>
        <pt x="738" y="320" on="0"/>
        <pt x="655" y="368" on="1"/>
        <pt x="601" y="402" on="0"/>
        <pt x="504" y="442" on="0"/>
        <pt x="452" y="442" on="1"/>
        <pt x="410" y="442" on="0"/>
        <pt x="345" y="418" on="0"/>
        <pt x="295" y="375" on="0"/>
        <pt x="260" y="314" on="0"/>
        <pt x="248" y="277" on="1"/>
        <pt x="179" y="292" on="1"/>
        <pt x="204" y="403" on="0"/>
        <pt x="349" y="527" on="0"/>
        <pt x="460" y="527" on="1"/>
        <pt x="531" y="527" on="0"/>
        <pt x="647" y="476" on="0"/>
        <pt x="703" y="442" on="1"/>
        <pt x="770" y="401" on="0"/>
        <pt x="874" y="355" on="0"/>
        <pt x="928" y="355" on="1"/>
        <pt x="1003" y="355" on="0"/>
        <pt x="1094" y="442" on="0"/>
      </contour>
      <contour>
        <pt x="1120" y="909" on="1"/>
        <pt x="1186" y="890" on="1"/>
        <pt x="1176" y="838" on="0"/>
        <pt x="1132" y="752" on="0"/>
        <pt x="1064" y="690" on="0"/>
        <pt x="974" y="656" on="0"/>
        <pt x="917" y="656" on="1"/>
        <pt x="858" y="656" on="0"/>
        <pt x="733" y="709" on="0"/>
        <pt x="651" y="756" on="1"/>
        <pt x="595" y="788" on="0"/>
        <pt x="499" y="827" on="0"/>
        <pt x="451" y="827" on="1"/>
        <pt x="364" y="827" on="0"/>
        <pt x="265" y="740" on="0"/>
        <pt x="243" y="662" on="1"/>
        <pt x="176" y="680" on="1"/>
        <pt x="203" y="789" on="0"/>
        <pt x="348" y="914" on="0"/>
        <pt x="457" y="914" on="1"/>
        <pt x="520" y="914" on="0"/>
        <pt x="637" y="865" on="0"/>
        <pt x="703" y="827" on="1"/>
        <pt x="740" y="805" on="0"/>
        <pt x="799" y="774" on="0"/>
        <pt x="852" y="753" on="0"/>
        <pt x="900" y="743" on="0"/>
        <pt x="925" y="743" on="1"/>
        <pt x="1000" y="743" on="0"/>
        <pt x="1094" y="827" on="0"/>
      </contour>
    </TTGlyph>
    <TTGlyph name="aring" xMin="109" yMin="-23" xMax="1118" yMax="1549">
      <component glyphName="a" x="0" y="0" flags="0x1204"/>
      <component glyphName="ring" x="214" y="0" flags="0x1004"/>
    </TTGlyph>
    <TTGlyph name="asciicircum" xMin="217" yMin="569" xMax="1254" yMax="1448">
      <contour>
        <pt x="217" y="569" on="1"/>
        <pt x="696" y="1448" on="1"/>
        <pt x="766" y="1448" on="1"/>
        <pt x="1254" y="569" on="1"/>
        <pt x="1146" y="569" on="1"/>
        <pt x="738" y="1318" on="1"/>
        <pt x="731" y="1318" on="1"/>
        <pt x="323" y="569" on="1"/>
      </contour>
    </TTGlyph>
    <TTGlyph name="asciitilde" xMin="212" yMin="410" xMax="1261" yMax="704">
      <contour>
        <pt x="500" y="693" on="1"/>
        <pt x="537" y="693" on="0"/>
        <pt x="623" y="668" on="0"/>
        <pt x="713" y="631" on="0"/>
        <pt x="802" y="588" on="0"/>
        <pt x="885" y="551" on="0"/>
        <pt x="956" y="526" on="0"/>
        <pt x="982" y="526" on="1"/>
        <pt x="1020" y="526" on="0"/>
        <pt x="1086" y="556" on="0"/>
        <pt x="1137" y="606" on="0"/>
        <pt x="1173" y="670" on="0"/>
        <pt x="1181" y="704" on="1"/>
        <pt x="1261" y="678" on="1"/>
        <pt x="1248" y="622" on="0"/>
        <pt x="1198" y="530" on="0"/>
        <pt x="1126" y="463" on="0"/>
        <pt x="1033" y="426" on="0"/>
        <pt x="978" y="426" on="1"/>
        <pt x="948" y="426" on="0"/>
        <pt x="873" y="451" on="0"/>
        <pt x="790" y="488" on="0"/>
        <pt x="702" y="531" on="0"/>
        <pt x="616" y="568" on="0"/>
        <pt x="534" y="593" on="0"/>
        <pt x="499" y="593" on="1"/>
        <pt x="455" y="593" on="0"/>
        <pt x="383" y="562" on="0"/>
        <pt x="329" y="511" on="0"/>
        <pt x="293" y="445" on="0"/>
        <pt x="285" y="410" on="1"/>
        <pt x="212" y="443" on="1"/>
        <pt x="223" y="492" on="0"/>
        <pt x="271" y="583" on="0"/>
        <pt x="343" y="652" on="0"/>
        <pt x="440" y="693" on="0"/>
      </contour>
    </TTGlyph>
    <TTGlyph name="asterisk" xMin="198" yMin="774" xMax="875" yMax="1467">
      <contour>
        <pt x="546" y="1065" on="1"/>
        <pt x="374" y="782" on="1"/>
        <pt x="287" y="836" on="1"/>
        <pt x="494" y="1086" on="1"/>
        <pt x="198" y="1170" on="1"/>
        <pt x="216" y="1271" on="1"/>
        <pt x="517" y="1139" on="1"/>
        <pt x="492" y="1467" on="1"/>
        <pt x="576" y="1467" on="1"/>
        <pt x="576" y="1137" on="1"/>
        <pt x="826" y="1274" on="1"/>
        <pt x="875" y="1183" on="1"/>
        <pt x="599" y="1089" on="1"/>
        <pt x="808" y="826" on="1"/>
        <pt x="718" y="774" on="1"/>
      </contour>
    </TTGlyph>
    <TTGlyph name="at" xMin="142" yMin="-112" xMax="1782" yMax="1492">
      <contour>
        <pt x="1240" y="975" on="1"/>
        <pt x="1242" y="975" on="1"/>
        <pt x="1275" y="1114" on="1"/>
        <pt x="1393" y="1123" on="1"/>
        <pt x="1326" y="869" on="1"/>
        <pt x="1303" y="783" on="0"/>
        <pt x="1267" y="646" on="0"/>
        <pt x="1242" y="540" on="0"/>
        <pt x="1229" y="463" on="0"/>
        <pt x="1229" y="436" on="1"/>
        <pt x="1229" y="384" on="0"/>
        <pt x="1276" y="325" on="0"/>
        <pt x="1342" y="325" on="1"/>
        <pt x="1408" y="325" on="0"/>
        <pt x="1528" y="406" on="0"/>
        <pt x="1620" y="540" on="0"/>
        <pt x="1675" y="714" on="0"/>
        <pt x="1675" y="807" on="1"/>
        <pt x="1675" y="938" on="0"/>
        <pt x="1574" y="1159" on="0"/>
        <pt x="1391" y="1318" on="0"/>
        <pt x="1137" y="1407" on="0"/>
        <pt x="985" y="1407" on="1"/>
        <pt x="880" y="1407" on="0"/>
        <pt x="689" y="1355" on="0"/>
        <pt x="526" y="1260" on="0"/>
        <pt x="394" y="1127" on="0"/>
        <pt x="300" y="966" on="0"/>
        <pt x="250" y="781" on="0"/>
        <pt x="250" y="682" on="1"/>
        <pt x="250" y="581" on="0"/>
        <pt x="298" y="398" on="0"/>
        <pt x="389" y="241" on="0"/>
        <pt x="519" y="114" on="0"/>
        <pt x="684" y="24" on="0"/>
        <pt x="880" y="-25" on="0"/>
        <pt x="991" y="-25" on="1"/>
        <pt x="1151" y="-25" on="0"/>
        <pt x="1426" y="65" on="0"/>
        <pt x="1526" y="152" on="1"/>
        <pt x="1576" y="106" on="1"/>
        <pt x="1528" y="56" on="0"/>
        <pt x="1398" y="-24" on="0"/>
        <pt x="1245" y="-81" on="0"/>
        <pt x="1073" y="-112" on="0"/>
        <pt x="983" y="-112" on="1"/>
        <pt x="801" y="-112" on="0"/>
        <pt x="492" y="8" on="0"/>
        <pt x="268" y="221" on="0"/>
        <pt x="142" y="512" on="0"/>
        <pt x="142" y="683" on="1"/>
        <pt x="142" y="797" on="0"/>
        <pt x="202" y="1006" on="0"/>
        <pt x="312" y="1185" on="0"/>
        <pt x="466" y="1332" on="0"/>
        <pt x="655" y="1435" on="0"/>
        <pt x="873" y="1492" on="0"/>
        <pt x="992" y="1492" on="1"/>
        <pt x="1157" y="1492" on="0"/>
        <pt x="1446" y="1389" on="0"/>
        <pt x="1659" y="1205" on="0"/>
        <pt x="1782" y="953" on="0"/>
        <pt x="1782" y="803" on="1"/>
        <pt x="1782" y="683" on="0"/>
        <pt x="1701" y="476" on="0"/>
        <pt x="1569" y="322" on="0"/>
        <pt x="1401" y="234" on="0"/>
        <pt x="1315" y="234" on="1"/>
        <pt x="1228" y="234" on="0"/>
        <pt x="1116" y="341" on="0"/>
        <pt x="1107" y="434" on="1"/>
        <pt x="1081" y="392" on="0"/>
        <pt x="1017" y="329" on="0"/>
        <pt x="943" y="287" on="0"/>
        <pt x="864" y="266" on="0"/>
        <pt x="825" y="266" on="1"/>
        <pt x="768" y="266" on="0"/>
        <pt x="659" y="310" on="0"/>
        <pt x="574" y="397" on="0"/>
        <pt x="523" y="526" on="0"/>
        <pt x="523" y="612" on="1"/>
        <pt x="523" y="681" on="0"/>
        <pt x="560" y="813" on="0"/>
        <pt x="625" y="930" on="0"/>
        <pt x="716" y="1029" on="0"/>
        <pt x="822" y="1101" on="0"/>
        <pt x="940" y="1141" on="0"/>
        <pt x="1001" y="1141" on="1"/>
        <pt x="1047" y="1141" on="0"/>
        <pt x="1127" y="1118" on="0"/>
        <pt x="1190" y="1074" on="0"/>
        <pt x="1232" y="1013" on="0"/>
      </contour>
      <contour>
        <pt x="636" y="586" on="1"/>
        <pt x="636" y="536" on="0"/>
        <pt x="664" y="453" on="0"/>
        <pt x="718" y="393" on="0"/>
        <pt x="795" y="360" on="0"/>
        <pt x="845" y="360" on="1"/>
        <pt x="918" y="360" on="0"/>
        <pt x="1045" y="442" on="0"/>
        <pt x="1138" y="575" on="0"/>
        <pt x="1191" y="745" on="0"/>
        <pt x="1191" y="833" on="1"/>
        <pt x="1191" y="879" on="0"/>
        <pt x="1170" y="957" on="0"/>
        <pt x="1124" y="1013" on="0"/>
        <pt x="1050" y="1044" on="0"/>
        <pt x="996" y="1044" on="1"/>
        <pt x="918" y="1044" on="0"/>
        <pt x="786" y="959" on="0"/>
        <pt x="690" y="826" on="0"/>
        <pt x="636" y="664" on="0"/>
      </contour>
    </TTGlyph>
    <TTGlyph name="atilde" xMin="109" yMin="-23" xMax="1118" yMax="1451">
      <component glyphName="a" x="0" y="0" flags="0x1204"/>
      <component glyphName="tilde" x="179" y="0" flags="0x1004"/>
    </TTGlyph>
    <TTGlyph name="b" xMin="176" yMin="-23" xMax="1142" yMax="1508">
      <contour>
        <pt x="293" y="0" on="1"/>
        <pt x="176" y="0" on="1"/>
        <pt x="176" y="1508" on="1"/>
        <pt x="300" y="1508" on="1"/>
        <pt x="300" y="816" on="1"/>
        <pt x="330" y="875" on="0"/>
        <pt x="416" y="963" on="0"/>
        <pt x="521" y="1022" on="0"/>
        <pt x="641" y="1051" on="0"/>
        <pt x="705" y="1051" on="1"/>
        <pt x="821" y="1051" on="0"/>
        <pt x="986" y="966" on="0"/>
        <pt x="1092" y="822" on="0"/>
        <pt x="1142" y="631" on="0"/>
        <pt x="1142" y="526" on="1"/>
        <pt x="1142" y="413" on="0"/>
        <pt x="1084" y="214" on="0"/>
        <pt x="969" y="64" on="0"/>
        <pt x="795" y="-23" on="0"/>
        <pt x="680" y="-23" on="1"/>
        <pt x="430" y="-23" on="0"/>
        <pt x="299" y="193" on="1"/>
      </contour>
      <contour>
        <pt x="664" y="951" on="1"/>
        <pt x="561" y="951" on="0"/>
        <pt x="421" y="875" on="0"/>
        <pt x="335" y="747" on="0"/>
        <pt x="298" y="580" on="0"/>
        <pt x="298" y="490" on="1"/>
        <pt x="298" y="401" on="0"/>
        <pt x="345" y="249" on="0"/>
        <pt x="436" y="138" on="0"/>
        <pt x="571" y="75" on="0"/>
        <pt x="659" y="75" on="1"/>
        <pt x="758" y="75" on="0"/>
        <pt x="895" y="156" on="0"/>
        <pt x="979" y="286" on="0"/>
        <pt x="1017" y="449" on="0"/>
        <pt x="1017" y="531" on="1"/>
        <pt x="1017" y="618" on="0"/>
        <pt x="975" y="771" on="0"/>
        <pt x="888" y="885" on="0"/>
        <pt x="755" y="951" on="0"/>
      </contour>
    </TTGlyph>
    <TTGlyph name="backslash" xMin="-42" yMin="-122" xMax="771" yMax="1467">
      <contour>
        <pt x="654" y="-122" on="1"/>
        <pt x="-42" y="1467" on="1"/>
        <pt x="76" y="1467" on="1"/>
        <pt x="771" y="-122" on="1"/>
      </contour>
    </TTGlyph>
    <TTGlyph name="bar" xMin="195" yMin="-510" xMax="314" yMax="1564">
      <contour>
        <pt x="195" y="-510" on="1"/>
        <pt x="195" y="1564" on="1"/>
        <pt x="314" y="1564" on="1"/>
        <pt x="314" y="-510" on="1"/>
      </contour>
    </TTGlyph>
    <TTGlyph name="braceleft" xMin="107" yMin="-268" xMax="561" yMax="1467">
      <contour>
        <pt x="273" y="1172" on="1"/>
        <pt x="273" y="1242" on="0"/>
        <pt x="305" y="1351" on="0"/>
        <pt x="374" y="1427" on="0"/>
        <pt x="483" y="1467" on="0"/>
        <pt x="561" y="1467" on="1"/>
        <pt x="558" y="1375" on="1"/>
        <pt x="511" y="1373" on="0"/>
        <pt x="448" y="1361" on="0"/>
        <pt x="409" y="1322" on="0"/>
        <pt x="392" y="1247" on="0"/>
        <pt x="392" y="1182" on="1"/>
        <pt x="392" y="880" on="1"/>
        <pt x="392" y="807" on="0"/>
        <pt x="354" y="704" on="0"/>
        <pt x="300" y="637" on="0"/>
        <pt x="240" y="602" on="0"/>
        <pt x="218" y="598" on="1"/>
        <pt x="265" y="582" on="0"/>
        <pt x="330" y="524" on="0"/>
        <pt x="371" y="450" on="0"/>
        <pt x="390" y="364" on="0"/>
        <pt x="390" y="321" on="1"/>
        <pt x="391" y="-22" on="1"/>
        <pt x="391" y="-24" on="0"/>
        <pt x="390" y="-28" on="0"/>
        <pt x="390" y="-30" on="1"/>
        <pt x="390" y="-108" on="0"/>
        <pt x="472" y="-177" on="0"/>
        <pt x="560" y="-177" on="1"/>
        <pt x="559" y="-268" on="1"/>
        <pt x="499" y="-268" on="0"/>
        <pt x="393" y="-241" on="0"/>
        <pt x="315" y="-179" on="0"/>
        <pt x="269" y="-80" on="0"/>
        <pt x="269" y="-8" on="1"/>
        <pt x="273" y="265" on="1"/>
        <pt x="273" y="316" on="0"/>
        <pt x="264" y="412" on="0"/>
        <pt x="230" y="490" on="0"/>
        <pt x="164" y="542" on="0"/>
        <pt x="107" y="550" on="1"/>
        <pt x="108" y="647" on="1"/>
        <pt x="200" y="655" on="0"/>
        <pt x="276" y="763" on="0"/>
        <pt x="275" y="870" on="1"/>
      </contour>
    </TTGlyph>
    <TTGlyph name="braceright" xMin="86" yMin="-268" xMax="539" yMax="1467">
      <contour>
        <pt x="86" y="1375" on="1"/>
        <pt x="87" y="1467" on="1"/>
        <pt x="153" y="1462" on="0"/>
        <pt x="260" y="1428" on="0"/>
        <pt x="335" y="1364" on="0"/>
        <pt x="376" y="1269" on="0"/>
        <pt x="376" y="1204" on="1"/>
        <pt x="373" y="906" on="1"/>
        <pt x="373" y="857" on="0"/>
        <pt x="385" y="769" on="0"/>
        <pt x="420" y="699" on="0"/>
        <pt x="485" y="654" on="0"/>
        <pt x="539" y="649" on="1"/>
        <pt x="537" y="552" on="1"/>
        <pt x="489" y="548" on="0"/>
        <pt x="425" y="511" on="0"/>
        <pt x="386" y="446" on="0"/>
        <pt x="370" y="356" on="0"/>
        <pt x="370" y="299" on="1"/>
        <pt x="369" y="-6" on="1"/>
        <pt x="369" y="-63" on="0"/>
        <pt x="337" y="-155" on="0"/>
        <pt x="283" y="-221" on="0"/>
        <pt x="210" y="-260" on="0"/>
        <pt x="168" y="-264" on="1"/>
        <pt x="144" y="-266" on="0"/>
        <pt x="104" y="-269" on="0"/>
        <pt x="87" y="-268" on="1"/>
        <pt x="88" y="-177" on="1"/>
        <pt x="137" y="-177" on="0"/>
        <pt x="203" y="-161" on="0"/>
        <pt x="242" y="-104" on="0"/>
        <pt x="258" y="3" on="0"/>
        <pt x="258" y="95" on="1"/>
        <pt x="258" y="151" on="0"/>
        <pt x="253" y="266" on="0"/>
        <pt x="253" y="320" on="1"/>
        <pt x="253" y="392" on="0"/>
        <pt x="291" y="495" on="0"/>
        <pt x="345" y="562" on="0"/>
        <pt x="402" y="596" on="0"/>
        <pt x="422" y="598" on="1"/>
        <pt x="368" y="617" on="0"/>
        <pt x="304" y="681" on="0"/>
        <pt x="269" y="758" on="0"/>
        <pt x="258" y="841" on="0"/>
        <pt x="258" y="879" on="1"/>
        <pt x="257" y="1192" on="1"/>
        <pt x="257" y="1233" on="0"/>
        <pt x="241" y="1299" on="0"/>
        <pt x="201" y="1346" on="0"/>
        <pt x="135" y="1373" on="0"/>
      </contour>
    </TTGlyph>
    <TTGlyph name="bracketleft" xMin="220" yMin="-268" xMax="537" yMax="1467">
      <contour>
        <pt x="537" y="-268" on="1"/>
        <pt x="220" y="-268" on="1"/>
        <pt x="220" y="1467" on="1"/>
        <pt x="536" y="1467" on="1"/>
        <pt x="536" y="1379" on="1"/>
        <pt x="336" y="1379" on="1"/>
        <pt x="336" y="-181" on="1"/>
        <pt x="537" y="-181" on="1"/>
      </contour>
    </TTGlyph>
    <TTGlyph name="bracketright" xMin="110" yMin="-268" xMax="428" yMax="1467">
      <contour>
        <pt x="128" y="1467" on="1"/>
        <pt x="428" y="1467" on="1"/>
        <pt x="428" y="-268" on="1"/>
        <pt x="111" y="-268" on="1"/>
        <pt x="111" y="-181" on="1"/>
        <pt x="309" y="-181" on="1"/>
        <pt x="309" y="1379" on="1"/>
        <pt x="110" y="1379" on="1"/>
      </contour>
    </TTGlyph>
    <TTGlyph name="breve" xMin="54" yMin="1262" xMax="587" yMax="1470">
      <contour>
        <pt x="587" y="1470" on="1"/>
        <pt x="582" y="1417" on="0"/>
        <pt x="539" y="1339" on="0"/>
        <pt x="469" y="1287" on="0"/>
        <pt x="375" y="1262" on="0"/>
        <pt x="319" y="1262" on="1"/>
        <pt x="203" y="1262" on="0"/>
        <pt x="62" y="1363" on="0"/>
        <pt x="54" y="1470" on="1"/>
        <pt x="94" y="1470" on="1"/>
        <pt x="100" y="1432" on="0"/>
        <pt x="142" y="1381" on="0"/>
        <pt x="203" y="1348" on="0"/>
        <pt x="277" y="1334" on="0"/>
        <pt x="316" y="1334" on="1"/>
        <pt x="355" y="1334" on="0"/>
        <pt x="430" y="1350" on="0"/>
        <pt x="492" y="1383" on="0"/>
        <pt x="538" y="1435" on="0"/>
        <pt x="547" y="1470" on="1"/>
      </contour>
    </TTGlyph>
    <TTGlyph name="brokenbar" xMin="195" yMin="-510" xMax="314" yMax="1564">
      <contour>
        <pt x="198" y="763" on="1"/>
        <pt x="198" y="1564" on="1"/>
        <pt x="314" y="1564" on="1"/>
        <pt x="314" y="763" on="1"/>
      </contour>
      <contour>
        <pt x="311" y="394" on="1"/>
        <pt x="311" y="-510" on="1"/>
        <pt x="195" y="-510" on="1"/>
        <pt x="195" y="394" on="1"/>
      </contour>
    </TTGlyph>
    <TTGlyph name="bullet" xMin="179" yMin="397" xMax="830" yMax="1010">
      <contour>
        <pt x="830" y="707" on="1"/>
        <pt x="830" y="643" on="0"/>
        <pt x="778" y="530" on="0"/>
        <pt x="688" y="446" on="0"/>
        <pt x="568" y="397" on="0"/>
        <pt x="501" y="397" on="1"/>
        <pt x="435" y="397" on="0"/>
        <pt x="318" y="445" on="0"/>
        <pt x="230" y="527" on="0"/>
        <pt x="179" y="638" on="0"/>
        <pt x="179" y="700" on="1"/>
        <pt x="179" y="764" on="0"/>
        <pt x="232" y="877" on="0"/>
        <pt x="323" y="961" on="0"/>
        <pt x="443" y="1010" on="0"/>
        <pt x="510" y="1010" on="1"/>
        <pt x="576" y="1010" on="0"/>
        <pt x="692" y="962" on="0"/>
        <pt x="779" y="879" on="0"/>
        <pt x="830" y="769" on="0"/>
      </contour>
    </TTGlyph>
    <TTGlyph name="c" xMin="112" yMin="-23" xMax="962" yMax="1051">
      <contour>
        <pt x="903" y="848" on="1"/>
        <pt x="861" y="899" on="0"/>
        <pt x="719" y="951" on="0"/>
        <pt x="631" y="951" on="1"/>
        <pt x="539" y="951" on="0"/>
        <pt x="395" y="881" on="0"/>
        <pt x="294" y="761" on="0"/>
        <pt x="241" y="600" on="0"/>
        <pt x="241" y="509" on="1"/>
        <pt x="241" y="418" on="0"/>
        <pt x="286" y="259" on="0"/>
        <pt x="381" y="142" on="0"/>
        <pt x="528" y="75" on="0"/>
        <pt x="630" y="75" on="1"/>
        <pt x="816" y="75" on="0"/>
        <pt x="932" y="175" on="1"/>
        <pt x="962" y="78" on="1"/>
        <pt x="896" y="24" on="0"/>
        <pt x="720" y="-23" on="0"/>
        <pt x="614" y="-23" on="1"/>
        <pt x="489" y="-23" on="0"/>
        <pt x="301" y="59" on="0"/>
        <pt x="175" y="201" on="0"/>
        <pt x="112" y="392" on="0"/>
        <pt x="112" y="500" on="1"/>
        <pt x="112" y="613" on="0"/>
        <pt x="180" y="813" on="0"/>
        <pt x="309" y="963" on="0"/>
        <pt x="498" y="1051" on="0"/>
        <pt x="620" y="1051" on="1"/>
        <pt x="737" y="1051" on="0"/>
        <pt x="906" y="984" on="0"/>
        <pt x="956" y="924" on="1"/>
      </contour>
    </TTGlyph>
    <TTGlyph name="caron" xMin="67" yMin="1214" xMax="638" yMax="1509">
      <contour>
        <pt x="638" y="1509" on="1"/>
        <pt x="420" y="1214" on="1"/>
        <pt x="286" y="1214" on="1"/>
        <pt x="67" y="1509" on="1"/>
        <pt x="165" y="1509" on="1"/>
        <pt x="346" y="1269" on="1"/>
        <pt x="537" y="1509" on="1"/>
      </contour>
    </TTGlyph>
    <TTGlyph name="ccedilla" xMin="112" yMin="-412" xMax="962" yMax="1051">
      <component glyphName="c" x="0" y="0" flags="0x1204"/>
      <component glyphName="cedilla" x="368" y="0" flags="0x1004"/>
    </TTGlyph>
    <TTGlyph name="cedilla" xMin="79" yMin="-412" xMax="459" yMax="-20">
      <contour>
        <pt x="84" y="-342" on="1"/>
        <pt x="118" y="-353" on="0"/>
        <pt x="186" y="-363" on="0"/>
        <pt x="219" y="-363" on="1"/>
        <pt x="295" y="-363" on="0"/>
        <pt x="359" y="-312" on="0"/>
        <pt x="359" y="-271" on="1"/>
        <pt x="359" y="-243" on="0"/>
        <pt x="338" y="-206" on="0"/>
        <pt x="299" y="-183" on="0"/>
        <pt x="244" y="-174" on="0"/>
        <pt x="210" y="-174" on="1"/>
        <pt x="211" y="-174" on="0"/>
        <pt x="216" y="-174" on="0"/>
        <pt x="216" y="-175" on="1"/>
        <pt x="212" y="-175" on="0"/>
        <pt x="209" y="-176" on="1"/>
        <pt x="179" y="-179" on="1"/>
        <pt x="209" y="-20" on="1"/>
        <pt x="256" y="-20" on="1"/>
        <pt x="238" y="-130" on="1"/>
        <pt x="245" y="-130" on="0"/>
        <pt x="257" y="-129" on="0"/>
        <pt x="264" y="-129" on="1"/>
        <pt x="305" y="-129" on="0"/>
        <pt x="376" y="-144" on="0"/>
        <pt x="429" y="-177" on="0"/>
        <pt x="459" y="-229" on="0"/>
        <pt x="459" y="-266" on="1"/>
        <pt x="459" y="-303" on="0"/>
        <pt x="425" y="-358" on="0"/>
        <pt x="364" y="-394" on="0"/>
        <pt x="280" y="-412" on="0"/>
        <pt x="231" y="-412" on="1"/>
        <pt x="189" y="-412" on="0"/>
        <pt x="115" y="-402" on="0"/>
        <pt x="79" y="-393" on="1"/>
      </contour>
    </TTGlyph>
    <TTGlyph name="cent" xMin="179" yMin="-165" xMax="1040" yMax="1369">
      <contour>
        <pt x="697" y="1128" on="1"/>
        <pt x="742" y="1369" on="1"/>
        <pt x="823" y="1369" on="1"/>
        <pt x="774" y="1128" on="1"/>
        <pt x="819" y="1121" on="0"/>
        <pt x="896" y="1089" on="0"/>
        <pt x="959" y="1043" on="0"/>
        <pt x="1003" y="983" on="0"/>
        <pt x="1015" y="949" on="1"/>
        <pt x="968" y="890" on="1"/>
        <pt x="943" y="944" on="0"/>
        <pt x="842" y="1006" on="0"/>
        <pt x="764" y="1020" on="1"/>
        <pt x="625" y="172" on="1"/>
        <pt x="665" y="163" on="0"/>
        <pt x="708" y="163" on="1"/>
        <pt x="750" y="163" on="0"/>
        <pt x="833" y="181" on="0"/>
        <pt x="906" y="219" on="0"/>
        <pt x="964" y="274" on="0"/>
        <pt x="981" y="312" on="1"/>
        <pt x="1040" y="257" on="1"/>
        <pt x="1024" y="207" on="0"/>
        <pt x="961" y="133" on="0"/>
        <pt x="875" y="85" on="0"/>
        <pt x="772" y="61" on="0"/>
        <pt x="716" y="61" on="1"/>
        <pt x="666" y="61" on="0"/>
        <pt x="615" y="70" on="1"/>
        <pt x="567" y="-165" on="1"/>
        <pt x="484" y="-165" on="1"/>
        <pt x="538" y="80" on="1"/>
        <pt x="452" y="97" on="0"/>
        <pt x="318" y="188" on="0"/>
        <pt x="227" y="320" on="0"/>
        <pt x="179" y="487" on="0"/>
        <pt x="179" y="580" on="1"/>
        <pt x="179" y="691" on="0"/>
        <pt x="249" y="890" on="0"/>
        <pt x="382" y="1040" on="0"/>
        <pt x="574" y="1128" on="0"/>
      </contour>
      <contour>
        <pt x="552" y="191" on="1"/>
        <pt x="688" y="1024" on="1"/>
        <pt x="604" y="1019" on="0"/>
        <pt x="463" y="955" on="0"/>
        <pt x="363" y="844" on="0"/>
        <pt x="307" y="689" on="0"/>
        <pt x="307" y="593" on="1"/>
        <pt x="307" y="519" on="0"/>
        <pt x="341" y="389" on="0"/>
        <pt x="404" y="284" on="0"/>
        <pt x="495" y="209" on="0"/>
      </contour>
    </TTGlyph>
    <TTGlyph name="circumflex" xMin="143" yMin="1214" xMax="695" yMax="1510">
      <contour>
        <pt x="143" y="1214" on="1"/>
        <pt x="352" y="1510" on="1"/>
        <pt x="487" y="1510" on="1"/>
        <pt x="695" y="1214" on="1"/>
        <pt x="616" y="1214" on="1"/>
        <pt x="417" y="1454" on="1"/>
        <pt x="217" y="1214" on="1"/>
      </contour>
    </TTGlyph>
    <TTGlyph name="colon" xMin="159" yMin="-11" xMax="361" yMax="948">
      <contour>
        <pt x="331" y="769" on="1"/>
        <pt x="159" y="769" on="1"/>
        <pt x="159" y="948" on="1"/>
        <pt x="332" y="948" on="1"/>
      </contour>
      <contour>
        <pt x="361" y="-11" on="1"/>
        <pt x="188" y="-11" on="1"/>
        <pt x="188" y="168" on="1"/>
        <pt x="361" y="168" on="1"/>
      </contour>
    </TTGlyph>
    <TTGlyph name="comma" xMin="107" yMin="-265" xMax="353" yMax="176">
      <contour>
        <pt x="213" y="176" on="1"/>
        <pt x="353" y="176" on="1"/>
        <pt x="198" y="-265" on="1"/>
        <pt x="107" y="-265" on="1"/>
      </contour>
    </TTGlyph>
    <TTGlyph name="copyright" xMin="115" yMin="-32" xMax="1739" yMax="1499">
      <contour>
        <pt x="932" y="51" on="1"/>
        <pt x="1035" y="51" on="0"/>
        <pt x="1222" y="99" on="0"/>
        <pt x="1383" y="188" on="0"/>
        <pt x="1514" y="312" on="0"/>
        <pt x="1607" y="463" on="0"/>
        <pt x="1657" y="638" on="0"/>
        <pt x="1657" y="732" on="1"/>
        <pt x="1657" y="828" on="0"/>
        <pt x="1606" y="1004" on="0"/>
        <pt x="1512" y="1156" on="0"/>
        <pt x="1380" y="1280" on="0"/>
        <pt x="1217" y="1368" on="0"/>
        <pt x="1028" y="1416" on="0"/>
        <pt x="925" y="1416" on="1"/>
        <pt x="773" y="1416" on="0"/>
        <pt x="508" y="1310" on="0"/>
        <pt x="312" y="1126" on="0"/>
        <pt x="199" y="877" on="0"/>
        <pt x="199" y="734" on="1"/>
        <pt x="199" y="590" on="0"/>
        <pt x="311" y="340" on="0"/>
        <pt x="508" y="156" on="0"/>
        <pt x="776" y="51" on="0"/>
      </contour>
      <contour>
        <pt x="930" y="-32" on="1"/>
        <pt x="818" y="-32" on="0"/>
        <pt x="610" y="23" on="0"/>
        <pt x="429" y="122" on="0"/>
        <pt x="280" y="262" on="0"/>
        <pt x="173" y="432" on="0"/>
        <pt x="115" y="627" on="0"/>
        <pt x="115" y="732" on="1"/>
        <pt x="115" y="837" on="0"/>
        <pt x="174" y="1033" on="0"/>
        <pt x="281" y="1203" on="0"/>
        <pt x="430" y="1344" on="0"/>
        <pt x="610" y="1444" on="0"/>
        <pt x="817" y="1499" on="0"/>
        <pt x="927" y="1499" on="1"/>
        <pt x="1039" y="1499" on="0"/>
        <pt x="1246" y="1444" on="0"/>
        <pt x="1426" y="1344" on="0"/>
        <pt x="1575" y="1204" on="0"/>
        <pt x="1681" y="1034" on="0"/>
        <pt x="1739" y="838" on="0"/>
        <pt x="1739" y="733" on="1"/>
        <pt x="1739" y="628" on="0"/>
        <pt x="1681" y="433" on="0"/>
        <pt x="1574" y="263" on="0"/>
        <pt x="1426" y="123" on="0"/>
        <pt x="1246" y="23" on="0"/>
        <pt x="1041" y="-32" on="0"/>
      </contour>
      <contour>
        <pt x="1227" y="1068" on="1"/>
        <pt x="1184" y="1119" on="0"/>
        <pt x="1042" y="1171" on="0"/>
        <pt x="954" y="1171" on="1"/>
        <pt x="862" y="1171" on="0"/>
        <pt x="718" y="1101" on="0"/>
        <pt x="617" y="981" on="0"/>
        <pt x="564" y="820" on="0"/>
        <pt x="564" y="729" on="1"/>
        <pt x="564" y="638" on="0"/>
        <pt x="609" y="479" on="0"/>
        <pt x="704" y="362" on="0"/>
        <pt x="851" y="295" on="0"/>
        <pt x="953" y="295" on="1"/>
        <pt x="1139" y="295" on="0"/>
        <pt x="1255" y="395" on="1"/>
        <pt x="1285" y="298" on="1"/>
        <pt x="1219" y="244" on="0"/>
        <pt x="1043" y="197" on="0"/>
        <pt x="937" y="197" on="1"/>
        <pt x="812" y="197" on="0"/>
        <pt x="624" y="279" on="0"/>
        <pt x="498" y="421" on="0"/>
        <pt x="435" y="612" on="0"/>
        <pt x="435" y="720" on="1"/>
        <pt x="435" y="833" on="0"/>
        <pt x="503" y="1033" on="0"/>
        <pt x="632" y="1183" on="0"/>
        <pt x="821" y="1271" on="0"/>
        <pt x="943" y="1271" on="1"/>
        <pt x="1060" y="1271" on="0"/>
        <pt x="1229" y="1204" on="0"/>
        <pt x="1279" y="1144" on="1"/>
      </contour>
    </TTGlyph>
    <TTGlyph name="currency" xMin="188" yMin="40" xMax="938" yMax="1301">
      <contour>
        <pt x="566" y="1051" on="1"/>
        <pt x="631" y="1051" on="0"/>
        <pt x="691" y="1034" on="1"/>
        <pt x="793" y="1301" on="1"/>
        <pt x="835" y="1285" on="1"/>
        <pt x="732" y="1018" on="1"/>
        <pt x="836" y="971" on="0"/>
        <pt x="938" y="784" on="0"/>
        <pt x="938" y="663" on="1"/>
        <pt x="938" y="612" on="0"/>
        <pt x="917" y="517" on="0"/>
        <pt x="877" y="432" on="0"/>
        <pt x="818" y="361" on="0"/>
        <pt x="780" y="336" on="1"/>
        <pt x="931" y="56" on="1"/>
        <pt x="896" y="40" on="1"/>
        <pt x="747" y="316" on="1"/>
        <pt x="706" y="296" on="0"/>
        <pt x="614" y="274" on="0"/>
        <pt x="560" y="274" on="1"/>
        <pt x="498" y="274" on="0"/>
        <pt x="450" y="287" on="1"/>
        <pt x="354" y="40" on="1"/>
        <pt x="317" y="56" on="1"/>
        <pt x="410" y="301" on="1"/>
        <pt x="356" y="322" on="0"/>
        <pt x="273" y="393" on="0"/>
        <pt x="217" y="486" on="0"/>
        <pt x="188" y="597" on="0"/>
        <pt x="188" y="659" on="1"/>
        <pt x="188" y="715" on="0"/>
        <pt x="212" y="820" on="0"/>
        <pt x="258" y="910" on="0"/>
        <pt x="327" y="982" on="0"/>
        <pt x="372" y="1006" on="1"/>
        <pt x="221" y="1285" on="1"/>
        <pt x="261" y="1301" on="1"/>
        <pt x="411" y="1023" on="1"/>
        <pt x="477" y="1051" on="0"/>
      </contour>
      <contour>
        <pt x="844" y="660" on="1"/>
        <pt x="844" y="724" on="0"/>
        <pt x="810" y="840" on="0"/>
        <pt x="741" y="928" on="0"/>
        <pt x="634" y="979" on="0"/>
        <pt x="561" y="979" on="1"/>
        <pt x="492" y="979" on="0"/>
        <pt x="387" y="926" on="0"/>
        <pt x="317" y="838" on="0"/>
        <pt x="281" y="723" on="0"/>
        <pt x="281" y="660" on="1"/>
        <pt x="281" y="597" on="0"/>
        <pt x="317" y="483" on="0"/>
        <pt x="388" y="396" on="0"/>
        <pt x="494" y="345" on="0"/>
        <pt x="565" y="345" on="1"/>
        <pt x="635" y="345" on="0"/>
        <pt x="739" y="397" on="0"/>
        <pt x="809" y="484" on="0"/>
        <pt x="844" y="598" on="0"/>
      </contour>
    </TTGlyph>
    <TTGlyph name="d" xMin="112" yMin="-23" xMax="1085" yMax="1508">
      <contour>
        <pt x="957" y="1508" on="1"/>
        <pt x="1081" y="1508" on="1"/>
        <pt x="1081" y="247" on="1"/>
        <pt x="1081" y="181" on="0"/>
        <pt x="1082" y="66" on="0"/>
        <pt x="1085" y="0" on="1"/>
        <pt x="962" y="0" on="1"/>
        <pt x="956" y="206" on="1"/>
        <pt x="888" y="86" on="0"/>
        <pt x="692" y="-23" on="0"/>
        <pt x="565" y="-23" on="1"/>
        <pt x="448" y="-23" on="0"/>
        <pt x="277" y="60" on="0"/>
        <pt x="166" y="202" on="0"/>
        <pt x="112" y="394" on="0"/>
        <pt x="112" y="504" on="1"/>
        <pt x="112" y="613" on="0"/>
        <pt x="170" y="811" on="0"/>
        <pt x="287" y="962" on="0"/>
        <pt x="461" y="1051" on="0"/>
        <pt x="577" y="1051" on="1"/>
        <pt x="710" y="1051" on="0"/>
        <pt x="905" y="939" on="0"/>
        <pt x="957" y="821" on="1"/>
      </contour>
      <contour>
        <pt x="594" y="75" on="1"/>
        <pt x="686" y="75" on="0"/>
        <pt x="823" y="144" on="0"/>
        <pt x="913" y="266" on="0"/>
        <pt x="957" y="434" on="0"/>
        <pt x="957" y="533" on="1"/>
        <pt x="957" y="629" on="0"/>
        <pt x="907" y="783" on="0"/>
        <pt x="815" y="892" on="0"/>
        <pt x="684" y="951" on="0"/>
        <pt x="602" y="951" on="1"/>
        <pt x="507" y="951" on="0"/>
        <pt x="371" y="879" on="0"/>
        <pt x="283" y="757" on="0"/>
        <pt x="241" y="596" on="0"/>
        <pt x="241" y="507" on="1"/>
        <pt x="241" y="422" on="0"/>
        <pt x="278" y="266" on="0"/>
        <pt x="362" y="146" on="0"/>
        <pt x="496" y="75" on="0"/>
      </contour>
    </TTGlyph>
    <TTGlyph name="dagger" xMin="130" yMin="116" xMax="919" yMax="1467">
      <contour>
        <pt x="471" y="968" on="1"/>
        <pt x="130" y="968" on="1"/>
        <pt x="130" y="1066" on="1"/>
        <pt x="466" y="1066" on="1"/>
        <pt x="466" y="1467" on="1"/>
        <pt x="581" y="1467" on="1"/>
        <pt x="581" y="1066" on="1"/>
        <pt x="919" y="1066" on="1"/>
        <pt x="919" y="968" on="1"/>
        <pt x="582" y="968" on="1"/>
        <pt x="582" y="116" on="1"/>
        <pt x="471" y="116" on="1"/>
      </contour>
    </TTGlyph>
    <TTGlyph name="daggerdbl" xMin="118" yMin="116" xMax="915" yMax="1467">
      <contour>
        <pt x="454" y="1020" on="1"/>
        <pt x="126" y="1020" on="1"/>
        <pt x="126" y="1118" on="1"/>
        <pt x="483" y="1118" on="1"/>
        <pt x="483" y="1467" on="1"/>
        <pt x="602" y="1467" on="1"/>
        <pt x="577" y="1118" on="1"/>
        <pt x="915" y="1118" on="1"/>
        <pt x="915" y="1020" on="1"/>
        <pt x="580" y="1020" on="1"/>
        <pt x="580" y="546" on="1"/>
        <pt x="910" y="546" on="1"/>
        <pt x="910" y="451" on="1"/>
        <pt x="552" y="451" on="1"/>
        <pt x="552" y="116" on="1"/>
        <pt x="429" y="116" on="1"/>
        <pt x="429" y="451" on="1"/>
        <pt x="118" y="451" on="1"/>
        <pt x="118" y="546" on="1"/>
        <pt x="454" y="546" on="1"/>
      </contour>
    </TTGlyph>
    <TTGlyph name="degree" xMin="125" yMin="886" xMax="730" yMax="1460">
      <contour>
        <pt x="209" y="1169" on="1"/>
        <pt x="209" y="1123" on="0"/>
        <pt x="241" y="1046" on="0"/>
        <pt x="299" y="990" on="0"/>
        <pt x="378" y="958" on="0"/>
        <pt x="426" y="958" on="1"/>
        <pt x="472" y="958" on="0"/>
        <pt x="553" y="991" on="0"/>
        <pt x="613" y="1050" on="0"/>
        <pt x="647" y="1129" on="0"/>
        <pt x="647" y="1174" on="1"/>
        <pt x="647" y="1220" on="0"/>
        <pt x="613" y="1298" on="0"/>
        <pt x="554" y="1355" on="0"/>
        <pt x="473" y="1388" on="0"/>
        <pt x="426" y="1388" on="1"/>
        <pt x="381" y="1388" on="0"/>
        <pt x="302" y="1353" on="0"/>
        <pt x="243" y="1293" on="0"/>
        <pt x="209" y="1214" on="0"/>
      </contour>
      <contour>
        <pt x="730" y="1176" on="1"/>
        <pt x="730" y="1116" on="0"/>
        <pt x="681" y="1010" on="0"/>
        <pt x="598" y="932" on="0"/>
        <pt x="487" y="886" on="0"/>
        <pt x="425" y="886" on="1"/>
        <pt x="364" y="886" on="0"/>
        <pt x="255" y="929" on="0"/>
        <pt x="173" y="1005" on="0"/>
        <pt x="125" y="1107" on="0"/>
        <pt x="125" y="1167" on="1"/>
        <pt x="125" y="1227" on="0"/>
        <pt x="173" y="1333" on="0"/>
        <pt x="255" y="1413" on="0"/>
        <pt x="365" y="1460" on="0"/>
        <pt x="427" y="1460" on="1"/>
        <pt x="490" y="1460" on="0"/>
        <pt x="600" y="1415" on="0"/>
        <pt x="682" y="1337" on="0"/>
        <pt x="730" y="1234" on="0"/>
      </contour>
    </TTGlyph>
    <TTGlyph name="dieresis" xMin="205" yMin="1293" xMax="700" yMax="1421">
      <contour>
        <pt x="324" y="1293" on="1"/>
        <pt x="205" y="1293" on="1"/>
        <pt x="205" y="1421" on="1"/>
        <pt x="325" y="1421" on="1"/>
      </contour>
      <contour>
        <pt x="700" y="1293" on="1"/>
        <pt x="577" y="1293" on="1"/>
        <pt x="577" y="1421" on="1"/>
        <pt x="700" y="1421" on="1"/>
      </contour>
    </TTGlyph>
    <TTGlyph name="divide" xMin="218" yMin="58" xMax="1256" yMax="1054">
      <contour>
        <pt x="218" y="504" on="1"/>
        <pt x="218" y="608" on="1"/>
        <pt x="1256" y="608" on="1"/>
        <pt x="1256" y="504" on="1"/>
      </contour>
      <contour>
        <pt x="829" y="58" on="1"/>
        <pt x="657" y="58" on="1"/>
        <pt x="657" y="237" on="1"/>
        <pt x="830" y="237" on="1"/>
      </contour>
      <contour>
        <pt x="834" y="875" on="1"/>
        <pt x="661" y="875" on="1"/>
        <pt x="661" y="1054" on="1"/>
        <pt x="834" y="1054" on="1"/>
      </contour>
    </TTGlyph>
    <TTGlyph name="dollar" xMin="137" yMin="-216" xMax="1116" yMax="1655">
      <contour>
        <pt x="569" y="-216" on="1"/>
        <pt x="575" y="-23" on="1"/>
        <pt x="562" y="-23" on="1"/>
        <pt x="433" y="-23" on="0"/>
        <pt x="212" y="73" on="0"/>
        <pt x="137" y="170" on="1"/>
        <pt x="191" y="250" on="1"/>
        <pt x="240" y="195" on="0"/>
        <pt x="339" y="132" on="0"/>
        <pt x="438" y="100" on="0"/>
        <pt x="487" y="95" on="1"/>
        <pt x="533" y="91" on="0"/>
        <pt x="579" y="91" on="1"/>
        <pt x="600" y="679" on="1"/>
        <pt x="561" y="693" on="1"/>
        <pt x="483" y="722" on="0"/>
        <pt x="335" y="789" on="0"/>
        <pt x="218" y="882" on="0"/>
        <pt x="147" y="1011" on="0"/>
        <pt x="147" y="1103" on="1"/>
        <pt x="147" y="1197" on="0"/>
        <pt x="235" y="1339" on="0"/>
        <pt x="381" y="1435" on="0"/>
        <pt x="473" y="1459" on="1"/>
        <pt x="549" y="1478" on="0"/>
        <pt x="628" y="1482" on="1"/>
        <pt x="634" y="1655" on="1"/>
        <pt x="698" y="1655" on="1"/>
        <pt x="692" y="1482" on="1"/>
        <pt x="727" y="1481" on="0"/>
        <pt x="763" y="1476" on="1"/>
        <pt x="814" y="1470" on="0"/>
        <pt x="914" y="1440" on="0"/>
        <pt x="1007" y="1389" on="0"/>
        <pt x="1046" y="1351" on="1"/>
        <pt x="997" y="1258" on="1"/>
        <pt x="928" y="1318" on="0"/>
        <pt x="839" y="1343" on="1"/>
        <pt x="764" y="1364" on="0"/>
        <pt x="688" y="1367" on="1"/>
        <pt x="669" y="787" on="1"/>
        <pt x="685" y="781" on="0"/>
        <pt x="701" y="775" on="1"/>
        <pt x="779" y="744" on="0"/>
        <pt x="928" y="674" on="0"/>
        <pt x="1045" y="577" on="0"/>
        <pt x="1116" y="447" on="0"/>
        <pt x="1116" y="356" on="1"/>
        <pt x="1116" y="286" on="0"/>
        <pt x="1071" y="175" on="0"/>
        <pt x="991" y="91" on="0"/>
        <pt x="885" y="32" on="0"/>
        <pt x="761" y="-6" on="0"/>
        <pt x="694" y="-14" on="1"/>
        <pt x="668" y="-18" on="0"/>
        <pt x="641" y="-20" on="1"/>
        <pt x="635" y="-216" on="1"/>
      </contour>
      <contour>
        <pt x="527" y="1354" on="1"/>
        <pt x="460" y="1340" on="0"/>
        <pt x="353" y="1278" on="0"/>
        <pt x="286" y="1182" on="0"/>
        <pt x="286" y="1115" on="1"/>
        <pt x="286" y="1044" on="0"/>
        <pt x="357" y="944" on="0"/>
        <pt x="474" y="867" on="0"/>
        <pt x="548" y="836" on="1"/>
        <pt x="604" y="813" on="1"/>
        <pt x="624" y="1367" on="1"/>
        <pt x="575" y="1364" on="0"/>
      </contour>
      <contour>
        <pt x="742" y="108" on="1"/>
        <pt x="814" y="125" on="0"/>
        <pt x="917" y="191" on="0"/>
        <pt x="975" y="289" on="0"/>
        <pt x="975" y="354" on="1"/>
        <pt x="975" y="428" on="0"/>
        <pt x="904" y="531" on="0"/>
        <pt x="787" y="607" on="0"/>
        <pt x="713" y="636" on="1"/>
        <pt x="689" y="645" on="0"/>
        <pt x="664" y="655" on="1"/>
        <pt x="645" y="93" on="1"/>
        <pt x="696" y="97" on="0"/>
      </contour>
    </TTGlyph>
    <TTGlyph name="dotaccent" xMin="211" yMin="1293" xMax="325" yMax="1421">
      <contour>
        <pt x="211" y="1293" on="1"/>
        <pt x="211" y="1421" on="1"/>
        <pt x="325" y="1421" on="1"/>
        <pt x="325" y="1293" on="1"/>
      </contour>
    </TTGlyph>
    <TTGlyph name="dotlessi" xMin="193" yMin="0" xMax="317" yMax="1026">
      <contour>
        <pt x="317" y="0" on="1"/>
        <pt x="193" y="0" on="1"/>
        <pt x="193" y="1026" on="1"/>
        <pt x="317" y="1026" on="1"/>
      </contour>
    </TTGlyph>
    <TTGlyph name="e" xMin="135" yMin="-23" xMax="1085" yMax="1051">
      <contour>
        <pt x="268" y="593" on="1"/>
        <pt x="955" y="593" on="1"/>
        <pt x="955" y="595" on="1"/>
        <pt x="955" y="588" on="1"/>
        <pt x="952" y="669" on="0"/>
        <pt x="913" y="802" on="0"/>
        <pt x="835" y="898" on="0"/>
        <pt x="714" y="951" on="0"/>
        <pt x="629" y="951" on="1"/>
        <pt x="546" y="951" on="0"/>
        <pt x="418" y="894" on="0"/>
        <pt x="328" y="796" on="0"/>
        <pt x="275" y="666" on="0"/>
      </contour>
      <contour>
        <pt x="1001" y="202" on="1"/>
        <pt x="1037" y="106" on="1"/>
        <pt x="962" y="37" on="0"/>
        <pt x="763" y="-23" on="0"/>
        <pt x="638" y="-23" on="1"/>
        <pt x="519" y="-23" on="0"/>
        <pt x="332" y="56" on="0"/>
        <pt x="203" y="197" on="0"/>
        <pt x="135" y="392" on="0"/>
        <pt x="135" y="508" on="1"/>
        <pt x="135" y="619" on="0"/>
        <pt x="203" y="817" on="0"/>
        <pt x="331" y="965" on="0"/>
        <pt x="516" y="1051" on="0"/>
        <pt x="633" y="1051" on="1"/>
        <pt x="749" y="1051" on="0"/>
        <pt x="920" y="973" on="0"/>
        <pt x="1031" y="834" on="0"/>
        <pt x="1085" y="640" on="0"/>
        <pt x="1085" y="523" on="1"/>
        <pt x="1085" y="515" on="0"/>
        <pt x="1084" y="496" on="0"/>
        <pt x="1084" y="491" on="1"/>
        <pt x="266" y="491" on="1"/>
        <pt x="266" y="472" on="1"/>
        <pt x="266" y="383" on="0"/>
        <pt x="319" y="237" on="0"/>
        <pt x="419" y="133" on="0"/>
        <pt x="561" y="75" on="0"/>
        <pt x="651" y="75" on="1"/>
        <pt x="763" y="75" on="0"/>
        <pt x="941" y="141" on="0"/>
      </contour>
    </TTGlyph>
    <TTGlyph name="eacute" xMin="135" yMin="-23" xMax="1085" yMax="1508">
      <component glyphName="acute" x="86" y="0" flags="0x1004"/>
      <component glyphName="e" x="0" y="0" flags="0x1004"/>
    </TTGlyph>
    <TTGlyph name="ecircumflex" xMin="135" yMin="-23" xMax="1085" yMax="1510">
      <component glyphName="circumflex" x="214" y="0" flags="0x1004"/>
      <component glyphName="e" x="0" y="0" flags="0x1004"/>
    </TTGlyph>
    <TTGlyph name="edieresis" xMin="135" yMin="-23" xMax="1085" yMax="1421">
      <component glyphName="dieresis" x="178" y="0" flags="0x1004"/>
      <component glyphName="e" x="0" y="0" flags="0x1004"/>
    </TTGlyph>
    <TTGlyph name="egrave" xMin="135" yMin="-23" xMax="1085" yMax="1508">
      <component glyphName="e" x="0" y="0" flags="0x1204"/>
      <component glyphName="grave" x="247" y="0" flags="0x1004"/>
    </TTGlyph>
    <TTGlyph name="eight" xMin="113" yMin="-23" xMax="1097" yMax="1469">
      <contour>
        <pt x="113" y="361" on="1"/>
        <pt x="113" y="434" on="0"/>
        <pt x="162" y="560" on="0"/>
        <pt x="255" y="661" on="0"/>
        <pt x="390" y="734" on="0"/>
        <pt x="476" y="755" on="1"/>
        <pt x="476" y="758" on="1"/>
        <pt x="399" y="774" on="0"/>
        <pt x="278" y="838" on="0"/>
        <pt x="194" y="928" on="0"/>
        <pt x="150" y="1043" on="0"/>
        <pt x="150" y="1109" on="1"/>
        <pt x="150" y="1193" on="0"/>
        <pt x="226" y="1327" on="0"/>
        <pt x="355" y="1420" on="0"/>
        <pt x="524" y="1469" on="0"/>
        <pt x="616" y="1469" on="1"/>
        <pt x="704" y="1469" on="0"/>
        <pt x="864" y="1422" on="0"/>
        <pt x="986" y="1332" on="0"/>
        <pt x="1059" y="1201" on="0"/>
        <pt x="1059" y="1117" on="1"/>
        <pt x="1059" y="1053" on="0"/>
        <pt x="1013" y="940" on="0"/>
        <pt x="927" y="849" on="0"/>
        <pt x="807" y="780" on="0"/>
        <pt x="733" y="759" on="1"/>
        <pt x="733" y="756" on="1"/>
        <pt x="918" y="708" on="0"/>
        <pt x="1097" y="518" on="0"/>
        <pt x="1097" y="369" on="1"/>
        <pt x="1097" y="275" on="0"/>
        <pt x="1016" y="129" on="0"/>
        <pt x="877" y="29" on="0"/>
        <pt x="691" y="-23" on="0"/>
        <pt x="586" y="-23" on="1"/>
        <pt x="491" y="-23" on="0"/>
        <pt x="320" y="27" on="0"/>
        <pt x="190" y="125" on="0"/>
        <pt x="113" y="268" on="0"/>
      </contour>
      <contour>
        <pt x="245" y="378" on="1"/>
        <pt x="245" y="306" on="0"/>
        <pt x="300" y="196" on="0"/>
        <pt x="397" y="123" on="0"/>
        <pt x="528" y="85" on="0"/>
        <pt x="604" y="85" on="1"/>
        <pt x="680" y="85" on="0"/>
        <pt x="809" y="125" on="0"/>
        <pt x="904" y="200" on="0"/>
        <pt x="958" y="307" on="0"/>
        <pt x="958" y="374" on="1"/>
        <pt x="958" y="448" on="0"/>
        <pt x="907" y="558" on="0"/>
        <pt x="813" y="636" on="0"/>
        <pt x="680" y="685" on="0"/>
        <pt x="598" y="698" on="1"/>
        <pt x="520" y="684" on="0"/>
        <pt x="390" y="631" on="0"/>
        <pt x="297" y="551" on="0"/>
        <pt x="245" y="445" on="0"/>
      </contour>
      <contour>
        <pt x="277" y="1109" on="1"/>
        <pt x="277" y="983" on="0"/>
        <pt x="444" y="840" on="0"/>
        <pt x="604" y="814" on="1"/>
        <pt x="765" y="836" on="0"/>
        <pt x="931" y="978" on="0"/>
        <pt x="931" y="1098" on="1"/>
        <pt x="931" y="1166" on="0"/>
        <pt x="878" y="1266" on="0"/>
        <pt x="789" y="1332" on="0"/>
        <pt x="671" y="1364" on="0"/>
        <pt x="606" y="1364" on="1"/>
        <pt x="544" y="1364" on="0"/>
        <pt x="426" y="1331" on="0"/>
        <pt x="334" y="1266" on="0"/>
        <pt x="277" y="1171" on="0"/>
      </contour>
    </TTGlyph>
    <TTGlyph name="ellipsis" xMin="188" yMin="-11" xMax="1441" yMax="168">
      <contour>
        <pt x="360" y="-11" on="1"/>
        <pt x="188" y="-11" on="1"/>
        <pt x="188" y="168" on="1"/>
        <pt x="361" y="168" on="1"/>
      </contour>
      <contour>
        <pt x="900" y="-11" on="1"/>
        <pt x="728" y="-11" on="1"/>
        <pt x="728" y="168" on="1"/>
        <pt x="901" y="168" on="1"/>
      </contour>
      <contour>
        <pt x="1441" y="-11" on="1"/>
        <pt x="1268" y="-11" on="1"/>
        <pt x="1268" y="168" on="1"/>
        <pt x="1441" y="168" on="1"/>
      </contour>
    </TTGlyph>
    <TTGlyph name="emdash" xMin="2" yMin="508" xMax="2194" yMax="610">
      <contour>
        <pt x="2194" y="508" on="1"/>
        <pt x="2" y="508" on="1"/>
        <pt x="2" y="610" on="1"/>
        <pt x="2194" y="610" on="1"/>
      </contour>
    </TTGlyph>
    <TTGlyph name="endash" xMin="9" yMin="508" xMax="1089" yMax="610">
      <contour>
        <pt x="1089" y="508" on="1"/>
        <pt x="9" y="508" on="1"/>
        <pt x="9" y="610" on="1"/>
        <pt x="1089" y="610" on="1"/>
      </contour>
    </TTGlyph>
    <TTGlyph name="equal" xMin="216" yMin="292" xMax="1254" yMax="821">
      <contour>
        <pt x="1254" y="398" on="1"/>
        <pt x="1254" y="292" on="1"/>
        <pt x="218" y="292" on="1"/>
        <pt x="218" y="398" on="1"/>
      </contour>
      <contour>
        <pt x="1254" y="821" on="1"/>
        <pt x="1254" y="714" on="1"/>
        <pt x="216" y="714" on="1"/>
        <pt x="216" y="821" on="1"/>
      </contour>
    </TTGlyph>
    <TTGlyph name="eth" xMin="92" yMin="-23" xMax="1249" yMax="1539">
      <contour>
        <pt x="1071" y="1026" on="1"/>
        <pt x="1080" y="990" on="0"/>
        <pt x="1095" y="921" on="0"/>
        <pt x="1105" y="848" on="0"/>
        <pt x="1110" y="767" on="0"/>
        <pt x="1110" y="721" on="1"/>
        <pt x="1110" y="551" on="0"/>
        <pt x="1036" y="276" on="0"/>
        <pt x="895" y="82" on="0"/>
        <pt x="688" y="-23" on="0"/>
        <pt x="555" y="-23" on="1"/>
        <pt x="449" y="-23" on="0"/>
        <pt x="278" y="45" on="0"/>
        <pt x="157" y="165" on="0"/>
        <pt x="92" y="329" on="0"/>
        <pt x="92" y="424" on="1"/>
        <pt x="92" y="524" on="0"/>
        <pt x="161" y="696" on="0"/>
        <pt x="285" y="822" on="0"/>
        <pt x="460" y="894" on="0"/>
        <pt x="567" y="894" on="1"/>
        <pt x="719" y="894" on="0"/>
        <pt x="925" y="763" on="0"/>
        <pt x="972" y="638" on="1"/>
        <pt x="976" y="667" on="0"/>
        <pt x="979" y="739" on="0"/>
        <pt x="979" y="771" on="1"/>
        <pt x="979" y="840" on="0"/>
        <pt x="959" y="962" on="0"/>
        <pt x="941" y="1026" on="1"/>
        <pt x="708" y="1026" on="1"/>
        <pt x="708" y="1128" on="1"/>
        <pt x="905" y="1128" on="1"/>
        <pt x="858" y="1237" on="0"/>
        <pt x="704" y="1405" on="0"/>
        <pt x="592" y="1445" on="1"/>
        <pt x="651" y="1539" on="1"/>
        <pt x="792" y="1479" on="0"/>
        <pt x="983" y="1270" on="0"/>
        <pt x="1038" y="1128" on="1"/>
        <pt x="1249" y="1128" on="1"/>
        <pt x="1249" y="1026" on="1"/>
      </contour>
      <contour>
        <pt x="591" y="785" on="1"/>
        <pt x="495" y="785" on="0"/>
        <pt x="357" y="726" on="0"/>
        <pt x="267" y="627" on="0"/>
        <pt x="224" y="496" on="0"/>
        <pt x="224" y="425" on="1"/>
        <pt x="224" y="352" on="0"/>
        <pt x="270" y="228" on="0"/>
        <pt x="356" y="138" on="0"/>
        <pt x="476" y="87" on="0"/>
        <pt x="550" y="87" on="1"/>
        <pt x="649" y="87" on="0"/>
        <pt x="796" y="164" on="0"/>
        <pt x="893" y="291" on="0"/>
        <pt x="941" y="457" on="0"/>
        <pt x="941" y="546" on="1"/>
        <pt x="926" y="598" on="0"/>
        <pt x="862" y="686" on="0"/>
        <pt x="771" y="749" on="0"/>
        <pt x="656" y="785" on="0"/>
      </contour>
    </TTGlyph>
    <TTGlyph name="exclam" xMin="277" yMin="-23" xMax="465" yMax="1467">
      <contour>
        <pt x="287" y="152" on="1"/>
        <pt x="465" y="152" on="1"/>
        <pt x="465" y="-23" on="1"/>
        <pt x="277" y="-23" on="1"/>
      </contour>
      <contour>
        <pt x="450" y="385" on="1"/>
        <pt x="318" y="385" on="1"/>
        <pt x="318" y="1467" on="1"/>
        <pt x="450" y="1467" on="1"/>
      </contour>
    </TTGlyph>
    <TTGlyph name="exclamdown" xMin="280" yMin="-256" xMax="468" yMax="1234">
      <contour>
        <pt x="458" y="1059" on="1"/>
        <pt x="280" y="1059" on="1"/>
        <pt x="280" y="1234" on="1"/>
        <pt x="468" y="1234" on="1"/>
      </contour>
      <contour>
        <pt x="295" y="826" on="1"/>
        <pt x="427" y="826" on="1"/>
        <pt x="427" y="-256" on="1"/>
        <pt x="295" y="-256" on="1"/>
      </contour>
    </TTGlyph>
    <TTGlyph name="f" xMin="68" yMin="0" xMax="679" yMax="1533">
      <contour>
        <pt x="399" y="0" on="1"/>
        <pt x="275" y="0" on="1"/>
        <pt x="275" y="944" on="1"/>
        <pt x="68" y="944" on="1"/>
        <pt x="68" y="1026" on="1"/>
        <pt x="275" y="1026" on="1"/>
        <pt x="275" y="1190" on="1"/>
        <pt x="273" y="1271" on="0"/>
        <pt x="306" y="1398" on="0"/>
        <pt x="376" y="1487" on="0"/>
        <pt x="485" y="1533" on="0"/>
        <pt x="561" y="1533" on="1"/>
        <pt x="583" y="1533" on="0"/>
        <pt x="615" y="1530" on="0"/>
        <pt x="641" y="1526" on="0"/>
        <pt x="664" y="1519" on="0"/>
        <pt x="679" y="1515" on="1"/>
        <pt x="678" y="1419" on="1"/>
        <pt x="666" y="1423" on="0"/>
        <pt x="623" y="1429" on="0"/>
        <pt x="587" y="1429" on="1"/>
        <pt x="527" y="1429" on="0"/>
        <pt x="451" y="1398" on="0"/>
        <pt x="409" y="1336" on="0"/>
        <pt x="398" y="1246" on="0"/>
        <pt x="399" y="1187" on="1"/>
        <pt x="399" y="1026" on="1"/>
        <pt x="654" y="1026" on="1"/>
        <pt x="654" y="944" on="1"/>
        <pt x="399" y="944" on="1"/>
      </contour>
    </TTGlyph>
    <TTGlyph name="fi" xMin="68" yMin="0" xMax="1020" yMax="1533">
      <contour>
        <pt x="397" y="1026" on="1"/>
        <pt x="1020" y="1026" on="1"/>
        <pt x="1020" y="0" on="1"/>
        <pt x="895" y="0" on="1"/>
        <pt x="895" y="944" on="1"/>
        <pt x="399" y="944" on="1"/>
        <pt x="399" y="0" on="1"/>
        <pt x="272" y="0" on="1"/>
        <pt x="272" y="944" on="1"/>
        <pt x="68" y="944" on="1"/>
        <pt x="68" y="1026" on="1"/>
        <pt x="276" y="1026" on="1"/>
        <pt x="274" y="1160" on="1"/>
        <pt x="274" y="1168" on="0"/>
        <pt x="273" y="1182" on="0"/>
        <pt x="273" y="1190" on="1"/>
        <pt x="273" y="1271" on="0"/>
        <pt x="306" y="1398" on="0"/>
        <pt x="376" y="1487" on="0"/>
        <pt x="485" y="1533" on="0"/>
        <pt x="561" y="1533" on="1"/>
        <pt x="583" y="1533" on="0"/>
        <pt x="615" y="1530" on="0"/>
        <pt x="641" y="1526" on="0"/>
        <pt x="664" y="1519" on="0"/>
        <pt x="679" y="1515" on="1"/>
        <pt x="678" y="1419" on="1"/>
        <pt x="666" y="1423" on="0"/>
        <pt x="623" y="1429" on="0"/>
        <pt x="587" y="1429" on="1"/>
        <pt x="527" y="1429" on="0"/>
        <pt x="451" y="1398" on="0"/>
        <pt x="409" y="1336" on="0"/>
        <pt x="394" y="1246" on="0"/>
        <pt x="394" y="1187" on="1"/>
      </contour>
      <contour>
        <pt x="1017" y="1478" on="1"/>
        <pt x="1017" y="1354" on="1"/>
        <pt x="902" y="1354" on="1"/>
        <pt x="902" y="1478" on="1"/>
      </contour>
    </TTGlyph>
    <TTGlyph name="five" xMin="203" yMin="-23" xMax="1072" yMax="1441">
      <contour>
        <pt x="254" y="214" on="1"/>
        <pt x="317" y="148" on="0"/>
        <pt x="469" y="85" on="0"/>
        <pt x="557" y="85" on="1"/>
        <pt x="648" y="85" on="0"/>
        <pt x="791" y="143" on="0"/>
        <pt x="888" y="242" on="0"/>
        <pt x="939" y="376" on="0"/>
        <pt x="939" y="451" on="1"/>
        <pt x="939" y="519" on="0"/>
        <pt x="895" y="641" on="0"/>
        <pt x="810" y="732" on="0"/>
        <pt x="685" y="786" on="0"/>
        <pt x="604" y="786" on="1"/>
        <pt x="516" y="786" on="0"/>
        <pt x="377" y="731" on="0"/>
        <pt x="339" y="683" on="1"/>
        <pt x="325" y="683" on="0"/>
        <pt x="279" y="682" on="0"/>
        <pt x="257" y="682" on="1"/>
        <pt x="203" y="682" on="1"/>
        <pt x="203" y="1441" on="1"/>
        <pt x="996" y="1441" on="1"/>
        <pt x="996" y="1327" on="1"/>
        <pt x="345" y="1327" on="1"/>
        <pt x="330" y="811" on="1"/>
        <pt x="356" y="834" on="0"/>
        <pt x="422" y="868" on="0"/>
        <pt x="495" y="891" on="0"/>
        <pt x="573" y="902" on="0"/>
        <pt x="612" y="902" on="1"/>
        <pt x="719" y="902" on="0"/>
        <pt x="890" y="834" on="0"/>
        <pt x="1009" y="713" on="0"/>
        <pt x="1072" y="547" on="0"/>
        <pt x="1072" y="448" on="1"/>
        <pt x="1072" y="347" on="0"/>
        <pt x="1001" y="175" on="0"/>
        <pt x="868" y="49" on="0"/>
        <pt x="677" y="-23" on="0"/>
        <pt x="557" y="-23" on="1"/>
        <pt x="458" y="-23" on="0"/>
        <pt x="277" y="41" on="0"/>
        <pt x="206" y="110" on="1"/>
      </contour>
    </TTGlyph>
    <TTGlyph name="fl" xMin="68" yMin="0" xMax="1018" yMax="1533">
      <component glyphName="f" x="0" y="0" flags="0x1004"/>
      <component glyphName="l" x="702" y="0" flags="0x1004"/>
    </TTGlyph>
    <TTGlyph name="florin" xMin="67" yMin="0" xMax="678" yMax="1533">
      <contour>
        <pt x="398" y="0" on="1"/>
        <pt x="272" y="0" on="1"/>
        <pt x="272" y="920" on="1"/>
        <pt x="67" y="920" on="1"/>
        <pt x="67" y="1026" on="1"/>
        <pt x="275" y="1026" on="1"/>
        <pt x="273" y="1160" on="1"/>
        <pt x="273" y="1168" on="0"/>
        <pt x="272" y="1182" on="0"/>
        <pt x="272" y="1190" on="1"/>
        <pt x="272" y="1271" on="0"/>
        <pt x="305" y="1398" on="0"/>
        <pt x="375" y="1487" on="0"/>
        <pt x="484" y="1533" on="0"/>
        <pt x="560" y="1533" on="1"/>
        <pt x="582" y="1533" on="0"/>
        <pt x="614" y="1530" on="0"/>
        <pt x="640" y="1526" on="0"/>
        <pt x="663" y="1519" on="0"/>
        <pt x="678" y="1515" on="1"/>
        <pt x="677" y="1419" on="1"/>
        <pt x="665" y="1423" on="0"/>
        <pt x="622" y="1429" on="0"/>
        <pt x="586" y="1429" on="1"/>
        <pt x="526" y="1429" on="0"/>
        <pt x="450" y="1398" on="0"/>
        <pt x="408" y="1336" on="0"/>
        <pt x="393" y="1246" on="0"/>
        <pt x="393" y="1187" on="1"/>
        <pt x="395" y="1026" on="1"/>
        <pt x="653" y="1026" on="1"/>
        <pt x="653" y="920" on="1"/>
        <pt x="398" y="920" on="1"/>
      </contour>
    </TTGlyph>
    <TTGlyph name="four" xMin="41" yMin="0" xMax="1119" yMax="1436">
      <contour>
        <pt x="769" y="0" on="1"/>
        <pt x="769" y="363" on="1"/>
        <pt x="41" y="363" on="1"/>
        <pt x="41" y="469" on="1"/>
        <pt x="721" y="1436" on="1"/>
        <pt x="897" y="1436" on="1"/>
        <pt x="897" y="464" on="1"/>
        <pt x="1119" y="464" on="1"/>
        <pt x="1119" y="363" on="1"/>
        <pt x="893" y="363" on="1"/>
        <pt x="893" y="0" on="1"/>
      </contour>
      <contour>
        <pt x="765" y="464" on="1"/>
        <pt x="765" y="1348" on="1"/>
        <pt x="657" y="1180" on="1"/>
        <pt x="151" y="464" on="1"/>
      </contour>
    </TTGlyph>
    <TTGlyph name="foursuperior" xMin="-8" yMin="639" xMax="593" yMax="1428">
      <contour>
        <pt x="384" y="639" on="1"/>
        <pt x="384" y="835" on="1"/>
        <pt x="-8" y="835" on="1"/>
        <pt x="-8" y="903" on="1"/>
        <pt x="362" y="1428" on="1"/>
        <pt x="470" y="1428" on="1"/>
        <pt x="470" y="906" on="1"/>
        <pt x="587" y="906" on="1"/>
        <pt x="593" y="835" on="1"/>
        <pt x="468" y="835" on="1"/>
        <pt x="468" y="794" on="1"/>
        <pt x="468" y="680" on="1"/>
        <pt x="468" y="639" on="1"/>
      </contour>
      <contour>
        <pt x="382" y="906" on="1"/>
        <pt x="381" y="1343" on="1"/>
        <pt x="370" y="1326" on="0"/>
        <pt x="351" y="1294" on="0"/>
        <pt x="340" y="1277" on="1"/>
        <pt x="76" y="906" on="1"/>
      </contour>
    </TTGlyph>
    <TTGlyph name="fraction" xMin="-312" yMin="0" xMax="701" yMax="1452">
      <contour>
        <pt x="701" y="1452" on="1"/>
        <pt x="-214" y="0" on="1"/>
        <pt x="-312" y="0" on="1"/>
        <pt x="605" y="1452" on="1"/>
      </contour>
    </TTGlyph>
    <TTGlyph name="g" xMin="111" yMin="-438" xMax="1086" yMax="1051">
      <contour>
        <pt x="962" y="1026" on="1"/>
        <pt x="1086" y="1026" on="1"/>
        <pt x="1086" y="782" on="1"/>
        <pt x="1086" y="135" on="1"/>
        <pt x="1086" y="60" on="0"/>
        <pt x="1068" y="-74" on="0"/>
        <pt x="1029" y="-202" on="0"/>
        <pt x="957" y="-311" on="0"/>
        <pt x="841" y="-392" on="0"/>
        <pt x="673" y="-438" on="0"/>
        <pt x="557" y="-438" on="1"/>
        <pt x="460" y="-438" on="0"/>
        <pt x="281" y="-401" on="0"/>
        <pt x="206" y="-362" on="1"/>
        <pt x="218" y="-246" on="1"/>
        <pt x="291" y="-288" on="0"/>
        <pt x="460" y="-329" on="0"/>
        <pt x="548" y="-329" on="1"/>
        <pt x="743" y="-329" on="0"/>
        <pt x="952" y="-154" on="0"/>
        <pt x="957" y="33" on="1"/>
        <pt x="962" y="251" on="1"/>
        <pt x="905" y="124" on="0"/>
        <pt x="699" y="0" on="0"/>
        <pt x="569" y="0" on="1"/>
        <pt x="461" y="0" on="0"/>
        <pt x="291" y="74" on="0"/>
        <pt x="173" y="207" on="0"/>
        <pt x="111" y="395" on="0"/>
        <pt x="111" y="509" on="1"/>
        <pt x="111" y="620" on="0"/>
        <pt x="170" y="817" on="0"/>
        <pt x="289" y="965" on="0"/>
        <pt x="466" y="1051" on="0"/>
        <pt x="585" y="1051" on="1"/>
        <pt x="649" y="1051" on="0"/>
        <pt x="759" y="1018" on="0"/>
        <pt x="852" y="959" on="0"/>
        <pt x="929" y="876" on="0"/>
        <pt x="959" y="826" on="1"/>
      </contour>
      <contour>
        <pt x="959" y="551" on="1"/>
        <pt x="959" y="633" on="0"/>
        <pt x="910" y="779" on="0"/>
        <pt x="818" y="888" on="0"/>
        <pt x="686" y="951" on="0"/>
        <pt x="604" y="951" on="1"/>
        <pt x="514" y="951" on="0"/>
        <pt x="378" y="880" on="0"/>
        <pt x="287" y="760" on="0"/>
        <pt x="241" y="602" on="0"/>
        <pt x="241" y="516" on="1"/>
        <pt x="241" y="421" on="0"/>
        <pt x="278" y="269" on="0"/>
        <pt x="363" y="162" on="0"/>
        <pt x="501" y="104" on="0"/>
        <pt x="602" y="104" on="1"/>
        <pt x="669" y="104" on="0"/>
        <pt x="774" y="139" on="0"/>
        <pt x="853" y="200" on="0"/>
        <pt x="908" y="284" on="0"/>
        <pt x="943" y="383" on="0"/>
        <pt x="959" y="494" on="0"/>
      </contour>
    </TTGlyph>
    <TTGlyph name="germandbls" xMin="194" yMin="-23" xMax="1179" yMax="1530">
      <contour>
        <pt x="316" y="0" on="1"/>
        <pt x="195" y="0" on="1"/>
        <pt x="194" y="1093" on="1"/>
        <pt x="194" y="1192" on="0"/>
        <pt x="250" y="1353" on="0"/>
        <pt x="358" y="1467" on="0"/>
        <pt x="514" y="1530" on="0"/>
        <pt x="615" y="1530" on="1"/>
        <pt x="708" y="1530" on="0"/>
        <pt x="856" y="1481" on="0"/>
        <pt x="958" y="1395" on="0"/>
        <pt x="1012" y="1281" on="0"/>
        <pt x="1012" y="1216" on="1"/>
        <pt x="1012" y="1169" on="0"/>
        <pt x="981" y="1083" on="0"/>
        <pt x="931" y="1007" on="0"/>
        <pt x="867" y="943" on="0"/>
        <pt x="802" y="891" on="0"/>
        <pt x="742" y="852" on="0"/>
        <pt x="720" y="841" on="1"/>
        <pt x="709" y="833" on="0"/>
        <pt x="702" y="825" on="0"/>
        <pt x="702" y="817" on="1"/>
        <pt x="702" y="806" on="0"/>
        <pt x="713" y="796" on="0"/>
        <pt x="726" y="791" on="1"/>
        <pt x="778" y="770" on="0"/>
        <pt x="886" y="723" on="0"/>
        <pt x="987" y="664" on="0"/>
        <pt x="1075" y="593" on="0"/>
        <pt x="1141" y="506" on="0"/>
        <pt x="1179" y="400" on="0"/>
        <pt x="1179" y="336" on="1"/>
        <pt x="1179" y="255" on="0"/>
        <pt x="1116" y="123" on="0"/>
        <pt x="1013" y="29" on="0"/>
        <pt x="879" y="-23" on="0"/>
        <pt x="807" y="-23" on="1"/>
        <pt x="722" y="-23" on="0"/>
        <pt x="566" y="47" on="0"/>
        <pt x="506" y="126" on="1"/>
        <pt x="549" y="193" on="1"/>
        <pt x="600" y="133" on="0"/>
        <pt x="736" y="75" on="0"/>
        <pt x="806" y="75" on="1"/>
        <pt x="852" y="75" on="0"/>
        <pt x="936" y="106" on="0"/>
        <pt x="999" y="167" on="0"/>
        <pt x="1036" y="256" on="0"/>
        <pt x="1036" y="315" on="1"/>
        <pt x="1036" y="403" on="0"/>
        <pt x="960" y="535" on="0"/>
        <pt x="838" y="639" on="0"/>
        <pt x="685" y="727" on="0"/>
        <pt x="607" y="772" on="1"/>
        <pt x="625" y="895" on="1"/>
        <pt x="672" y="917" on="0"/>
        <pt x="760" y="981" on="0"/>
        <pt x="827" y="1062" on="0"/>
        <pt x="868" y="1160" on="0"/>
        <pt x="868" y="1215" on="1"/>
        <pt x="868" y="1266" on="0"/>
        <pt x="832" y="1347" on="0"/>
        <pt x="765" y="1402" on="0"/>
        <pt x="670" y="1432" on="0"/>
        <pt x="612" y="1432" on="1"/>
        <pt x="529" y="1432" on="0"/>
        <pt x="416" y="1379" on="0"/>
        <pt x="346" y="1282" on="0"/>
        <pt x="314" y="1143" on="0"/>
        <pt x="314" y="1057" on="1"/>
      </contour>
    </TTGlyph>
    <TTGlyph name="grave" xMin="48" yMin="1216" xMax="435" yMax="1508">
      <contour>
        <pt x="48" y="1508" on="1"/>
        <pt x="206" y="1508" on="1"/>
        <pt x="435" y="1216" on="1"/>
        <pt x="353" y="1216" on="1"/>
      </contour>
    </TTGlyph>
    <TTGlyph name="greater" xMin="237" yMin="77" xMax="1236" yMax="1066">
      <contour>
        <pt x="1083" y="552" on="1"/>
        <pt x="241" y="951" on="1"/>
        <pt x="241" y="1066" on="1"/>
        <pt x="1236" y="588" on="1"/>
        <pt x="1230" y="517" on="1"/>
        <pt x="237" y="77" on="1"/>
        <pt x="237" y="187" on="1"/>
      </contour>
    </TTGlyph>
    <TTGlyph name="greaterequal" xMin="262" yMin="9" xMax="1253" yMax="1213">
      <contour>
        <pt x="262" y="100" on="1"/>
        <pt x="1239" y="100" on="1"/>
        <pt x="1253" y="9" on="1"/>
        <pt x="262" y="9" on="1"/>
      </contour>
      <contour>
        <pt x="289" y="341" on="1"/>
        <pt x="1093" y="707" on="1"/>
        <pt x="1093" y="721" on="1"/>
        <pt x="304" y="1110" on="1"/>
        <pt x="287" y="1213" on="1"/>
        <pt x="1222" y="747" on="1"/>
        <pt x="1227" y="682" on="1"/>
        <pt x="306" y="241" on="1"/>
      </contour>
    </TTGlyph>
    <TTGlyph name="guillemotleft" xMin="174" yMin="177" xMax="854" yMax="911">
      <contour>
        <pt x="744" y="911" on="1"/>
        <pt x="854" y="911" on="1"/>
        <pt x="595" y="541" on="1"/>
        <pt x="847" y="177" on="1"/>
        <pt x="740" y="177" on="1"/>
        <pt x="475" y="541" on="1"/>
      </contour>
      <contour>
        <pt x="445" y="911" on="1"/>
        <pt x="551" y="911" on="1"/>
        <pt x="294" y="541" on="1"/>
        <pt x="546" y="177" on="1"/>
        <pt x="439" y="177" on="1"/>
        <pt x="174" y="541" on="1"/>
      </contour>
    </TTGlyph>
    <TTGlyph name="guillemotright" xMin="204" yMin="177" xMax="996" yMax="911">
      <contour>
        <pt x="722" y="177" on="1"/>
        <pt x="615" y="177" on="1"/>
        <pt x="874" y="542" on="1"/>
        <pt x="620" y="911" on="1"/>
        <pt x="729" y="911" on="1"/>
        <pt x="996" y="542" on="1"/>
      </contour>
      <contour>
        <pt x="312" y="177" on="1"/>
        <pt x="204" y="177" on="1"/>
        <pt x="464" y="542" on="1"/>
        <pt x="209" y="911" on="1"/>
        <pt x="318" y="911" on="1"/>
        <pt x="584" y="542" on="1"/>
      </contour>
    </TTGlyph>
    <TTGlyph name="guilsinglleft" xMin="131" yMin="177" xMax="511" yMax="911">
      <contour>
        <pt x="402" y="911" on="1"/>
        <pt x="511" y="911" on="1"/>
        <pt x="251" y="541" on="1"/>
        <pt x="502" y="177" on="1"/>
        <pt x="396" y="177" on="1"/>
        <pt x="131" y="541" on="1"/>
      </contour>
    </TTGlyph>
    <TTGlyph name="guilsinglright" xMin="142" yMin="177" xMax="525" yMax="911">
      <contour>
        <pt x="250" y="177" on="1"/>
        <pt x="142" y="177" on="1"/>
        <pt x="402" y="542" on="1"/>
        <pt x="148" y="911" on="1"/>
        <pt x="257" y="911" on="1"/>
        <pt x="525" y="542" on="1"/>
      </contour>
    </TTGlyph>
    <TTGlyph name="h" xMin="189" yMin="0" xMax="1057" yMax="1508">
      <contour>
        <pt x="313" y="1508" on="1"/>
        <pt x="313" y="825" on="1"/>
        <pt x="379" y="943" on="0"/>
        <pt x="564" y="1051" on="0"/>
        <pt x="695" y="1051" on="1"/>
        <pt x="795" y="1051" on="0"/>
        <pt x="929" y="988" on="0"/>
        <pt x="1011" y="884" on="0"/>
        <pt x="1050" y="752" on="0"/>
        <pt x="1055" y="683" on="1"/>
        <pt x="1057" y="639" on="1"/>
        <pt x="1057" y="0" on="1"/>
        <pt x="933" y="0" on="1"/>
        <pt x="933" y="530" on="1"/>
        <pt x="933" y="567" on="0"/>
        <pt x="931" y="656" on="0"/>
        <pt x="931" y="657" on="1"/>
        <pt x="924" y="799" on="0"/>
        <pt x="785" y="951" on="0"/>
        <pt x="647" y="951" on="1"/>
        <pt x="564" y="951" on="0"/>
        <pt x="439" y="895" on="0"/>
        <pt x="355" y="797" on="0"/>
        <pt x="312" y="664" on="0"/>
        <pt x="313" y="588" on="1"/>
        <pt x="313" y="0" on="1"/>
        <pt x="189" y="0" on="1"/>
        <pt x="189" y="1508" on="1"/>
      </contour>
    </TTGlyph>
    <TTGlyph name="hungarumlaut" xMin="199" yMin="1218" xMax="800" yMax="1503">
      <contour>
        <pt x="479" y="1218" on="1"/>
        <pt x="677" y="1503" on="1"/>
        <pt x="800" y="1503" on="1"/>
        <pt x="546" y="1218" on="1"/>
      </contour>
      <contour>
        <pt x="199" y="1218" on="1"/>
        <pt x="398" y="1503" on="1"/>
        <pt x="518" y="1503" on="1"/>
        <pt x="268" y="1218" on="1"/>
      </contour>
    </TTGlyph>
    <TTGlyph name="hyphen" xMin="100" yMin="508" xMax="645" yMax="610">
      <contour>
        <pt x="100" y="508" on="1"/>
        <pt x="100" y="610" on="1"/>
        <pt x="645" y="610" on="1"/>
        <pt x="645" y="508" on="1"/>
      </contour>
    </TTGlyph>
    <TTGlyph name="i" xMin="193" yMin="0" xMax="317" yMax="1478">
      <contour>
        <pt x="315" y="1478" on="1"/>
        <pt x="315" y="1354" on="1"/>
        <pt x="200" y="1354" on="1"/>
        <pt x="200" y="1478" on="1"/>
      </contour>
      <contour>
        <pt x="193" y="1026" on="1"/>
        <pt x="317" y="1026" on="1"/>
        <pt x="317" y="0" on="1"/>
        <pt x="193" y="0" on="1"/>
      </contour>
    </TTGlyph>
    <TTGlyph name="iacute" xMin="89" yMin="0" xMax="454" yMax="1508">
      <component glyphName="acute" x="-248" y="0" flags="0x1004"/>
      <component glyphName="dotlessi" x="0" y="0" flags="0x1004"/>
    </TTGlyph>
    <TTGlyph name="icircumflex" xMin="-41" yMin="0" xMax="511" yMax="1510">
      <component glyphName="circumflex" x="-184" y="0" flags="0x1004"/>
      <component glyphName="dotlessi" x="0" y="0" flags="0x1004"/>
    </TTGlyph>
    <TTGlyph name="idieresis" xMin="13" yMin="0" xMax="508" yMax="1421">
      <component glyphName="dieresis" x="-192" y="0" flags="0x1004"/>
      <component glyphName="dotlessi" x="0" y="0" flags="0x1004"/>
    </TTGlyph>
    <TTGlyph name="igrave" xMin="-39" yMin="0" xMax="348" yMax="1508">
      <component glyphName="dotlessi" x="0" y="0" flags="0x1204"/>
      <component glyphName="grave" x="-87" y="0" flags="0x1004"/>
    </TTGlyph>
    <TTGlyph name="integral" xMin="-12" yMin="-371" xMax="678" yMax="1533">
      <contour>
        <pt x="273" y="1160" on="1"/>
        <pt x="273" y="1241" on="0"/>
        <pt x="298" y="1377" on="0"/>
        <pt x="362" y="1477" on="0"/>
        <pt x="473" y="1533" on="0"/>
        <pt x="560" y="1533" on="1"/>
        <pt x="582" y="1533" on="0"/>
        <pt x="614" y="1530" on="0"/>
        <pt x="640" y="1526" on="0"/>
        <pt x="664" y="1519" on="0"/>
        <pt x="678" y="1515" on="1"/>
        <pt x="677" y="1419" on="1"/>
        <pt x="665" y="1423" on="0"/>
        <pt x="622" y="1429" on="0"/>
        <pt x="586" y="1429" on="1"/>
        <pt x="526" y="1429" on="0"/>
        <pt x="451" y="1398" on="0"/>
        <pt x="408" y="1336" on="0"/>
        <pt x="393" y="1246" on="0"/>
        <pt x="393" y="1187" on="1"/>
        <pt x="392" y="2" on="1"/>
        <pt x="392" y="-79" on="0"/>
        <pt x="367" y="-215" on="0"/>
        <pt x="303" y="-315" on="0"/>
        <pt x="192" y="-371" on="0"/>
        <pt x="105" y="-371" on="1"/>
        <pt x="82" y="-371" on="0"/>
        <pt x="51" y="-368" on="0"/>
        <pt x="26" y="-364" on="0"/>
        <pt x="3" y="-357" on="0"/>
        <pt x="-12" y="-353" on="1"/>
        <pt x="-11" y="-257" on="1"/>
        <pt x="1" y="-261" on="0"/>
        <pt x="43" y="-267" on="0"/>
        <pt x="79" y="-267" on="1"/>
        <pt x="139" y="-267" on="0"/>
        <pt x="214" y="-236" on="0"/>
        <pt x="257" y="-174" on="0"/>
        <pt x="272" y="-84" on="0"/>
        <pt x="272" y="-25" on="1"/>
      </contour>
    </TTGlyph>
    <TTGlyph name="j" xMin="-82" yMin="-445" xMax="326" yMax="1478">
      <contour>
        <pt x="-82" y="-323" on="1"/>
        <pt x="-64" y="-325" on="0"/>
        <pt x="-33" y="-330" on="0"/>
        <pt x="-17" y="-330" on="1"/>
        <pt x="44" y="-330" on="0"/>
        <pt x="127" y="-290" on="0"/>
        <pt x="178" y="-206" on="0"/>
        <pt x="201" y="-77" on="0"/>
        <pt x="202" y="12" on="1"/>
        <pt x="202" y="1026" on="1"/>
        <pt x="326" y="1026" on="1"/>
        <pt x="326" y="105" on="1"/>
        <pt x="326" y="-38" on="0"/>
        <pt x="306" y="-206" on="0"/>
        <pt x="241" y="-357" on="0"/>
        <pt x="120" y="-445" on="0"/>
        <pt x="19" y="-445" on="1"/>
        <pt x="-30" y="-445" on="0"/>
        <pt x="-80" y="-435" on="1"/>
      </contour>
      <contour>
        <pt x="317" y="1478" on="1"/>
        <pt x="317" y="1354" on="1"/>
        <pt x="201" y="1354" on="1"/>
        <pt x="201" y="1478" on="1"/>
      </contour>
    </TTGlyph>
    <TTGlyph name="k" xMin="193" yMin="0" xMax="1050" yMax="1508">
      <contour>
        <pt x="1050" y="0" on="1"/>
        <pt x="884" y="0" on="1"/>
        <pt x="317" y="535" on="1"/>
        <pt x="317" y="0" on="1"/>
        <pt x="193" y="0" on="1"/>
        <pt x="193" y="1508" on="1"/>
        <pt x="317" y="1508" on="1"/>
        <pt x="317" y="569" on="1"/>
        <pt x="843" y="1026" on="1"/>
        <pt x="1006" y="1026" on="1"/>
        <pt x="459" y="545" on="1"/>
      </contour>
    </TTGlyph>
    <TTGlyph name="l" xMin="192" yMin="0" xMax="316" yMax="1508">
      <contour>
        <pt x="316" y="1508" on="1"/>
        <pt x="316" y="0" on="1"/>
        <pt x="192" y="0" on="1"/>
        <pt x="192" y="1508" on="1"/>
      </contour>
    </TTGlyph>
    <TTGlyph name="less" xMin="237" yMin="64" xMax="1234" yMax="1055">
      <contour>
        <pt x="398" y="552" on="1"/>
        <pt x="1230" y="178" on="1"/>
        <pt x="1230" y="64" on="1"/>
        <pt x="237" y="514" on="1"/>
        <pt x="242" y="589" on="1"/>
        <pt x="1234" y="1055" on="1"/>
        <pt x="1234" y="939" on="1"/>
      </contour>
    </TTGlyph>
    <TTGlyph name="lessequal" xMin="189" yMin="9" xMax="1180" yMax="1213">
      <contour>
        <pt x="1180" y="9" on="1"/>
        <pt x="189" y="9" on="1"/>
        <pt x="203" y="100" on="1"/>
        <pt x="1180" y="100" on="1"/>
      </contour>
      <contour>
        <pt x="1136" y="241" on="1"/>
        <pt x="217" y="682" on="1"/>
        <pt x="217" y="747" on="1"/>
        <pt x="1157" y="1213" on="1"/>
        <pt x="1140" y="1110" on="1"/>
        <pt x="351" y="721" on="1"/>
        <pt x="351" y="707" on="1"/>
        <pt x="1153" y="341" on="1"/>
      </contour>
    </TTGlyph>
    <TTGlyph name="logicalnot" xMin="219" yMin="247" xMax="1257" yMax="789">
      <contour>
        <pt x="1149" y="247" on="1"/>
        <pt x="1149" y="684" on="1"/>
        <pt x="219" y="684" on="1"/>
        <pt x="219" y="789" on="1"/>
        <pt x="1257" y="789" on="1"/>
        <pt x="1257" y="247" on="1"/>
      </contour>
    </TTGlyph>
    <TTGlyph name="lozenge" xMin="134" yMin="-48" xMax="1133" yMax="1486">
      <contour>
        <pt x="1133" y="718" on="1"/>
        <pt x="666" y="-48" on="1"/>
        <pt x="588" y="-48" on="1"/>
        <pt x="134" y="717" on="1"/>
        <pt x="598" y="1486" on="1"/>
        <pt x="677" y="1486" on="1"/>
      </contour>
      <contour>
        <pt x="233" y="722" on="1"/>
        <pt x="537" y="199" on="1"/>
        <pt x="628" y="36" on="1"/>
        <pt x="718" y="199" on="1"/>
        <pt x="1032" y="717" on="1"/>
        <pt x="721" y="1263" on="1"/>
        <pt x="638" y="1412" on="1"/>
        <pt x="551" y="1263" on="1"/>
      </contour>
    </TTGlyph>
    <TTGlyph name="lslash" xMin="-24" yMin="0" xMax="549" yMax="1508">
      <contour>
        <pt x="315" y="1508" on="1"/>
        <pt x="315" y="758" on="1"/>
        <pt x="549" y="862" on="1"/>
        <pt x="549" y="760" on="1"/>
        <pt x="314" y="657" on="1"/>
        <pt x="314" y="0" on="1"/>
        <pt x="193" y="0" on="1"/>
        <pt x="193" y="604" on="1"/>
        <pt x="-24" y="508" on="1"/>
        <pt x="-24" y="610" on="1"/>
        <pt x="194" y="705" on="1"/>
        <pt x="194" y="1508" on="1"/>
      </contour>
    </TTGlyph>
    <TTGlyph name="m" xMin="174" yMin="0" xMax="1755" yMax="1051">
      <contour>
        <pt x="303" y="1026" on="1"/>
        <pt x="308" y="829" on="1"/>
        <pt x="331" y="886" on="0"/>
        <pt x="407" y="970" on="0"/>
        <pt x="504" y="1024" on="0"/>
        <pt x="616" y="1051" on="0"/>
        <pt x="675" y="1051" on="1"/>
        <pt x="739" y="1051" on="0"/>
        <pt x="851" y="1015" on="0"/>
        <pt x="939" y="950" on="0"/>
        <pt x="998" y="859" on="0"/>
        <pt x="1010" y="805" on="1"/>
        <pt x="1032" y="868" on="0"/>
        <pt x="1107" y="961" on="0"/>
        <pt x="1207" y="1021" on="0"/>
        <pt x="1330" y="1051" on="0"/>
        <pt x="1401" y="1051" on="1"/>
        <pt x="1482" y="1051" on="0"/>
        <pt x="1598" y="1009" on="0"/>
        <pt x="1677" y="941" on="0"/>
        <pt x="1724" y="853" on="0"/>
        <pt x="1748" y="761" on="0"/>
        <pt x="1755" y="673" on="0"/>
        <pt x="1755" y="639" on="1"/>
        <pt x="1755" y="0" on="1"/>
        <pt x="1631" y="0" on="1"/>
        <pt x="1631" y="561" on="1"/>
        <pt x="1631" y="655" on="0"/>
        <pt x="1607" y="801" on="0"/>
        <pt x="1544" y="900" on="0"/>
        <pt x="1435" y="951" on="0"/>
        <pt x="1349" y="951" on="1"/>
        <pt x="1271" y="951" on="0"/>
        <pt x="1152" y="893" on="0"/>
        <pt x="1072" y="795" on="0"/>
        <pt x="1028" y="663" on="0"/>
        <pt x="1028" y="590" on="1"/>
        <pt x="1028" y="0" on="1"/>
        <pt x="904" y="0" on="1"/>
        <pt x="904" y="638" on="1"/>
        <pt x="904" y="792" on="0"/>
        <pt x="758" y="951" on="0"/>
        <pt x="620" y="951" on="1"/>
        <pt x="542" y="951" on="0"/>
        <pt x="424" y="896" on="0"/>
        <pt x="346" y="798" on="0"/>
        <pt x="303" y="666" on="0"/>
        <pt x="303" y="590" on="1"/>
        <pt x="303" y="0" on="1"/>
        <pt x="179" y="0" on="1"/>
        <pt x="179" y="770" on="1"/>
        <pt x="179" y="787" on="0"/>
        <pt x="178" y="915" on="0"/>
        <pt x="174" y="1026" on="1"/>
      </contour>
    </TTGlyph>
    <TTGlyph name="minus" xMin="219" yMin="684" xMax="1257" yMax="789">
      <contour>
        <pt x="1257" y="684" on="1"/>
        <pt x="219" y="684" on="1"/>
        <pt x="219" y="789" on="1"/>
        <pt x="1257" y="789" on="1"/>
      </contour>
    </TTGlyph>
    <TTGlyph name="mu" xMin="174" yMin="-166" xMax="1049" yMax="1026">
      <contour>
        <pt x="926" y="1026" on="1"/>
        <pt x="1046" y="1026" on="1"/>
        <pt x="1045" y="237" on="1"/>
        <pt x="1045" y="222" on="0"/>
        <pt x="1044" y="192" on="0"/>
        <pt x="1044" y="175" on="1"/>
        <pt x="1044" y="131" on="0"/>
        <pt x="1047" y="42" on="0"/>
        <pt x="1049" y="0" on="1"/>
        <pt x="925" y="0" on="1"/>
        <pt x="924" y="203" on="1"/>
        <pt x="870" y="85" on="0"/>
        <pt x="681" y="-23" on="0"/>
        <pt x="546" y="-23" on="1"/>
        <pt x="458" y="-23" on="0"/>
        <pt x="334" y="23" on="0"/>
        <pt x="292" y="65" on="1"/>
        <pt x="291" y="-166" on="1"/>
        <pt x="174" y="-166" on="1"/>
        <pt x="174" y="1026" on="1"/>
        <pt x="301" y="1026" on="1"/>
        <pt x="297" y="352" on="1"/>
        <pt x="297" y="212" on="0"/>
        <pt x="445" y="75" on="0"/>
        <pt x="589" y="75" on="1"/>
        <pt x="670" y="75" on="0"/>
        <pt x="795" y="128" on="0"/>
        <pt x="880" y="221" on="0"/>
        <pt x="925" y="347" on="0"/>
        <pt x="925" y="421" on="1"/>
        <pt x="925" y="433" on="1"/>
      </contour>
    </TTGlyph>
    <TTGlyph name="mu1" xMin="179" yMin="-407" xMax="1046" yMax="1026">
      <contour>
        <pt x="879" y="208" on="1"/>
        <pt x="837" y="90" on="0"/>
        <pt x="691" y="-23" on="0"/>
        <pt x="577" y="-23" on="1"/>
        <pt x="390" y="-23" on="0"/>
        <pt x="326" y="134" on="1"/>
        <pt x="312" y="-407" on="1"/>
        <pt x="179" y="-407" on="1"/>
        <pt x="179" y="1026" on="1"/>
        <pt x="314" y="1026" on="1"/>
        <pt x="313" y="396" on="1"/>
        <pt x="313" y="395" on="0"/>
        <pt x="312" y="389" on="0"/>
        <pt x="312" y="388" on="1"/>
        <pt x="312" y="321" on="0"/>
        <pt x="353" y="214" on="0"/>
        <pt x="425" y="140" on="0"/>
        <pt x="525" y="100" on="0"/>
        <pt x="585" y="100" on="1"/>
        <pt x="651" y="100" on="0"/>
        <pt x="760" y="147" on="0"/>
        <pt x="837" y="235" on="0"/>
        <pt x="880" y="359" on="0"/>
        <pt x="880" y="436" on="1"/>
        <pt x="880" y="1026" on="1"/>
        <pt x="1016" y="1026" on="1"/>
        <pt x="1016" y="259" on="1"/>
        <pt x="1016" y="171" on="0"/>
        <pt x="1027" y="41" on="0"/>
        <pt x="1046" y="0" on="1"/>
        <pt x="908" y="0" on="1"/>
        <pt x="897" y="26" on="0"/>
        <pt x="878" y="121" on="0"/>
        <pt x="878" y="188" on="1"/>
        <pt x="878" y="193" on="0"/>
        <pt x="879" y="206" on="0"/>
      </contour>
    </TTGlyph>
    <TTGlyph name="multiply" xMin="301" yMin="200" xMax="1171" yMax="911">
      <contour>
        <pt x="1047" y="911" on="1"/>
        <pt x="1127" y="837" on="1"/>
        <pt x="815" y="554" on="1"/>
        <pt x="1168" y="272" on="1"/>
        <pt x="1103" y="200" on="1"/>
        <pt x="741" y="487" on="1"/>
        <pt x="425" y="200" on="1"/>
        <pt x="347" y="272" on="1"/>
        <pt x="656" y="554" on="1"/>
        <pt x="301" y="837" on="1"/>
        <pt x="369" y="911" on="1"/>
        <pt x="731" y="622" on="1"/>
      </contour>
      <contour>
        <pt x="1169" y="272" on="1"/>
        <pt x="1168" y="272" on="1"/>
        <pt x="1171" y="275" on="1"/>
      </contour>
      <contour>
        <pt x="345" y="272" on="1"/>
        <pt x="347" y="272" on="1"/>
      </contour>
    </TTGlyph>
    <TTGlyph name="n" xMin="178" yMin="0" xMax="1056" yMax="1051">
      <contour>
        <pt x="311" y="0" on="1"/>
        <pt x="187" y="0" on="1"/>
        <pt x="187" y="788" on="1"/>
        <pt x="178" y="1026" on="1"/>
        <pt x="308" y="1026" on="1"/>
        <pt x="314" y="825" on="1"/>
        <pt x="435" y="1051" on="0"/>
        <pt x="694" y="1051" on="1"/>
        <pt x="769" y="1051" on="0"/>
        <pt x="882" y="1015" on="0"/>
        <pt x="963" y="952" on="0"/>
        <pt x="1015" y="868" on="0"/>
        <pt x="1043" y="771" on="0"/>
        <pt x="1055" y="666" on="0"/>
        <pt x="1055" y="614" on="1"/>
        <pt x="1056" y="587" on="0"/>
        <pt x="1056" y="440" on="0"/>
        <pt x="1056" y="333" on="1"/>
        <pt x="1056" y="0" on="1"/>
        <pt x="932" y="0" on="1"/>
        <pt x="932" y="542" on="1"/>
        <pt x="932" y="596" on="0"/>
        <pt x="931" y="658" on="0"/>
        <pt x="930" y="667" on="1"/>
        <pt x="925" y="808" on="0"/>
        <pt x="784" y="951" on="0"/>
        <pt x="661" y="951" on="1"/>
        <pt x="605" y="951" on="0"/>
        <pt x="510" y="922" on="0"/>
        <pt x="433" y="874" on="0"/>
        <pt x="375" y="813" on="0"/>
        <pt x="331" y="748" on="0"/>
        <pt x="311" y="686" on="0"/>
        <pt x="311" y="661" on="1"/>
      </contour>
    </TTGlyph>
    <TTGlyph name="nine" xMin="106" yMin="-23" xMax="1098" yMax="1469">
      <contour>
        <pt x="243" y="184" on="1"/>
        <pt x="289" y="133" on="0"/>
        <pt x="430" y="75" on="0"/>
        <pt x="526" y="75" on="1"/>
        <pt x="638" y="75" on="0"/>
        <pt x="806" y="184" on="0"/>
        <pt x="919" y="368" on="0"/>
        <pt x="975" y="608" on="0"/>
        <pt x="975" y="739" on="1"/>
        <pt x="975" y="756" on="0"/>
        <pt x="974" y="791" on="0"/>
        <pt x="973" y="808" on="1"/>
        <pt x="919" y="683" on="0"/>
        <pt x="705" y="552" on="0"/>
        <pt x="553" y="552" on="1"/>
        <pt x="451" y="552" on="0"/>
        <pt x="286" y="619" on="0"/>
        <pt x="169" y="738" on="0"/>
        <pt x="106" y="902" on="0"/>
        <pt x="106" y="1000" on="1"/>
        <pt x="106" y="1099" on="0"/>
        <pt x="175" y="1271" on="0"/>
        <pt x="301" y="1397" on="0"/>
        <pt x="481" y="1469" on="0"/>
        <pt x="592" y="1469" on="1"/>
        <pt x="713" y="1469" on="0"/>
        <pt x="902" y="1378" on="0"/>
        <pt x="1031" y="1200" on="0"/>
        <pt x="1098" y="938" on="0"/>
        <pt x="1098" y="768" on="1"/>
        <pt x="1098" y="594" on="0"/>
        <pt x="1022" y="303" on="0"/>
        <pt x="875" y="93" on="0"/>
        <pt x="659" y="-23" on="0"/>
        <pt x="520" y="-23" on="1"/>
        <pt x="414" y="-23" on="0"/>
        <pt x="256" y="42" on="0"/>
        <pt x="206" y="105" on="1"/>
      </contour>
      <contour>
        <pt x="582" y="661" on="1"/>
        <pt x="651" y="661" on="0"/>
        <pt x="784" y="706" on="0"/>
        <pt x="888" y="784" on="0"/>
        <pt x="951" y="891" on="0"/>
        <pt x="951" y="953" on="1"/>
        <pt x="951" y="1025" on="0"/>
        <pt x="910" y="1170" on="0"/>
        <pt x="821" y="1286" on="0"/>
        <pt x="681" y="1359" on="0"/>
        <pt x="582" y="1359" on="1"/>
        <pt x="505" y="1359" on="0"/>
        <pt x="378" y="1306" on="0"/>
        <pt x="288" y="1211" on="0"/>
        <pt x="238" y="1082" on="0"/>
        <pt x="238" y="1007" on="1"/>
        <pt x="238" y="933" on="0"/>
        <pt x="279" y="807" on="0"/>
        <pt x="363" y="714" on="0"/>
        <pt x="493" y="661" on="0"/>
      </contour>
    </TTGlyph>
    <TTGlyph name="notequal" xMin="187" yMin="52" xMax="1181" yMax="1123">
      <contour>
        <pt x="719" y="756" on="1"/>
        <pt x="187" y="756" on="1"/>
        <pt x="201" y="843" on="1"/>
        <pt x="760" y="843" on="1"/>
        <pt x="902" y="1123" on="1"/>
        <pt x="980" y="1111" on="1"/>
        <pt x="847" y="843" on="1"/>
        <pt x="1179" y="843" on="1"/>
        <pt x="1164" y="756" on="1"/>
        <pt x="805" y="756" on="1"/>
        <pt x="633" y="423" on="1"/>
        <pt x="1181" y="423" on="1"/>
        <pt x="1166" y="337" on="1"/>
        <pt x="591" y="337" on="1"/>
        <pt x="445" y="52" on="1"/>
        <pt x="369" y="64" on="1"/>
        <pt x="507" y="337" on="1"/>
        <pt x="189" y="337" on="1"/>
        <pt x="203" y="423" on="1"/>
        <pt x="547" y="423" on="1"/>
      </contour>
    </TTGlyph>
    <TTGlyph name="ntilde" xMin="178" yMin="0" xMax="1056" yMax="1451">
      <component glyphName="n" x="0" y="0" flags="0x1204"/>
      <component glyphName="tilde" x="166" y="0" flags="0x1004"/>
    </TTGlyph>
    <TTGlyph name="numbersign" xMin="60" yMin="63" xMax="1191" yMax="1436">
      <contour>
        <pt x="401" y="917" on="1"/>
        <pt x="128" y="917" on="1"/>
        <pt x="137" y="1010" on="1"/>
        <pt x="419" y="1010" on="1"/>
        <pt x="500" y="1436" on="1"/>
        <pt x="599" y="1436" on="1"/>
        <pt x="517" y="1010" on="1"/>
        <pt x="840" y="1010" on="1"/>
        <pt x="922" y="1436" on="1"/>
        <pt x="1018" y="1436" on="1"/>
        <pt x="938" y="1010" on="1"/>
        <pt x="1191" y="1010" on="1"/>
        <pt x="1181" y="917" on="1"/>
        <pt x="922" y="917" on="1"/>
        <pt x="862" y="595" on="1"/>
        <pt x="1126" y="595" on="1"/>
        <pt x="1112" y="504" on="1"/>
        <pt x="843" y="504" on="1"/>
        <pt x="758" y="63" on="1"/>
        <pt x="659" y="63" on="1"/>
        <pt x="745" y="504" on="1"/>
        <pt x="421" y="504" on="1"/>
        <pt x="334" y="63" on="1"/>
        <pt x="238" y="63" on="1"/>
        <pt x="324" y="504" on="1"/>
        <pt x="60" y="504" on="1"/>
        <pt x="67" y="595" on="1"/>
        <pt x="342" y="595" on="1"/>
      </contour>
      <contour>
        <pt x="824" y="917" on="1"/>
        <pt x="501" y="917" on="1"/>
        <pt x="437" y="595" on="1"/>
        <pt x="763" y="595" on="1"/>
      </contour>
    </TTGlyph>
    <TTGlyph name="o" xMin="110" yMin="-23" xMax="1147" yMax="1051">
      <contour>
        <pt x="633" y="1051" on="1"/>
        <pt x="761" y="1051" on="0"/>
        <pt x="953" y="968" on="0"/>
        <pt x="1082" y="823" on="0"/>
        <pt x="1147" y="627" on="0"/>
        <pt x="1147" y="515" on="1"/>
        <pt x="1147" y="405" on="0"/>
        <pt x="1078" y="210" on="0"/>
        <pt x="946" y="63" on="0"/>
        <pt x="751" y="-23" on="0"/>
        <pt x="625" y="-23" on="1"/>
        <pt x="500" y="-23" on="0"/>
        <pt x="308" y="59" on="0"/>
        <pt x="177" y="203" on="0"/>
        <pt x="110" y="397" on="0"/>
        <pt x="110" y="509" on="1"/>
        <pt x="110" y="621" on="0"/>
        <pt x="179" y="819" on="0"/>
        <pt x="312" y="966" on="0"/>
        <pt x="507" y="1051" on="0"/>
      </contour>
      <contour>
        <pt x="1017" y="511" on="1"/>
        <pt x="1017" y="600" on="0"/>
        <pt x="970" y="760" on="0"/>
        <pt x="874" y="880" on="0"/>
        <pt x="727" y="951" on="0"/>
        <pt x="626" y="951" on="1"/>
        <pt x="530" y="951" on="0"/>
        <pt x="386" y="878" on="0"/>
        <pt x="288" y="755" on="0"/>
        <pt x="239" y="596" on="0"/>
        <pt x="239" y="510" on="1"/>
        <pt x="239" y="424" on="0"/>
        <pt x="288" y="266" on="0"/>
        <pt x="387" y="146" on="0"/>
        <pt x="534" y="75" on="0"/>
        <pt x="632" y="75" on="1"/>
        <pt x="728" y="75" on="0"/>
        <pt x="873" y="147" on="0"/>
        <pt x="969" y="267" on="0"/>
        <pt x="1017" y="425" on="0"/>
      </contour>
    </TTGlyph>
    <TTGlyph name="oacute" xMin="110" yMin="-23" xMax="1147" yMax="1508">
      <component glyphName="acute" x="118" y="0" flags="0x1004"/>
      <component glyphName="o" x="0" y="0" flags="0x1004"/>
    </TTGlyph>
    <TTGlyph name="ocircumflex" xMin="110" yMin="-23" xMax="1147" yMax="1510">
      <component glyphName="circumflex" x="182" y="0" flags="0x1004"/>
      <component glyphName="o" x="0" y="0" flags="0x1004"/>
    </TTGlyph>
    <TTGlyph name="odieresis" xMin="110" yMin="-23" xMax="1147" yMax="1421">
      <component glyphName="dieresis" x="174" y="0" flags="0x1004"/>
      <component glyphName="o" x="0" y="0" flags="0x1004"/>
    </TTGlyph>
    <TTGlyph name="oe" xMin="105" yMin="-28" xMax="1895" yMax="1053">
      <contour>
        <pt x="1895" y="491" on="1"/>
        <pt x="1112" y="495" on="1"/>
        <pt x="1112" y="450" on="1"/>
        <pt x="1112" y="374" on="0"/>
        <pt x="1152" y="238" on="0"/>
        <pt x="1236" y="135" on="0"/>
        <pt x="1367" y="75" on="0"/>
        <pt x="1458" y="75" on="1"/>
        <pt x="1513" y="75" on="0"/>
        <pt x="1616" y="100" on="0"/>
        <pt x="1705" y="145" on="0"/>
        <pt x="1777" y="209" on="0"/>
        <pt x="1802" y="248" on="1"/>
        <pt x="1859" y="190" on="1"/>
        <pt x="1793" y="78" on="0"/>
        <pt x="1579" y="-28" on="0"/>
        <pt x="1441" y="-28" on="1"/>
        <pt x="1371" y="-28" on="0"/>
        <pt x="1247" y="5" on="0"/>
        <pt x="1147" y="72" on="0"/>
        <pt x="1072" y="172" on="0"/>
        <pt x="1051" y="240" on="1"/>
        <pt x="1051" y="242" on="0"/>
        <pt x="1038" y="244" on="0"/>
        <pt x="1039" y="246" on="1"/>
        <pt x="982" y="108" on="0"/>
        <pt x="762" y="-28" on="0"/>
        <pt x="613" y="-28" on="1"/>
        <pt x="491" y="-28" on="0"/>
        <pt x="302" y="56" on="0"/>
        <pt x="172" y="201" on="0"/>
        <pt x="105" y="396" on="0"/>
        <pt x="105" y="507" on="1"/>
        <pt x="105" y="619" on="0"/>
        <pt x="175" y="818" on="0"/>
        <pt x="308" y="966" on="0"/>
        <pt x="502" y="1053" on="0"/>
        <pt x="627" y="1053" on="1"/>
        <pt x="789" y="1053" on="0"/>
        <pt x="995" y="917" on="0"/>
        <pt x="1053" y="781" on="1"/>
        <pt x="1105" y="916" on="0"/>
        <pt x="1308" y="1053" on="0"/>
        <pt x="1455" y="1053" on="1"/>
        <pt x="1570" y="1053" on="0"/>
        <pt x="1736" y="972" on="0"/>
        <pt x="1844" y="824" on="0"/>
        <pt x="1895" y="617" on="0"/>
      </contour>
      <contour>
        <pt x="1112" y="593" on="1"/>
        <pt x="1762" y="593" on="1"/>
        <pt x="1762" y="634" on="1"/>
        <pt x="1762" y="700" on="0"/>
        <pt x="1723" y="816" on="0"/>
        <pt x="1646" y="901" on="0"/>
        <pt x="1531" y="951" on="0"/>
        <pt x="1455" y="951" on="1"/>
        <pt x="1374" y="951" on="0"/>
        <pt x="1247" y="892" on="0"/>
        <pt x="1159" y="793" on="0"/>
        <pt x="1112" y="663" on="0"/>
      </contour>
      <contour>
        <pt x="990" y="511" on="1"/>
        <pt x="990" y="604" on="0"/>
        <pt x="945" y="765" on="0"/>
        <pt x="853" y="883" on="0"/>
        <pt x="712" y="951" on="0"/>
        <pt x="616" y="951" on="1"/>
        <pt x="522" y="951" on="0"/>
        <pt x="380" y="878" on="0"/>
        <pt x="284" y="755" on="0"/>
        <pt x="235" y="594" on="0"/>
        <pt x="235" y="506" on="1"/>
        <pt x="235" y="419" on="0"/>
        <pt x="283" y="263" on="0"/>
        <pt x="380" y="144" on="0"/>
        <pt x="527" y="75" on="0"/>
        <pt x="626" y="75" on="1"/>
        <pt x="720" y="75" on="0"/>
        <pt x="857" y="147" on="0"/>
        <pt x="947" y="268" on="0"/>
        <pt x="990" y="425" on="0"/>
      </contour>
    </TTGlyph>
    <TTGlyph name="ogonek" xMin="72" yMin="-406" xMax="433" yMax="-6">
      <contour>
        <pt x="299" y="-328" on="1"/>
        <pt x="326" y="-328" on="0"/>
        <pt x="363" y="-326" on="0"/>
        <pt x="393" y="-321" on="0"/>
        <pt x="417" y="-314" on="0"/>
        <pt x="431" y="-309" on="1"/>
        <pt x="433" y="-380" on="1"/>
        <pt x="420" y="-385" on="0"/>
        <pt x="382" y="-394" on="0"/>
        <pt x="338" y="-402" on="0"/>
        <pt x="291" y="-406" on="0"/>
        <pt x="270" y="-406" on="1"/>
        <pt x="229" y="-406" on="0"/>
        <pt x="157" y="-385" on="0"/>
        <pt x="103" y="-346" on="0"/>
        <pt x="72" y="-289" on="0"/>
        <pt x="72" y="-252" on="1"/>
        <pt x="72" y="-215" on="0"/>
        <pt x="107" y="-150" on="0"/>
        <pt x="164" y="-94" on="0"/>
        <pt x="239" y="-46" on="0"/>
        <pt x="278" y="-25" on="1"/>
        <pt x="381" y="-6" on="1"/>
        <pt x="334" y="-33" on="0"/>
        <pt x="257" y="-89" on="0"/>
        <pt x="200" y="-144" on="0"/>
        <pt x="169" y="-198" on="0"/>
        <pt x="169" y="-223" on="1"/>
        <pt x="169" y="-248" on="0"/>
        <pt x="192" y="-287" on="0"/>
        <pt x="228" y="-314" on="0"/>
        <pt x="275" y="-328" on="0"/>
      </contour>
    </TTGlyph>
    <TTGlyph name="ograve" xMin="110" yMin="-23" xMax="1147" yMax="1508">
      <component glyphName="o" x="0" y="0" flags="0x1204"/>
      <component glyphName="grave" x="279" y="0" flags="0x1004"/>
    </TTGlyph>
    <TTGlyph name="one" xMin="299" yMin="0" xMax="939" yMax="1447">
      <contour>
        <pt x="301" y="1285" on="1"/>
        <pt x="374" y="1309" on="0"/>
        <pt x="514" y="1382" on="0"/>
        <pt x="581" y="1427" on="1"/>
        <pt x="711" y="1447" on="1"/>
        <pt x="711" y="112" on="1"/>
        <pt x="939" y="112" on="1"/>
        <pt x="939" y="0" on="1"/>
        <pt x="359" y="0" on="1"/>
        <pt x="359" y="117" on="1"/>
        <pt x="589" y="117" on="1"/>
        <pt x="588" y="1310" on="1"/>
        <pt x="516" y="1265" on="0"/>
        <pt x="369" y="1192" on="0"/>
        <pt x="299" y="1166" on="1"/>
      </contour>
    </TTGlyph>
    <TTGlyph name="onehalf" xMin="260" yMin="-1" xMax="1613" yMax="1452">
      <component glyphName="onesuperior" x="0" y="0" flags="0x1004"/>
      <component glyphName="fraction" x="716" y="0" flags="0x1004"/>
      <component glyphName="twosuperior" x="781" y="-629" flags="0x1004"/>
    </TTGlyph>
    <TTGlyph name="onequarter" xMin="260" yMin="0" xMax="1679" yMax="1452">
      <component glyphName="onesuperior" x="0" y="0" flags="0x1004"/>
      <component glyphName="fraction" x="774" y="0" flags="0x1004"/>
      <component glyphName="foursuperior" x="1086" y="-578" flags="0x1004"/>
    </TTGlyph>
    <TTGlyph name="onesuperior" xMin="260" yMin="628" xMax="631" yMax="1440">
      <contour>
        <pt x="261" y="1349" on="1"/>
        <pt x="306" y="1363" on="0"/>
        <pt x="385" y="1405" on="0"/>
        <pt x="422" y="1428" on="1"/>
        <pt x="505" y="1440" on="1"/>
        <pt x="505" y="708" on="1"/>
        <pt x="631" y="708" on="1"/>
        <pt x="631" y="628" on="1"/>
        <pt x="292" y="628" on="1"/>
        <pt x="292" y="711" on="1"/>
        <pt x="419" y="711" on="1"/>
        <pt x="418" y="1337" on="1"/>
        <pt x="380" y="1314" on="0"/>
        <pt x="298" y="1275" on="0"/>
        <pt x="260" y="1260" on="1"/>
      </contour>
    </TTGlyph>
    <TTGlyph name="ordfeminine" xMin="87" yMin="796" xMax="667" yMax="1493">
      <contour>
        <pt x="159" y="1429" on="1"/>
        <pt x="208" y="1463" on="0"/>
        <pt x="331" y="1493" on="0"/>
        <pt x="403" y="1493" on="1"/>
        <pt x="457" y="1493" on="0"/>
        <pt x="552" y="1464" on="0"/>
        <pt x="621" y="1409" on="0"/>
        <pt x="661" y="1327" on="0"/>
        <pt x="661" y="1274" on="1"/>
        <pt x="661" y="1266" on="0"/>
        <pt x="662" y="1263" on="1"/>
        <pt x="660" y="933" on="1"/>
        <pt x="660" y="901" on="0"/>
        <pt x="665" y="844" on="0"/>
        <pt x="667" y="814" on="1"/>
        <pt x="579" y="814" on="1"/>
        <pt x="577" y="941" on="1"/>
        <pt x="564" y="912" on="0"/>
        <pt x="515" y="859" on="0"/>
        <pt x="448" y="819" on="0"/>
        <pt x="366" y="796" on="0"/>
        <pt x="321" y="796" on="1"/>
        <pt x="271" y="796" on="0"/>
        <pt x="186" y="824" on="0"/>
        <pt x="123" y="877" on="0"/>
        <pt x="87" y="951" on="0"/>
        <pt x="87" y="997" on="1"/>
        <pt x="87" y="1180" on="0"/>
        <pt x="318" y="1198" on="1"/>
        <pt x="387" y="1205" on="0"/>
        <pt x="512" y="1216" on="0"/>
        <pt x="576" y="1220" on="1"/>
        <pt x="576" y="1280" on="0"/>
        <pt x="557" y="1357" on="0"/>
        <pt x="514" y="1402" on="0"/>
        <pt x="444" y="1419" on="0"/>
        <pt x="394" y="1419" on="1"/>
        <pt x="336" y="1419" on="0"/>
        <pt x="230" y="1399" on="0"/>
        <pt x="187" y="1370" on="1"/>
      </contour>
      <contour>
        <pt x="345" y="865" on="1"/>
        <pt x="409" y="865" on="0"/>
        <pt x="497" y="917" on="0"/>
        <pt x="551" y="992" on="0"/>
        <pt x="575" y="1075" on="0"/>
        <pt x="575" y="1107" on="1"/>
        <pt x="573" y="1157" on="1"/>
        <pt x="534" y="1148" on="0"/>
        <pt x="445" y="1140" on="0"/>
        <pt x="357" y="1130" on="0"/>
        <pt x="277" y="1115" on="0"/>
        <pt x="216" y="1085" on="0"/>
        <pt x="179" y="1035" on="0"/>
        <pt x="179" y="995" on="1"/>
        <pt x="179" y="929" on="0"/>
        <pt x="271" y="865" on="0"/>
      </contour>
    </TTGlyph>
    <TTGlyph name="ordmasculine" xMin="75" yMin="795" xMax="771" yMax="1492">
      <contour>
        <pt x="425" y="1492" on="1"/>
        <pt x="510" y="1492" on="0"/>
        <pt x="640" y="1439" on="0"/>
        <pt x="727" y="1346" on="0"/>
        <pt x="771" y="1218" on="0"/>
        <pt x="771" y="1144" on="1"/>
        <pt x="771" y="1072" on="0"/>
        <pt x="725" y="945" on="0"/>
        <pt x="637" y="850" on="0"/>
        <pt x="508" y="795" on="0"/>
        <pt x="424" y="795" on="1"/>
        <pt x="338" y="795" on="0"/>
        <pt x="207" y="849" on="0"/>
        <pt x="119" y="943" on="0"/>
        <pt x="75" y="1072" on="0"/>
        <pt x="75" y="1146" on="1"/>
        <pt x="75" y="1219" on="0"/>
        <pt x="121" y="1345" on="0"/>
        <pt x="211" y="1438" on="0"/>
        <pt x="341" y="1492" on="0"/>
      </contour>
      <contour>
        <pt x="168" y="1146" on="1"/>
        <pt x="168" y="1089" on="0"/>
        <pt x="201" y="988" on="0"/>
        <pt x="265" y="913" on="0"/>
        <pt x="362" y="869" on="0"/>
        <pt x="427" y="869" on="1"/>
        <pt x="488" y="869" on="0"/>
        <pt x="582" y="913" on="0"/>
        <pt x="647" y="988" on="0"/>
        <pt x="680" y="1086" on="0"/>
        <pt x="680" y="1141" on="1"/>
        <pt x="680" y="1198" on="0"/>
        <pt x="646" y="1299" on="0"/>
        <pt x="580" y="1375" on="0"/>
        <pt x="483" y="1419" on="0"/>
        <pt x="420" y="1419" on="1"/>
        <pt x="359" y="1419" on="0"/>
        <pt x="265" y="1375" on="0"/>
        <pt x="201" y="1301" on="0"/>
        <pt x="168" y="1201" on="0"/>
      </contour>
    </TTGlyph>
    <TTGlyph name="oslash" xMin="110" yMin="-175" xMax="1147" yMax="1189">
      <contour>
        <pt x="310" y="-175" on="1"/>
        <pt x="387" y="27" on="1"/>
        <pt x="319" y="58" on="0"/>
        <pt x="216" y="156" on="0"/>
        <pt x="146" y="281" on="0"/>
        <pt x="110" y="428" on="0"/>
        <pt x="110" y="509" on="1"/>
        <pt x="110" y="621" on="0"/>
        <pt x="179" y="819" on="0"/>
        <pt x="312" y="966" on="0"/>
        <pt x="507" y="1051" on="0"/>
        <pt x="633" y="1051" on="1"/>
        <pt x="708" y="1051" on="0"/>
        <pt x="773" y="1036" on="1"/>
        <pt x="832" y="1189" on="1"/>
        <pt x="953" y="1189" on="1"/>
        <pt x="879" y="998" on="1"/>
        <pt x="946" y="965" on="0"/>
        <pt x="1047" y="865" on="0"/>
        <pt x="1114" y="741" on="0"/>
        <pt x="1147" y="594" on="0"/>
        <pt x="1147" y="515" on="1"/>
        <pt x="1147" y="405" on="0"/>
        <pt x="1078" y="210" on="0"/>
        <pt x="946" y="63" on="0"/>
        <pt x="751" y="-23" on="0"/>
        <pt x="625" y="-23" on="1"/>
        <pt x="590" y="-23" on="0"/>
        <pt x="523" y="-16" on="0"/>
        <pt x="490" y="-9" on="1"/>
        <pt x="426" y="-175" on="1"/>
      </contour>
      <contour>
        <pt x="626" y="951" on="1"/>
        <pt x="530" y="951" on="0"/>
        <pt x="386" y="878" on="0"/>
        <pt x="288" y="755" on="0"/>
        <pt x="239" y="596" on="0"/>
        <pt x="239" y="510" on="1"/>
        <pt x="239" y="451" on="0"/>
        <pt x="262" y="340" on="0"/>
        <pt x="308" y="242" on="0"/>
        <pt x="379" y="160" on="0"/>
        <pt x="426" y="130" on="1"/>
        <pt x="735" y="938" on="1"/>
        <pt x="687" y="951" on="0"/>
      </contour>
      <contour>
        <pt x="1017" y="511" on="1"/>
        <pt x="1017" y="632" on="0"/>
        <pt x="931" y="832" on="0"/>
        <pt x="838" y="893" on="1"/>
        <pt x="526" y="87" on="1"/>
        <pt x="575" y="75" on="0"/>
        <pt x="632" y="75" on="1"/>
        <pt x="728" y="75" on="0"/>
        <pt x="873" y="147" on="0"/>
        <pt x="969" y="267" on="0"/>
        <pt x="1017" y="425" on="0"/>
      </contour>
    </TTGlyph>
    <TTGlyph name="otilde" xMin="110" yMin="-23" xMax="1147" yMax="1451">
      <component glyphName="o" x="0" y="0" flags="0x1204"/>
      <component glyphName="tilde" x="176" y="0" flags="0x1004"/>
    </TTGlyph>
    <TTGlyph name="p" xMin="168" yMin="-443" xMax="1145" yMax="1051">
      <contour>
        <pt x="299" y="-443" on="1"/>
        <pt x="175" y="-443" on="1"/>
        <pt x="175" y="767" on="1"/>
        <pt x="175" y="795" on="0"/>
        <pt x="173" y="924" on="0"/>
        <pt x="168" y="1026" on="1"/>
        <pt x="297" y="1026" on="1"/>
        <pt x="300" y="818" on="1"/>
        <pt x="361" y="941" on="0"/>
        <pt x="571" y="1051" on="0"/>
        <pt x="705" y="1051" on="1"/>
        <pt x="817" y="1051" on="0"/>
        <pt x="982" y="968" on="0"/>
        <pt x="1091" y="826" on="0"/>
        <pt x="1145" y="636" on="0"/>
        <pt x="1145" y="529" on="1"/>
        <pt x="1145" y="420" on="0"/>
        <pt x="1087" y="220" on="0"/>
        <pt x="972" y="68" on="0"/>
        <pt x="797" y="-23" on="0"/>
        <pt x="680" y="-23" on="1"/>
        <pt x="429" y="-23" on="0"/>
        <pt x="299" y="194" on="1"/>
      </contour>
      <contour>
        <pt x="298" y="494" on="1"/>
        <pt x="298" y="404" on="0"/>
        <pt x="346" y="251" on="0"/>
        <pt x="438" y="138" on="0"/>
        <pt x="573" y="75" on="0"/>
        <pt x="659" y="75" on="1"/>
        <pt x="753" y="75" on="0"/>
        <pt x="887" y="148" on="0"/>
        <pt x="973" y="271" on="0"/>
        <pt x="1014" y="432" on="0"/>
        <pt x="1014" y="521" on="1"/>
        <pt x="1014" y="604" on="0"/>
        <pt x="978" y="759" on="0"/>
        <pt x="895" y="879" on="0"/>
        <pt x="761" y="951" on="0"/>
        <pt x="664" y="951" on="1"/>
        <pt x="561" y="951" on="0"/>
        <pt x="421" y="875" on="0"/>
        <pt x="335" y="749" on="0"/>
        <pt x="298" y="584" on="0"/>
      </contour>
    </TTGlyph>
    <TTGlyph name="paragraph" xMin="125" yMin="-154" xMax="1012" yMax="1467">
      <contour>
        <pt x="470" y="-154" on="1"/>
        <pt x="470" y="814" on="1"/>
        <pt x="460" y="814" on="1"/>
        <pt x="392" y="814" on="0"/>
        <pt x="270" y="862" on="0"/>
        <pt x="178" y="950" on="0"/>
        <pt x="125" y="1074" on="0"/>
        <pt x="125" y="1150" on="1"/>
        <pt x="125" y="1242" on="0"/>
        <pt x="207" y="1364" on="0"/>
        <pt x="348" y="1437" on="0"/>
        <pt x="535" y="1467" on="0"/>
        <pt x="639" y="1467" on="1"/>
        <pt x="1012" y="1467" on="1"/>
        <pt x="1012" y="1377" on="1"/>
        <pt x="923" y="1377" on="1"/>
        <pt x="923" y="-154" on="1"/>
        <pt x="824" y="-154" on="1"/>
        <pt x="824" y="1377" on="1"/>
        <pt x="584" y="1377" on="1"/>
        <pt x="584" y="-154" on="1"/>
      </contour>
    </TTGlyph>
    <TTGlyph name="parenleft" xMin="178" yMin="-268" xMax="554" yMax="1467">
      <contour>
        <pt x="455" y="-268" on="1"/>
        <pt x="398" y="-181" on="0"/>
        <pt x="298" y="20" on="0"/>
        <pt x="222" y="239" on="0"/>
        <pt x="178" y="470" on="0"/>
        <pt x="178" y="589" on="1"/>
        <pt x="178" y="710" on="0"/>
        <pt x="217" y="940" on="0"/>
        <pt x="290" y="1159" on="0"/>
        <pt x="394" y="1367" on="0"/>
        <pt x="458" y="1467" on="1"/>
        <pt x="553" y="1467" on="1"/>
        <pt x="430" y="1268" on="0"/>
        <pt x="297" y="833" on="0"/>
        <pt x="297" y="598" on="1"/>
        <pt x="297" y="489" on="0"/>
        <pt x="332" y="260" on="0"/>
        <pt x="398" y="36" on="0"/>
        <pt x="494" y="-176" on="0"/>
        <pt x="554" y="-268" on="1"/>
      </contour>
    </TTGlyph>
    <TTGlyph name="parenright" xMin="89" yMin="-268" xMax="471" yMax="1467">
      <contour>
        <pt x="189" y="-268" on="1"/>
        <pt x="93" y="-268" on="1"/>
        <pt x="149" y="-178" on="0"/>
        <pt x="243" y="24" on="0"/>
        <pt x="311" y="243" on="0"/>
        <pt x="349" y="479" on="0"/>
        <pt x="349" y="604" on="1"/>
        <pt x="349" y="710" on="0"/>
        <pt x="314" y="933" on="0"/>
        <pt x="248" y="1155" on="0"/>
        <pt x="151" y="1369" on="0"/>
        <pt x="89" y="1467" on="1"/>
        <pt x="190" y="1467" on="1"/>
        <pt x="248" y="1375" on="0"/>
        <pt x="350" y="1171" on="0"/>
        <pt x="426" y="953" on="0"/>
        <pt x="471" y="722" on="0"/>
        <pt x="471" y="604" on="1"/>
        <pt x="471" y="481" on="0"/>
        <pt x="430" y="250" on="0"/>
        <pt x="355" y="33" on="0"/>
        <pt x="252" y="-171" on="0"/>
      </contour>
    </TTGlyph>
    <TTGlyph name="partialdiff" xMin="103" yMin="-24" xMax="1079" yMax="1552">
      <contour>
        <pt x="504" y="77" on="1"/>
        <pt x="594" y="77" on="0"/>
        <pt x="742" y="164" on="0"/>
        <pt x="853" y="320" on="0"/>
        <pt x="922" y="534" on="0"/>
        <pt x="932" y="661" on="1"/>
        <pt x="917" y="710" on="0"/>
        <pt x="863" y="798" on="0"/>
        <pt x="785" y="862" on="0"/>
        <pt x="683" y="900" on="0"/>
        <pt x="620" y="900" on="1"/>
        <pt x="538" y="900" on="0"/>
        <pt x="395" y="822" on="0"/>
        <pt x="289" y="689" on="0"/>
        <pt x="228" y="512" on="0"/>
        <pt x="228" y="413" on="1"/>
        <pt x="228" y="337" on="0"/>
        <pt x="267" y="213" on="0"/>
        <pt x="339" y="125" on="0"/>
        <pt x="441" y="77" on="0"/>
      </contour>
      <contour>
        <pt x="948" y="764" on="1"/>
        <pt x="950" y="790" on="0"/>
        <pt x="953" y="872" on="0"/>
        <pt x="953" y="912" on="1"/>
        <pt x="953" y="1039" on="0"/>
        <pt x="900" y="1239" on="0"/>
        <pt x="802" y="1377" on="0"/>
        <pt x="661" y="1449" on="0"/>
        <pt x="574" y="1449" on="1"/>
        <pt x="496" y="1449" on="0"/>
        <pt x="361" y="1404" on="0"/>
        <pt x="315" y="1372" on="1"/>
        <pt x="308" y="1467" on="1"/>
        <pt x="365" y="1502" on="0"/>
        <pt x="516" y="1552" on="0"/>
        <pt x="604" y="1552" on="1"/>
        <pt x="713" y="1552" on="0"/>
        <pt x="889" y="1470" on="0"/>
        <pt x="1013" y="1302" on="0"/>
        <pt x="1079" y="1044" on="0"/>
        <pt x="1079" y="867" on="1"/>
        <pt x="1079" y="757" on="0"/>
        <pt x="1048" y="540" on="0"/>
        <pt x="984" y="342" on="0"/>
        <pt x="888" y="172" on="0"/>
        <pt x="759" y="47" on="0"/>
        <pt x="596" y="-24" on="0"/>
        <pt x="498" y="-24" on="1"/>
        <pt x="399" y="-24" on="0"/>
        <pt x="251" y="44" on="0"/>
        <pt x="152" y="162" on="0"/>
        <pt x="103" y="322" on="0"/>
        <pt x="103" y="415" on="1"/>
        <pt x="103" y="539" on="0"/>
        <pt x="181" y="754" on="0"/>
        <pt x="315" y="912" on="0"/>
        <pt x="496" y="1002" on="0"/>
        <pt x="599" y="1002" on="1"/>
        <pt x="676" y="1002" on="0"/>
        <pt x="796" y="957" on="0"/>
        <pt x="883" y="888" on="0"/>
        <pt x="937" y="803" on="0"/>
      </contour>
    </TTGlyph>
    <TTGlyph name="percent" xMin="184" yMin="-27" xMax="1829" yMax="1463">
      <contour>
        <pt x="1487" y="644" on="1"/>
        <pt x="1425" y="644" on="0"/>
        <pt x="1334" y="594" on="0"/>
        <pt x="1274" y="511" on="0"/>
        <pt x="1245" y="403" on="0"/>
        <pt x="1245" y="345" on="1"/>
        <pt x="1245" y="285" on="0"/>
        <pt x="1273" y="178" on="0"/>
        <pt x="1333" y="99" on="0"/>
        <pt x="1425" y="52" on="0"/>
        <pt x="1489" y="52" on="1"/>
        <pt x="1551" y="52" on="0"/>
        <pt x="1642" y="102" on="0"/>
        <pt x="1702" y="186" on="0"/>
        <pt x="1731" y="294" on="0"/>
        <pt x="1731" y="352" on="1"/>
        <pt x="1731" y="412" on="0"/>
        <pt x="1702" y="518" on="0"/>
        <pt x="1642" y="598" on="0"/>
        <pt x="1550" y="644" on="0"/>
      </contour>
      <contour>
        <pt x="1494" y="726" on="1"/>
        <pt x="1575" y="726" on="0"/>
        <pt x="1700" y="669" on="0"/>
        <pt x="1785" y="569" on="0"/>
        <pt x="1829" y="432" on="0"/>
        <pt x="1829" y="353" on="1"/>
        <pt x="1829" y="274" on="0"/>
        <pt x="1780" y="135" on="0"/>
        <pt x="1690" y="32" on="0"/>
        <pt x="1562" y="-27" on="0"/>
        <pt x="1483" y="-27" on="1"/>
        <pt x="1402" y="-27" on="0"/>
        <pt x="1277" y="30" on="0"/>
        <pt x="1190" y="129" on="0"/>
        <pt x="1145" y="265" on="0"/>
        <pt x="1145" y="344" on="1"/>
        <pt x="1145" y="424" on="0"/>
        <pt x="1194" y="563" on="0"/>
        <pt x="1285" y="667" on="0"/>
        <pt x="1414" y="726" on="0"/>
      </contour>
      <contour>
        <pt x="529" y="1463" on="1"/>
        <pt x="611" y="1463" on="0"/>
        <pt x="737" y="1406" on="0"/>
        <pt x="823" y="1306" on="0"/>
        <pt x="868" y="1169" on="0"/>
        <pt x="868" y="1090" on="1"/>
        <pt x="868" y="1011" on="0"/>
        <pt x="819" y="873" on="0"/>
        <pt x="728" y="770" on="0"/>
        <pt x="600" y="711" on="0"/>
        <pt x="522" y="711" on="1"/>
        <pt x="440" y="711" on="0"/>
        <pt x="314" y="769" on="0"/>
        <pt x="228" y="869" on="0"/>
        <pt x="184" y="1005" on="0"/>
        <pt x="184" y="1083" on="1"/>
        <pt x="184" y="1164" on="0"/>
        <pt x="232" y="1303" on="0"/>
        <pt x="322" y="1405" on="0"/>
        <pt x="450" y="1463" on="0"/>
      </contour>
      <contour>
        <pt x="1394" y="1452" on="1"/>
        <pt x="1499" y="1452" on="1"/>
        <pt x="583" y="-5" on="1"/>
        <pt x="478" y="-5" on="1"/>
      </contour>
      <contour>
        <pt x="526" y="1385" on="1"/>
        <pt x="463" y="1385" on="0"/>
        <pt x="371" y="1335" on="0"/>
        <pt x="311" y="1251" on="0"/>
        <pt x="281" y="1143" on="0"/>
        <pt x="281" y="1085" on="1"/>
        <pt x="281" y="1025" on="0"/>
        <pt x="311" y="918" on="0"/>
        <pt x="372" y="837" on="0"/>
        <pt x="465" y="790" on="0"/>
        <pt x="529" y="790" on="1"/>
        <pt x="591" y="790" on="0"/>
        <pt x="681" y="840" on="0"/>
        <pt x="740" y="923" on="0"/>
        <pt x="768" y="1030" on="0"/>
        <pt x="768" y="1088" on="1"/>
        <pt x="768" y="1148" on="0"/>
        <pt x="740" y="1255" on="0"/>
        <pt x="681" y="1337" on="0"/>
        <pt x="589" y="1385" on="0"/>
      </contour>
    </TTGlyph>
    <TTGlyph name="period" xMin="188" yMin="-11" xMax="361" yMax="168">
      <contour>
        <pt x="361" y="-11" on="1"/>
        <pt x="188" y="-11" on="1"/>
        <pt x="188" y="168" on="1"/>
        <pt x="361" y="168" on="1"/>
      </contour>
    </TTGlyph>
    <TTGlyph name="periodcentered" xMin="80" yMin="523" xMax="277" yMax="729">
      <contour>
        <pt x="184" y="523" on="1"/>
        <pt x="164" y="523" on="0"/>
        <pt x="126" y="540" on="0"/>
        <pt x="97" y="570" on="0"/>
        <pt x="80" y="609" on="0"/>
        <pt x="80" y="631" on="1"/>
        <pt x="80" y="673" on="0"/>
        <pt x="131" y="729" on="0"/>
        <pt x="168" y="729" on="1"/>
        <pt x="190" y="729" on="0"/>
        <pt x="229" y="711" on="0"/>
        <pt x="259" y="681" on="0"/>
        <pt x="277" y="640" on="0"/>
        <pt x="277" y="617" on="1"/>
        <pt x="277" y="578" on="0"/>
        <pt x="224" y="523" on="0"/>
      </contour>
    </TTGlyph>
    <TTGlyph name="periodcentered#1" xMin="80" yMin="523" xMax="277" yMax="729">
      <contour>
        <pt x="184" y="523" on="1"/>
        <pt x="164" y="523" on="0"/>
        <pt x="126" y="540" on="0"/>
        <pt x="97" y="570" on="0"/>
        <pt x="80" y="609" on="0"/>
        <pt x="80" y="631" on="1"/>
        <pt x="80" y="673" on="0"/>
        <pt x="131" y="729" on="0"/>
        <pt x="168" y="729" on="1"/>
        <pt x="190" y="729" on="0"/>
        <pt x="229" y="711" on="0"/>
        <pt x="259" y="681" on="0"/>
        <pt x="277" y="640" on="0"/>
        <pt x="277" y="617" on="1"/>
        <pt x="277" y="578" on="0"/>
        <pt x="224" y="523" on="0"/>
      </contour>
    </TTGlyph>
    <TTGlyph name="perthousand" xMin="81" yMin="-27" xMax="2336" yMax="1463">
      <contour>
        <pt x="2010" y="589" on="1"/>
        <pt x="1955" y="589" on="0"/>
        <pt x="1872" y="545" on="0"/>
        <pt x="1816" y="471" on="0"/>
        <pt x="1788" y="374" on="0"/>
        <pt x="1788" y="321" on="1"/>
        <pt x="1788" y="265" on="0"/>
        <pt x="1816" y="167" on="0"/>
        <pt x="1873" y="94" on="0"/>
        <pt x="1958" y="52" on="0"/>
        <pt x="2016" y="52" on="1"/>
        <pt x="2071" y="52" on="0"/>
        <pt x="2153" y="95" on="0"/>
        <pt x="2209" y="169" on="0"/>
        <pt x="2237" y="266" on="0"/>
        <pt x="2237" y="320" on="1"/>
        <pt x="2237" y="376" on="0"/>
        <pt x="2209" y="474" on="0"/>
        <pt x="2153" y="547" on="0"/>
        <pt x="2067" y="589" on="0"/>
      </contour>
      <contour>
        <pt x="2009" y="-27" on="1"/>
        <pt x="1932" y="-27" on="0"/>
        <pt x="1811" y="23" on="0"/>
        <pt x="1729" y="114" on="0"/>
        <pt x="1686" y="241" on="0"/>
        <pt x="1686" y="319" on="1"/>
        <pt x="1686" y="395" on="0"/>
        <pt x="1730" y="523" on="0"/>
        <pt x="1814" y="616" on="0"/>
        <pt x="1937" y="669" on="0"/>
        <pt x="2015" y="669" on="1"/>
        <pt x="2094" y="669" on="0"/>
        <pt x="2214" y="620" on="0"/>
        <pt x="2295" y="530" on="0"/>
        <pt x="2336" y="400" on="0"/>
        <pt x="2336" y="319" on="1"/>
        <pt x="2336" y="245" on="0"/>
        <pt x="2292" y="118" on="0"/>
        <pt x="2208" y="25" on="0"/>
        <pt x="2087" y="-27" on="0"/>
      </contour>
      <contour>
        <pt x="402" y="768" on="1"/>
        <pt x="325" y="768" on="0"/>
        <pt x="205" y="818" on="0"/>
        <pt x="123" y="910" on="0"/>
        <pt x="81" y="1037" on="0"/>
        <pt x="81" y="1115" on="1"/>
        <pt x="81" y="1191" on="0"/>
        <pt x="124" y="1318" on="0"/>
        <pt x="208" y="1411" on="0"/>
        <pt x="330" y="1463" on="0"/>
        <pt x="409" y="1463" on="1"/>
        <pt x="488" y="1463" on="0"/>
        <pt x="608" y="1413" on="0"/>
        <pt x="688" y="1322" on="0"/>
        <pt x="729" y="1193" on="0"/>
        <pt x="729" y="1114" on="1"/>
        <pt x="729" y="1040" on="0"/>
        <pt x="685" y="913" on="0"/>
        <pt x="601" y="820" on="0"/>
        <pt x="480" y="768" on="0"/>
      </contour>
      <contour>
        <pt x="1191" y="-27" on="1"/>
        <pt x="1114" y="-27" on="0"/>
        <pt x="994" y="23" on="0"/>
        <pt x="912" y="115" on="0"/>
        <pt x="870" y="242" on="0"/>
        <pt x="870" y="320" on="1"/>
        <pt x="870" y="395" on="0"/>
        <pt x="913" y="523" on="0"/>
        <pt x="996" y="616" on="0"/>
        <pt x="1119" y="669" on="0"/>
        <pt x="1199" y="669" on="1"/>
        <pt x="1277" y="669" on="0"/>
        <pt x="1396" y="620" on="0"/>
        <pt x="1478" y="529" on="0"/>
        <pt x="1520" y="399" on="0"/>
        <pt x="1520" y="319" on="1"/>
        <pt x="1520" y="245" on="0"/>
        <pt x="1476" y="118" on="0"/>
        <pt x="1391" y="25" on="0"/>
        <pt x="1269" y="-27" on="0"/>
      </contour>
      <contour>
        <pt x="1194" y="589" on="1"/>
        <pt x="1138" y="589" on="0"/>
        <pt x="1053" y="545" on="0"/>
        <pt x="997" y="471" on="0"/>
        <pt x="969" y="374" on="0"/>
        <pt x="969" y="321" on="1"/>
        <pt x="969" y="265" on="0"/>
        <pt x="998" y="167" on="0"/>
        <pt x="1056" y="94" on="0"/>
        <pt x="1142" y="52" on="0"/>
        <pt x="1200" y="52" on="1"/>
        <pt x="1255" y="52" on="0"/>
        <pt x="1337" y="95" on="0"/>
        <pt x="1392" y="169" on="0"/>
        <pt x="1420" y="265" on="0"/>
        <pt x="1420" y="319" on="1"/>
        <pt x="1420" y="376" on="0"/>
        <pt x="1391" y="475" on="0"/>
        <pt x="1334" y="547" on="0"/>
        <pt x="1250" y="589" on="0"/>
      </contour>
      <contour>
        <pt x="405" y="1385" on="1"/>
        <pt x="349" y="1385" on="0"/>
        <pt x="265" y="1341" on="0"/>
        <pt x="209" y="1267" on="0"/>
        <pt x="181" y="1170" on="0"/>
        <pt x="181" y="1117" on="1"/>
        <pt x="181" y="1060" on="0"/>
        <pt x="209" y="962" on="0"/>
        <pt x="266" y="889" on="0"/>
        <pt x="352" y="847" on="0"/>
        <pt x="409" y="847" on="1"/>
        <pt x="464" y="847" on="0"/>
        <pt x="548" y="890" on="0"/>
        <pt x="603" y="963" on="0"/>
        <pt x="631" y="1059" on="0"/>
        <pt x="631" y="1113" on="1"/>
        <pt x="631" y="1170" on="0"/>
        <pt x="602" y="1269" on="0"/>
        <pt x="545" y="1342" on="0"/>
        <pt x="461" y="1385" on="0"/>
      </contour>
      <contour>
        <pt x="272" y="-21" on="1"/>
        <pt x="1223" y="1452" on="1"/>
        <pt x="1323" y="1452" on="1"/>
        <pt x="372" y="-21" on="1"/>
      </contour>
    </TTGlyph>
    <TTGlyph name="pi" xMin="150" yMin="0" xMax="1231" yMax="1027">
      <contour>
        <pt x="271" y="0" on="1"/>
        <pt x="271" y="907" on="1"/>
        <pt x="150" y="907" on="1"/>
        <pt x="150" y="1027" on="1"/>
        <pt x="1231" y="1027" on="1"/>
        <pt x="1231" y="907" on="1"/>
        <pt x="1100" y="907" on="1"/>
        <pt x="1100" y="0" on="1"/>
        <pt x="983" y="0" on="1"/>
        <pt x="983" y="907" on="1"/>
        <pt x="389" y="907" on="1"/>
        <pt x="389" y="0" on="1"/>
      </contour>
    </TTGlyph>
    <TTGlyph name="plus" xMin="218" yMin="65" xMax="1256" yMax="1047">
      <contour>
        <pt x="685" y="608" on="1"/>
        <pt x="685" y="1047" on="1"/>
        <pt x="791" y="1047" on="1"/>
        <pt x="791" y="608" on="1"/>
        <pt x="1256" y="608" on="1"/>
        <pt x="1256" y="504" on="1"/>
        <pt x="788" y="504" on="1"/>
        <pt x="788" y="65" on="1"/>
        <pt x="681" y="65" on="1"/>
        <pt x="681" y="504" on="1"/>
        <pt x="218" y="504" on="1"/>
        <pt x="218" y="608" on="1"/>
      </contour>
    </TTGlyph>
    <TTGlyph name="plusminus" xMin="217" yMin="0" xMax="1257" yMax="1110">
      <contour>
        <pt x="221" y="0" on="1"/>
        <pt x="221" y="107" on="1"/>
        <pt x="1257" y="107" on="1"/>
        <pt x="1257" y="0" on="1"/>
      </contour>
      <contour>
        <pt x="685" y="724" on="1"/>
        <pt x="685" y="1110" on="1"/>
        <pt x="788" y="1110" on="1"/>
        <pt x="788" y="724" on="1"/>
        <pt x="1255" y="724" on="1"/>
        <pt x="1255" y="617" on="1"/>
        <pt x="787" y="617" on="1"/>
        <pt x="787" y="232" on="1"/>
        <pt x="683" y="232" on="1"/>
        <pt x="683" y="617" on="1"/>
        <pt x="217" y="617" on="1"/>
        <pt x="237" y="724" on="1"/>
      </contour>
    </TTGlyph>
    <TTGlyph name="product" xMin="151" yMin="-341" xMax="1456" yMax="1439">
      <contour>
        <pt x="272" y="-341" on="1"/>
        <pt x="272" y="1319" on="1"/>
        <pt x="151" y="1319" on="1"/>
        <pt x="151" y="1439" on="1"/>
        <pt x="1456" y="1439" on="1"/>
        <pt x="1456" y="1319" on="1"/>
        <pt x="1325" y="1319" on="1"/>
        <pt x="1325" y="-341" on="1"/>
        <pt x="1208" y="-341" on="1"/>
        <pt x="1208" y="1319" on="1"/>
        <pt x="390" y="1319" on="1"/>
        <pt x="390" y="-341" on="1"/>
      </contour>
    </TTGlyph>
    <TTGlyph name="q" xMin="112" yMin="-442" xMax="1083" yMax="1051">
      <contour>
        <pt x="956" y="210" on="1"/>
        <pt x="891" y="90" on="0"/>
        <pt x="683" y="-23" on="0"/>
        <pt x="553" y="-23" on="1"/>
        <pt x="442" y="-23" on="0"/>
        <pt x="277" y="58" on="0"/>
        <pt x="167" y="201" on="0"/>
        <pt x="112" y="394" on="0"/>
        <pt x="112" y="505" on="1"/>
        <pt x="112" y="614" on="0"/>
        <pt x="171" y="812" on="0"/>
        <pt x="288" y="962" on="0"/>
        <pt x="463" y="1051" on="0"/>
        <pt x="579" y="1051" on="1"/>
        <pt x="713" y="1051" on="0"/>
        <pt x="908" y="942" on="0"/>
        <pt x="956" y="839" on="1"/>
        <pt x="960" y="1026" on="1"/>
        <pt x="1083" y="1026" on="1"/>
        <pt x="1081" y="942" on="0"/>
        <pt x="1080" y="842" on="0"/>
        <pt x="1080" y="825" on="1"/>
        <pt x="1080" y="-442" on="1"/>
        <pt x="956" y="-442" on="1"/>
      </contour>
      <contour>
        <pt x="959" y="544" on="1"/>
        <pt x="959" y="633" on="0"/>
        <pt x="912" y="782" on="0"/>
        <pt x="821" y="890" on="0"/>
        <pt x="688" y="951" on="0"/>
        <pt x="603" y="951" on="1"/>
        <pt x="510" y="951" on="0"/>
        <pt x="374" y="880" on="0"/>
        <pt x="285" y="759" on="0"/>
        <pt x="241" y="597" on="0"/>
        <pt x="241" y="506" on="1"/>
        <pt x="241" y="420" on="0"/>
        <pt x="280" y="263" on="0"/>
        <pt x="365" y="145" on="0"/>
        <pt x="498" y="75" on="0"/>
        <pt x="593" y="75" on="1"/>
        <pt x="699" y="75" on="0"/>
        <pt x="840" y="156" on="0"/>
        <pt x="924" y="289" on="0"/>
        <pt x="959" y="457" on="0"/>
      </contour>
    </TTGlyph>
    <TTGlyph name="question" xMin="208" yMin="-11" xMax="898" yMax="1494">
      <contour>
        <pt x="390" y="380" on="1"/>
        <pt x="376" y="557" on="1"/>
        <pt x="375" y="562" on="0"/>
        <pt x="375" y="571" on="1"/>
        <pt x="375" y="625" on="0"/>
        <pt x="434" y="716" on="0"/>
        <pt x="522" y="801" on="0"/>
        <pt x="626" y="885" on="0"/>
        <pt x="714" y="977" on="0"/>
        <pt x="773" y="1082" on="0"/>
        <pt x="773" y="1146" on="1"/>
        <pt x="773" y="1210" on="0"/>
        <pt x="726" y="1301" on="0"/>
        <pt x="650" y="1359" on="0"/>
        <pt x="552" y="1386" on="0"/>
        <pt x="500" y="1386" on="1"/>
        <pt x="453" y="1386" on="0"/>
        <pt x="372" y="1373" on="0"/>
        <pt x="300" y="1353" on="0"/>
        <pt x="236" y="1331" on="0"/>
        <pt x="208" y="1322" on="1"/>
        <pt x="208" y="1428" on="1"/>
        <pt x="272" y="1463" on="0"/>
        <pt x="410" y="1494" on="0"/>
        <pt x="473" y="1494" on="1"/>
        <pt x="562" y="1494" on="0"/>
        <pt x="717" y="1453" on="0"/>
        <pt x="832" y="1369" on="0"/>
        <pt x="898" y="1241" on="0"/>
        <pt x="898" y="1155" on="1"/>
        <pt x="898" y="1059" on="0"/>
        <pt x="818" y="917" on="0"/>
        <pt x="756" y="866" on="1"/>
        <pt x="739" y="852" on="0"/>
        <pt x="717" y="833" on="0"/>
        <pt x="703" y="821" on="1"/>
        <pt x="640" y="762" on="0"/>
        <pt x="557" y="688" on="0"/>
        <pt x="508" y="626" on="0"/>
        <pt x="488" y="562" on="0"/>
        <pt x="488" y="514" on="1"/>
        <pt x="488" y="485" on="0"/>
        <pt x="491" y="449" on="1"/>
        <pt x="496" y="380" on="1"/>
      </contour>
      <contour>
        <pt x="550" y="-11" on="1"/>
        <pt x="377" y="-11" on="1"/>
        <pt x="377" y="168" on="1"/>
        <pt x="550" y="168" on="1"/>
      </contour>
    </TTGlyph>
    <TTGlyph name="questiondown" xMin="208" yMin="-173" xMax="899" yMax="1332">
      <component glyphName="question" x="1107" y="1321" scale="-0.999938964844" flags="0x1004"/>
    </TTGlyph>
    <TTGlyph name="quotedbl" xMin="139" yMin="1026" xMax="575" yMax="1467">
      <contour>
        <pt x="471" y="1026" on="1"/>
        <pt x="437" y="1467" on="1"/>
        <pt x="575" y="1467" on="1"/>
        <pt x="575" y="1026" on="1"/>
      </contour>
      <contour>
        <pt x="173" y="1026" on="1"/>
        <pt x="139" y="1467" on="1"/>
        <pt x="275" y="1467" on="1"/>
        <pt x="275" y="1026" on="1"/>
      </contour>
    </TTGlyph>
    <TTGlyph name="quotedblbase" xMin="209" yMin="-247" xMax="818" yMax="170">
      <contour>
        <pt x="311" y="170" on="1"/>
        <pt x="446" y="170" on="1"/>
        <pt x="296" y="-247" on="1"/>
        <pt x="209" y="-247" on="1"/>
      </contour>
      <contour>
        <pt x="681" y="170" on="1"/>
        <pt x="818" y="170" on="1"/>
        <pt x="670" y="-247" on="1"/>
        <pt x="581" y="-247" on="1"/>
      </contour>
    </TTGlyph>
    <TTGlyph name="quotedblleft" xMin="137" yMin="1060" xMax="663" yMax="1479">
      <contour>
        <pt x="273" y="1060" on="1"/>
        <pt x="137" y="1060" on="1"/>
        <pt x="287" y="1479" on="1"/>
        <pt x="373" y="1479" on="1"/>
      </contour>
      <contour>
        <pt x="564" y="1060" on="1"/>
        <pt x="406" y="1060" on="1"/>
        <pt x="574" y="1479" on="1"/>
        <pt x="663" y="1479" on="1"/>
      </contour>
    </TTGlyph>
    <TTGlyph name="quotedblright" xMin="170" yMin="1060" xMax="680" yMax="1479">
      <contour>
        <pt x="270" y="1479" on="1"/>
        <pt x="405" y="1479" on="1"/>
        <pt x="260" y="1060" on="1"/>
        <pt x="170" y="1060" on="1"/>
      </contour>
      <contour>
        <pt x="544" y="1479" on="1"/>
        <pt x="680" y="1479" on="1"/>
        <pt x="533" y="1060" on="1"/>
        <pt x="443" y="1060" on="1"/>
      </contour>
    </TTGlyph>
    <TTGlyph name="quoteleft" xMin="160" yMin="1060" xMax="395" yMax="1479">
      <contour>
        <pt x="295" y="1060" on="1"/>
        <pt x="160" y="1060" on="1"/>
        <pt x="307" y="1479" on="1"/>
        <pt x="395" y="1479" on="1"/>
      </contour>
    </TTGlyph>
    <TTGlyph name="quoteright" xMin="173" yMin="1060" xMax="408" yMax="1479">
      <contour>
        <pt x="274" y="1479" on="1"/>
        <pt x="408" y="1479" on="1"/>
        <pt x="262" y="1060" on="1"/>
        <pt x="173" y="1060" on="1"/>
      </contour>
    </TTGlyph>
    <TTGlyph name="quotesinglbase" xMin="159" yMin="-247" xMax="393" yMax="170">
      <contour>
        <pt x="259" y="170" on="1"/>
        <pt x="393" y="170" on="1"/>
        <pt x="246" y="-247" on="1"/>
        <pt x="159" y="-247" on="1"/>
      </contour>
    </TTGlyph>
    <TTGlyph name="quotesingle" xMin="204" yMin="1026" xMax="341" yMax="1467">
      <contour>
        <pt x="238" y="1026" on="1"/>
        <pt x="204" y="1467" on="1"/>
        <pt x="341" y="1467" on="1"/>
        <pt x="341" y="1026" on="1"/>
      </contour>
    </TTGlyph>
    <TTGlyph name="r" xMin="179" yMin="0" xMax="710" yMax="1051">
      <contour>
        <pt x="313" y="0" on="1"/>
        <pt x="189" y="0" on="1"/>
        <pt x="189" y="788" on="1"/>
        <pt x="179" y="1026" on="1"/>
        <pt x="309" y="1026" on="1"/>
        <pt x="313" y="778" on="1"/>
        <pt x="329" y="850" on="0"/>
        <pt x="390" y="953" on="0"/>
        <pt x="468" y="1019" on="0"/>
        <pt x="566" y="1050" on="0"/>
        <pt x="623" y="1051" on="1"/>
        <pt x="652" y="1051" on="0"/>
        <pt x="695" y="1048" on="0"/>
        <pt x="709" y="1044" on="1"/>
        <pt x="710" y="930" on="1"/>
        <pt x="701" y="934" on="0"/>
        <pt x="654" y="941" on="0"/>
        <pt x="616" y="941" on="1"/>
        <pt x="550" y="941" on="0"/>
        <pt x="440" y="890" on="0"/>
        <pt x="361" y="794" on="0"/>
        <pt x="314" y="658" on="0"/>
        <pt x="313" y="574" on="1"/>
      </contour>
    </TTGlyph>
    <TTGlyph name="radical" xMin="111" yMin="-159" xMax="1212" yMax="1618">
      <contour>
        <pt x="688" y="-78" on="1"/>
        <pt x="748" y="183" on="1"/>
        <pt x="1135" y="1618" on="1"/>
        <pt x="1212" y="1618" on="1"/>
        <pt x="737" y="-159" on="1"/>
        <pt x="642" y="-159" on="1"/>
        <pt x="296" y="718" on="1"/>
        <pt x="117" y="690" on="1"/>
        <pt x="111" y="768" on="1"/>
        <pt x="367" y="816" on="1"/>
        <pt x="596" y="198" on="1"/>
      </contour>
    </TTGlyph>
    <TTGlyph name="registered" xMin="115" yMin="-32" xMax="1739" yMax="1499">
      <contour>
        <pt x="731" y="689" on="1"/>
        <pt x="731" y="282" on="1"/>
        <pt x="631" y="282" on="1"/>
        <pt x="631" y="1198" on="1"/>
        <pt x="889" y="1198" on="1"/>
        <pt x="1103" y="1198" on="0"/>
        <pt x="1306" y="1069" on="0"/>
        <pt x="1306" y="952" on="1"/>
        <pt x="1306" y="904" on="0"/>
        <pt x="1271" y="815" on="0"/>
        <pt x="1198" y="746" on="0"/>
        <pt x="1086" y="703" on="0"/>
        <pt x="1010" y="700" on="1"/>
        <pt x="1034" y="686" on="0"/>
        <pt x="1087" y="630" on="0"/>
        <pt x="1142" y="558" on="0"/>
        <pt x="1197" y="474" on="0"/>
        <pt x="1248" y="390" on="0"/>
        <pt x="1295" y="312" on="0"/>
        <pt x="1313" y="282" on="1"/>
        <pt x="1195" y="282" on="1"/>
        <pt x="1072" y="494" on="1"/>
        <pt x="1030" y="567" on="0"/>
        <pt x="948" y="663" on="0"/>
        <pt x="903" y="689" on="1"/>
      </contour>
      <contour>
        <pt x="732" y="774" on="1"/>
        <pt x="885" y="774" on="1"/>
        <pt x="957" y="774" on="0"/>
        <pt x="1073" y="784" on="0"/>
        <pt x="1154" y="818" on="0"/>
        <pt x="1198" y="881" on="0"/>
        <pt x="1198" y="934" on="1"/>
        <pt x="1198" y="991" on="0"/>
        <pt x="1163" y="1060" on="0"/>
        <pt x="1086" y="1099" on="0"/>
        <pt x="962" y="1112" on="0"/>
        <pt x="874" y="1112" on="1"/>
        <pt x="728" y="1112" on="1"/>
      </contour>
      <contour>
        <pt x="932" y="51" on="1"/>
        <pt x="1035" y="51" on="0"/>
        <pt x="1222" y="99" on="0"/>
        <pt x="1383" y="188" on="0"/>
        <pt x="1514" y="312" on="0"/>
        <pt x="1607" y="463" on="0"/>
        <pt x="1657" y="638" on="0"/>
        <pt x="1657" y="732" on="1"/>
        <pt x="1657" y="828" on="0"/>
        <pt x="1606" y="1004" on="0"/>
        <pt x="1512" y="1156" on="0"/>
        <pt x="1380" y="1280" on="0"/>
        <pt x="1217" y="1368" on="0"/>
        <pt x="1028" y="1416" on="0"/>
        <pt x="925" y="1416" on="1"/>
        <pt x="773" y="1416" on="0"/>
        <pt x="508" y="1310" on="0"/>
        <pt x="312" y="1126" on="0"/>
        <pt x="199" y="877" on="0"/>
        <pt x="199" y="734" on="1"/>
        <pt x="199" y="590" on="0"/>
        <pt x="311" y="340" on="0"/>
        <pt x="508" y="156" on="0"/>
        <pt x="776" y="51" on="0"/>
      </contour>
      <contour>
        <pt x="930" y="-32" on="1"/>
        <pt x="818" y="-32" on="0"/>
        <pt x="610" y="23" on="0"/>
        <pt x="429" y="122" on="0"/>
        <pt x="280" y="262" on="0"/>
        <pt x="173" y="432" on="0"/>
        <pt x="115" y="627" on="0"/>
        <pt x="115" y="732" on="1"/>
        <pt x="115" y="837" on="0"/>
        <pt x="174" y="1033" on="0"/>
        <pt x="281" y="1203" on="0"/>
        <pt x="430" y="1344" on="0"/>
        <pt x="610" y="1444" on="0"/>
        <pt x="817" y="1499" on="0"/>
        <pt x="927" y="1499" on="1"/>
        <pt x="1039" y="1499" on="0"/>
        <pt x="1246" y="1444" on="0"/>
        <pt x="1426" y="1344" on="0"/>
        <pt x="1575" y="1204" on="0"/>
        <pt x="1681" y="1034" on="0"/>
        <pt x="1739" y="838" on="0"/>
        <pt x="1739" y="733" on="1"/>
        <pt x="1739" y="628" on="0"/>
        <pt x="1681" y="433" on="0"/>
        <pt x="1574" y="263" on="0"/>
        <pt x="1426" y="123" on="0"/>
        <pt x="1246" y="23" on="0"/>
        <pt x="1041" y="-32" on="0"/>
      </contour>
    </TTGlyph>
    <TTGlyph name="ring" xMin="226" yMin="1189" xMax="612" yMax="1549">
      <contour>
        <pt x="570" y="1371" on="1"/>
        <pt x="570" y="1398" on="0"/>
        <pt x="546" y="1447" on="0"/>
        <pt x="504" y="1486" on="0"/>
        <pt x="447" y="1509" on="0"/>
        <pt x="414" y="1509" on="1"/>
        <pt x="385" y="1509" on="0"/>
        <pt x="332" y="1486" on="0"/>
        <pt x="291" y="1448" on="0"/>
        <pt x="266" y="1398" on="0"/>
        <pt x="266" y="1371" on="1"/>
        <pt x="266" y="1309" on="0"/>
        <pt x="349" y="1230" on="0"/>
        <pt x="419" y="1230" on="1"/>
        <pt x="449" y="1230" on="0"/>
        <pt x="503" y="1253" on="0"/>
        <pt x="545" y="1292" on="0"/>
        <pt x="570" y="1343" on="0"/>
      </contour>
      <contour>
        <pt x="226" y="1370" on="1"/>
        <pt x="226" y="1408" on="0"/>
        <pt x="257" y="1474" on="0"/>
        <pt x="310" y="1522" on="0"/>
        <pt x="381" y="1549" on="0"/>
        <pt x="421" y="1549" on="1"/>
        <pt x="461" y="1549" on="0"/>
        <pt x="530" y="1522" on="0"/>
        <pt x="582" y="1474" on="0"/>
        <pt x="612" y="1409" on="0"/>
        <pt x="612" y="1371" on="1"/>
        <pt x="612" y="1334" on="0"/>
        <pt x="581" y="1268" on="0"/>
        <pt x="528" y="1218" on="0"/>
        <pt x="457" y="1189" on="0"/>
        <pt x="417" y="1189" on="1"/>
        <pt x="378" y="1189" on="0"/>
        <pt x="308" y="1216" on="0"/>
        <pt x="256" y="1264" on="0"/>
        <pt x="226" y="1331" on="0"/>
      </contour>
    </TTGlyph>
    <TTGlyph name="s" xMin="139" yMin="-23" xMax="906" yMax="1051">
      <contour>
        <pt x="800" y="894" on="1"/>
        <pt x="756" y="921" on="0"/>
        <pt x="603" y="951" on="0"/>
        <pt x="512" y="951" on="1"/>
        <pt x="459" y="951" on="0"/>
        <pt x="369" y="928" on="0"/>
        <pt x="304" y="885" on="0"/>
        <pt x="268" y="824" on="0"/>
        <pt x="268" y="785" on="1"/>
        <pt x="268" y="735" on="0"/>
        <pt x="297" y="677" on="0"/>
        <pt x="353" y="640" on="0"/>
        <pt x="435" y="617" on="0"/>
        <pt x="541" y="590" on="0"/>
        <pt x="669" y="549" on="0"/>
        <pt x="743" y="513" on="1"/>
        <pt x="770" y="500" on="0"/>
        <pt x="828" y="463" on="0"/>
        <pt x="876" y="407" on="0"/>
        <pt x="906" y="330" on="0"/>
        <pt x="906" y="278" on="1"/>
        <pt x="906" y="201" on="0"/>
        <pt x="835" y="88" on="0"/>
        <pt x="719" y="13" on="0"/>
        <pt x="570" y="-23" on="0"/>
        <pt x="492" y="-23" on="1"/>
        <pt x="439" y="-23" on="0"/>
        <pt x="336" y="-12" on="0"/>
        <pt x="244" y="13" on="0"/>
        <pt x="167" y="53" on="0"/>
        <pt x="141" y="82" on="1"/>
        <pt x="172" y="176" on="1"/>
        <pt x="195" y="150" on="0"/>
        <pt x="265" y="112" on="0"/>
        <pt x="348" y="87" on="0"/>
        <pt x="441" y="75" on="0"/>
        <pt x="488" y="75" on="1"/>
        <pt x="551" y="75" on="0"/>
        <pt x="657" y="99" on="0"/>
        <pt x="734" y="145" on="0"/>
        <pt x="776" y="215" on="0"/>
        <pt x="776" y="261" on="1"/>
        <pt x="776" y="314" on="0"/>
        <pt x="728" y="384" on="0"/>
        <pt x="642" y="432" on="0"/>
        <pt x="526" y="467" on="0"/>
        <pt x="457" y="486" on="1"/>
        <pt x="384" y="508" on="0"/>
        <pt x="267" y="556" on="0"/>
        <pt x="184" y="622" on="0"/>
        <pt x="139" y="713" on="0"/>
        <pt x="139" y="779" on="1"/>
        <pt x="139" y="848" on="0"/>
        <pt x="202" y="950" on="0"/>
        <pt x="306" y="1018" on="0"/>
        <pt x="437" y="1051" on="0"/>
        <pt x="506" y="1051" on="1"/>
        <pt x="606" y="1051" on="0"/>
        <pt x="775" y="1015" on="0"/>
        <pt x="829" y="973" on="1"/>
      </contour>
    </TTGlyph>
    <TTGlyph name="scaron" xMin="139" yMin="-23" xMax="906" yMax="1509">
      <component glyphName="s" x="0" y="0" flags="0x1204"/>
      <component glyphName="caron" x="140" y="0" flags="0x1004"/>
    </TTGlyph>
</ttFont>
